G04 #@! TF.GenerationSoftware,KiCad,Pcbnew,5.1.4*
G04 #@! TF.CreationDate,2019-11-12T07:29:03+09:00*
G04 #@! TF.ProjectId,computerScienceExperience2,636f6d70-7574-4657-9253-6369656e6365,rev?*
G04 #@! TF.SameCoordinates,Original*
G04 #@! TF.FileFunction,Legend,Bot*
G04 #@! TF.FilePolarity,Positive*
%FSLAX46Y46*%
G04 Gerber Fmt 4.6, Leading zero omitted, Abs format (unit mm)*
G04 Created by KiCad (PCBNEW 5.1.4) date 2019-11-12 07:29:03*
%MOMM*%
%LPD*%
G04 APERTURE LIST*
%ADD10C,0.150000*%
%ADD11C,0.120000*%
G04 APERTURE END LIST*
D10*
X152782142Y-153202380D02*
X152448809Y-154202380D01*
X152115476Y-153202380D01*
X151782142Y-153821428D02*
X151020238Y-153821428D01*
X149972619Y-154107142D02*
X150020238Y-154154761D01*
X150163095Y-154202380D01*
X150258333Y-154202380D01*
X150401190Y-154154761D01*
X150496428Y-154059523D01*
X150544047Y-153964285D01*
X150591666Y-153773809D01*
X150591666Y-153630952D01*
X150544047Y-153440476D01*
X150496428Y-153345238D01*
X150401190Y-153250000D01*
X150258333Y-153202380D01*
X150163095Y-153202380D01*
X150020238Y-153250000D01*
X149972619Y-153297619D01*
X149544047Y-153202380D02*
X149544047Y-154011904D01*
X149496428Y-154107142D01*
X149448809Y-154154761D01*
X149353571Y-154202380D01*
X149163095Y-154202380D01*
X149067857Y-154154761D01*
X149020238Y-154107142D01*
X148972619Y-154011904D01*
X148972619Y-153202380D01*
X148639285Y-153202380D02*
X148067857Y-153202380D01*
X148353571Y-154202380D02*
X148353571Y-153202380D01*
X100232142Y-127927380D02*
X99898809Y-128927380D01*
X99565476Y-127927380D01*
X99232142Y-128546428D02*
X98470238Y-128546428D01*
X97422619Y-128832142D02*
X97470238Y-128879761D01*
X97613095Y-128927380D01*
X97708333Y-128927380D01*
X97851190Y-128879761D01*
X97946428Y-128784523D01*
X97994047Y-128689285D01*
X98041666Y-128498809D01*
X98041666Y-128355952D01*
X97994047Y-128165476D01*
X97946428Y-128070238D01*
X97851190Y-127975000D01*
X97708333Y-127927380D01*
X97613095Y-127927380D01*
X97470238Y-127975000D01*
X97422619Y-128022619D01*
X96994047Y-127927380D02*
X96994047Y-128736904D01*
X96946428Y-128832142D01*
X96898809Y-128879761D01*
X96803571Y-128927380D01*
X96613095Y-128927380D01*
X96517857Y-128879761D01*
X96470238Y-128832142D01*
X96422619Y-128736904D01*
X96422619Y-127927380D01*
X96089285Y-127927380D02*
X95517857Y-127927380D01*
X95803571Y-128927380D02*
X95803571Y-127927380D01*
X100207142Y-79927380D02*
X99873809Y-80927380D01*
X99540476Y-79927380D01*
X99207142Y-80546428D02*
X98445238Y-80546428D01*
X97397619Y-80832142D02*
X97445238Y-80879761D01*
X97588095Y-80927380D01*
X97683333Y-80927380D01*
X97826190Y-80879761D01*
X97921428Y-80784523D01*
X97969047Y-80689285D01*
X98016666Y-80498809D01*
X98016666Y-80355952D01*
X97969047Y-80165476D01*
X97921428Y-80070238D01*
X97826190Y-79975000D01*
X97683333Y-79927380D01*
X97588095Y-79927380D01*
X97445238Y-79975000D01*
X97397619Y-80022619D01*
X96969047Y-79927380D02*
X96969047Y-80736904D01*
X96921428Y-80832142D01*
X96873809Y-80879761D01*
X96778571Y-80927380D01*
X96588095Y-80927380D01*
X96492857Y-80879761D01*
X96445238Y-80832142D01*
X96397619Y-80736904D01*
X96397619Y-79927380D01*
X96064285Y-79927380D02*
X95492857Y-79927380D01*
X95778571Y-80927380D02*
X95778571Y-79927380D01*
X100182142Y-103877380D02*
X99848809Y-104877380D01*
X99515476Y-103877380D01*
X99182142Y-104496428D02*
X98420238Y-104496428D01*
X97372619Y-104782142D02*
X97420238Y-104829761D01*
X97563095Y-104877380D01*
X97658333Y-104877380D01*
X97801190Y-104829761D01*
X97896428Y-104734523D01*
X97944047Y-104639285D01*
X97991666Y-104448809D01*
X97991666Y-104305952D01*
X97944047Y-104115476D01*
X97896428Y-104020238D01*
X97801190Y-103925000D01*
X97658333Y-103877380D01*
X97563095Y-103877380D01*
X97420238Y-103925000D01*
X97372619Y-103972619D01*
X96944047Y-103877380D02*
X96944047Y-104686904D01*
X96896428Y-104782142D01*
X96848809Y-104829761D01*
X96753571Y-104877380D01*
X96563095Y-104877380D01*
X96467857Y-104829761D01*
X96420238Y-104782142D01*
X96372619Y-104686904D01*
X96372619Y-103877380D01*
X96039285Y-103877380D02*
X95467857Y-103877380D01*
X95753571Y-104877380D02*
X95753571Y-103877380D01*
D11*
X150575000Y-152450000D02*
X150575000Y-56300000D01*
X199950000Y-128400000D02*
X101050000Y-128400000D01*
X101050000Y-104400000D02*
X199975000Y-104400000D01*
X101050000Y-80400000D02*
X199950000Y-80400000D01*
D10*
X113190476Y-148827380D02*
X113190476Y-147827380D01*
X112619047Y-148827380D02*
X113047619Y-148255952D01*
X112619047Y-147827380D02*
X113190476Y-148398809D01*
X112190476Y-148827380D02*
X112190476Y-148160714D01*
X112190476Y-147827380D02*
X112238095Y-147875000D01*
X112190476Y-147922619D01*
X112142857Y-147875000D01*
X112190476Y-147827380D01*
X112190476Y-147922619D01*
X111142857Y-148732142D02*
X111190476Y-148779761D01*
X111333333Y-148827380D01*
X111428571Y-148827380D01*
X111571428Y-148779761D01*
X111666666Y-148684523D01*
X111714285Y-148589285D01*
X111761904Y-148398809D01*
X111761904Y-148255952D01*
X111714285Y-148065476D01*
X111666666Y-147970238D01*
X111571428Y-147875000D01*
X111428571Y-147827380D01*
X111333333Y-147827380D01*
X111190476Y-147875000D01*
X111142857Y-147922619D01*
X110285714Y-148827380D02*
X110285714Y-148303571D01*
X110333333Y-148208333D01*
X110428571Y-148160714D01*
X110619047Y-148160714D01*
X110714285Y-148208333D01*
X110285714Y-148779761D02*
X110380952Y-148827380D01*
X110619047Y-148827380D01*
X110714285Y-148779761D01*
X110761904Y-148684523D01*
X110761904Y-148589285D01*
X110714285Y-148494047D01*
X110619047Y-148446428D01*
X110380952Y-148446428D01*
X110285714Y-148398809D01*
X109380952Y-148827380D02*
X109380952Y-147827380D01*
X109380952Y-148779761D02*
X109476190Y-148827380D01*
X109666666Y-148827380D01*
X109761904Y-148779761D01*
X109809523Y-148732142D01*
X109857142Y-148636904D01*
X109857142Y-148351190D01*
X109809523Y-148255952D01*
X109761904Y-148208333D01*
X109666666Y-148160714D01*
X109476190Y-148160714D01*
X109380952Y-148208333D01*
X107666666Y-147827380D02*
X108142857Y-147827380D01*
X108190476Y-148303571D01*
X108142857Y-148255952D01*
X108047619Y-148208333D01*
X107809523Y-148208333D01*
X107714285Y-148255952D01*
X107666666Y-148303571D01*
X107619047Y-148398809D01*
X107619047Y-148636904D01*
X107666666Y-148732142D01*
X107714285Y-148779761D01*
X107809523Y-148827380D01*
X108047619Y-148827380D01*
X108142857Y-148779761D01*
X108190476Y-148732142D01*
X107190476Y-148732142D02*
X107142857Y-148779761D01*
X107190476Y-148827380D01*
X107238095Y-148779761D01*
X107190476Y-148732142D01*
X107190476Y-148827380D01*
X106190476Y-148827380D02*
X106761904Y-148827380D01*
X106476190Y-148827380D02*
X106476190Y-147827380D01*
X106571428Y-147970238D01*
X106666666Y-148065476D01*
X106761904Y-148113095D01*
X105761904Y-148732142D02*
X105714285Y-148779761D01*
X105761904Y-148827380D01*
X105809523Y-148779761D01*
X105761904Y-148732142D01*
X105761904Y-148827380D01*
X104857142Y-148160714D02*
X104857142Y-148827380D01*
X105095238Y-147779761D02*
X105333333Y-148494047D01*
X104714285Y-148494047D01*
X112357142Y-149953571D02*
X112690476Y-149953571D01*
X112690476Y-150477380D02*
X112690476Y-149477380D01*
X112214285Y-149477380D01*
X111404761Y-149810714D02*
X111404761Y-150477380D01*
X111833333Y-149810714D02*
X111833333Y-150334523D01*
X111785714Y-150429761D01*
X111690476Y-150477380D01*
X111547619Y-150477380D01*
X111452380Y-150429761D01*
X111404761Y-150382142D01*
X110976190Y-150429761D02*
X110880952Y-150477380D01*
X110690476Y-150477380D01*
X110595238Y-150429761D01*
X110547619Y-150334523D01*
X110547619Y-150286904D01*
X110595238Y-150191666D01*
X110690476Y-150144047D01*
X110833333Y-150144047D01*
X110928571Y-150096428D01*
X110976190Y-150001190D01*
X110976190Y-149953571D01*
X110928571Y-149858333D01*
X110833333Y-149810714D01*
X110690476Y-149810714D01*
X110595238Y-149858333D01*
X110119047Y-150477380D02*
X110119047Y-149810714D01*
X110119047Y-149477380D02*
X110166666Y-149525000D01*
X110119047Y-149572619D01*
X110071428Y-149525000D01*
X110119047Y-149477380D01*
X110119047Y-149572619D01*
X109500000Y-150477380D02*
X109595238Y-150429761D01*
X109642857Y-150382142D01*
X109690476Y-150286904D01*
X109690476Y-150001190D01*
X109642857Y-149905952D01*
X109595238Y-149858333D01*
X109500000Y-149810714D01*
X109357142Y-149810714D01*
X109261904Y-149858333D01*
X109214285Y-149905952D01*
X109166666Y-150001190D01*
X109166666Y-150286904D01*
X109214285Y-150382142D01*
X109261904Y-150429761D01*
X109357142Y-150477380D01*
X109500000Y-150477380D01*
X108738095Y-149810714D02*
X108738095Y-150477380D01*
X108738095Y-149905952D02*
X108690476Y-149858333D01*
X108595238Y-149810714D01*
X108452380Y-149810714D01*
X108357142Y-149858333D01*
X108309523Y-149953571D01*
X108309523Y-150477380D01*
X107833333Y-150477380D02*
X107833333Y-149477380D01*
X107452380Y-149477380D01*
X107357142Y-149525000D01*
X107309523Y-149572619D01*
X107261904Y-149667857D01*
X107261904Y-149810714D01*
X107309523Y-149905952D01*
X107357142Y-149953571D01*
X107452380Y-150001190D01*
X107833333Y-150001190D01*
X106261904Y-150382142D02*
X106309523Y-150429761D01*
X106452380Y-150477380D01*
X106547619Y-150477380D01*
X106690476Y-150429761D01*
X106785714Y-150334523D01*
X106833333Y-150239285D01*
X106880952Y-150048809D01*
X106880952Y-149905952D01*
X106833333Y-149715476D01*
X106785714Y-149620238D01*
X106690476Y-149525000D01*
X106547619Y-149477380D01*
X106452380Y-149477380D01*
X106309523Y-149525000D01*
X106261904Y-149572619D01*
X105500000Y-149953571D02*
X105357142Y-150001190D01*
X105309523Y-150048809D01*
X105261904Y-150144047D01*
X105261904Y-150286904D01*
X105309523Y-150382142D01*
X105357142Y-150429761D01*
X105452380Y-150477380D01*
X105833333Y-150477380D01*
X105833333Y-149477380D01*
X105500000Y-149477380D01*
X105404761Y-149525000D01*
X105357142Y-149572619D01*
X105309523Y-149667857D01*
X105309523Y-149763095D01*
X105357142Y-149858333D01*
X105404761Y-149905952D01*
X105500000Y-149953571D01*
X105833333Y-149953571D01*
X162690476Y-148827380D02*
X162690476Y-147827380D01*
X162119047Y-148827380D02*
X162547619Y-148255952D01*
X162119047Y-147827380D02*
X162690476Y-148398809D01*
X161690476Y-148827380D02*
X161690476Y-148160714D01*
X161690476Y-147827380D02*
X161738095Y-147875000D01*
X161690476Y-147922619D01*
X161642857Y-147875000D01*
X161690476Y-147827380D01*
X161690476Y-147922619D01*
X160642857Y-148732142D02*
X160690476Y-148779761D01*
X160833333Y-148827380D01*
X160928571Y-148827380D01*
X161071428Y-148779761D01*
X161166666Y-148684523D01*
X161214285Y-148589285D01*
X161261904Y-148398809D01*
X161261904Y-148255952D01*
X161214285Y-148065476D01*
X161166666Y-147970238D01*
X161071428Y-147875000D01*
X160928571Y-147827380D01*
X160833333Y-147827380D01*
X160690476Y-147875000D01*
X160642857Y-147922619D01*
X159785714Y-148827380D02*
X159785714Y-148303571D01*
X159833333Y-148208333D01*
X159928571Y-148160714D01*
X160119047Y-148160714D01*
X160214285Y-148208333D01*
X159785714Y-148779761D02*
X159880952Y-148827380D01*
X160119047Y-148827380D01*
X160214285Y-148779761D01*
X160261904Y-148684523D01*
X160261904Y-148589285D01*
X160214285Y-148494047D01*
X160119047Y-148446428D01*
X159880952Y-148446428D01*
X159785714Y-148398809D01*
X158880952Y-148827380D02*
X158880952Y-147827380D01*
X158880952Y-148779761D02*
X158976190Y-148827380D01*
X159166666Y-148827380D01*
X159261904Y-148779761D01*
X159309523Y-148732142D01*
X159357142Y-148636904D01*
X159357142Y-148351190D01*
X159309523Y-148255952D01*
X159261904Y-148208333D01*
X159166666Y-148160714D01*
X158976190Y-148160714D01*
X158880952Y-148208333D01*
X157166666Y-147827380D02*
X157642857Y-147827380D01*
X157690476Y-148303571D01*
X157642857Y-148255952D01*
X157547619Y-148208333D01*
X157309523Y-148208333D01*
X157214285Y-148255952D01*
X157166666Y-148303571D01*
X157119047Y-148398809D01*
X157119047Y-148636904D01*
X157166666Y-148732142D01*
X157214285Y-148779761D01*
X157309523Y-148827380D01*
X157547619Y-148827380D01*
X157642857Y-148779761D01*
X157690476Y-148732142D01*
X156690476Y-148732142D02*
X156642857Y-148779761D01*
X156690476Y-148827380D01*
X156738095Y-148779761D01*
X156690476Y-148732142D01*
X156690476Y-148827380D01*
X155690476Y-148827380D02*
X156261904Y-148827380D01*
X155976190Y-148827380D02*
X155976190Y-147827380D01*
X156071428Y-147970238D01*
X156166666Y-148065476D01*
X156261904Y-148113095D01*
X155261904Y-148732142D02*
X155214285Y-148779761D01*
X155261904Y-148827380D01*
X155309523Y-148779761D01*
X155261904Y-148732142D01*
X155261904Y-148827380D01*
X154357142Y-148160714D02*
X154357142Y-148827380D01*
X154595238Y-147779761D02*
X154833333Y-148494047D01*
X154214285Y-148494047D01*
X161857142Y-149953571D02*
X162190476Y-149953571D01*
X162190476Y-150477380D02*
X162190476Y-149477380D01*
X161714285Y-149477380D01*
X160904761Y-149810714D02*
X160904761Y-150477380D01*
X161333333Y-149810714D02*
X161333333Y-150334523D01*
X161285714Y-150429761D01*
X161190476Y-150477380D01*
X161047619Y-150477380D01*
X160952380Y-150429761D01*
X160904761Y-150382142D01*
X160476190Y-150429761D02*
X160380952Y-150477380D01*
X160190476Y-150477380D01*
X160095238Y-150429761D01*
X160047619Y-150334523D01*
X160047619Y-150286904D01*
X160095238Y-150191666D01*
X160190476Y-150144047D01*
X160333333Y-150144047D01*
X160428571Y-150096428D01*
X160476190Y-150001190D01*
X160476190Y-149953571D01*
X160428571Y-149858333D01*
X160333333Y-149810714D01*
X160190476Y-149810714D01*
X160095238Y-149858333D01*
X159619047Y-150477380D02*
X159619047Y-149810714D01*
X159619047Y-149477380D02*
X159666666Y-149525000D01*
X159619047Y-149572619D01*
X159571428Y-149525000D01*
X159619047Y-149477380D01*
X159619047Y-149572619D01*
X159000000Y-150477380D02*
X159095238Y-150429761D01*
X159142857Y-150382142D01*
X159190476Y-150286904D01*
X159190476Y-150001190D01*
X159142857Y-149905952D01*
X159095238Y-149858333D01*
X159000000Y-149810714D01*
X158857142Y-149810714D01*
X158761904Y-149858333D01*
X158714285Y-149905952D01*
X158666666Y-150001190D01*
X158666666Y-150286904D01*
X158714285Y-150382142D01*
X158761904Y-150429761D01*
X158857142Y-150477380D01*
X159000000Y-150477380D01*
X158238095Y-149810714D02*
X158238095Y-150477380D01*
X158238095Y-149905952D02*
X158190476Y-149858333D01*
X158095238Y-149810714D01*
X157952380Y-149810714D01*
X157857142Y-149858333D01*
X157809523Y-149953571D01*
X157809523Y-150477380D01*
X157333333Y-150477380D02*
X157333333Y-149477380D01*
X156952380Y-149477380D01*
X156857142Y-149525000D01*
X156809523Y-149572619D01*
X156761904Y-149667857D01*
X156761904Y-149810714D01*
X156809523Y-149905952D01*
X156857142Y-149953571D01*
X156952380Y-150001190D01*
X157333333Y-150001190D01*
X155761904Y-150382142D02*
X155809523Y-150429761D01*
X155952380Y-150477380D01*
X156047619Y-150477380D01*
X156190476Y-150429761D01*
X156285714Y-150334523D01*
X156333333Y-150239285D01*
X156380952Y-150048809D01*
X156380952Y-149905952D01*
X156333333Y-149715476D01*
X156285714Y-149620238D01*
X156190476Y-149525000D01*
X156047619Y-149477380D01*
X155952380Y-149477380D01*
X155809523Y-149525000D01*
X155761904Y-149572619D01*
X155000000Y-149953571D02*
X154857142Y-150001190D01*
X154809523Y-150048809D01*
X154761904Y-150144047D01*
X154761904Y-150286904D01*
X154809523Y-150382142D01*
X154857142Y-150429761D01*
X154952380Y-150477380D01*
X155333333Y-150477380D01*
X155333333Y-149477380D01*
X155000000Y-149477380D01*
X154904761Y-149525000D01*
X154857142Y-149572619D01*
X154809523Y-149667857D01*
X154809523Y-149763095D01*
X154857142Y-149858333D01*
X154904761Y-149905952D01*
X155000000Y-149953571D01*
X155333333Y-149953571D01*
X162690476Y-124827380D02*
X162690476Y-123827380D01*
X162119047Y-124827380D02*
X162547619Y-124255952D01*
X162119047Y-123827380D02*
X162690476Y-124398809D01*
X161690476Y-124827380D02*
X161690476Y-124160714D01*
X161690476Y-123827380D02*
X161738095Y-123875000D01*
X161690476Y-123922619D01*
X161642857Y-123875000D01*
X161690476Y-123827380D01*
X161690476Y-123922619D01*
X160642857Y-124732142D02*
X160690476Y-124779761D01*
X160833333Y-124827380D01*
X160928571Y-124827380D01*
X161071428Y-124779761D01*
X161166666Y-124684523D01*
X161214285Y-124589285D01*
X161261904Y-124398809D01*
X161261904Y-124255952D01*
X161214285Y-124065476D01*
X161166666Y-123970238D01*
X161071428Y-123875000D01*
X160928571Y-123827380D01*
X160833333Y-123827380D01*
X160690476Y-123875000D01*
X160642857Y-123922619D01*
X159785714Y-124827380D02*
X159785714Y-124303571D01*
X159833333Y-124208333D01*
X159928571Y-124160714D01*
X160119047Y-124160714D01*
X160214285Y-124208333D01*
X159785714Y-124779761D02*
X159880952Y-124827380D01*
X160119047Y-124827380D01*
X160214285Y-124779761D01*
X160261904Y-124684523D01*
X160261904Y-124589285D01*
X160214285Y-124494047D01*
X160119047Y-124446428D01*
X159880952Y-124446428D01*
X159785714Y-124398809D01*
X158880952Y-124827380D02*
X158880952Y-123827380D01*
X158880952Y-124779761D02*
X158976190Y-124827380D01*
X159166666Y-124827380D01*
X159261904Y-124779761D01*
X159309523Y-124732142D01*
X159357142Y-124636904D01*
X159357142Y-124351190D01*
X159309523Y-124255952D01*
X159261904Y-124208333D01*
X159166666Y-124160714D01*
X158976190Y-124160714D01*
X158880952Y-124208333D01*
X157166666Y-123827380D02*
X157642857Y-123827380D01*
X157690476Y-124303571D01*
X157642857Y-124255952D01*
X157547619Y-124208333D01*
X157309523Y-124208333D01*
X157214285Y-124255952D01*
X157166666Y-124303571D01*
X157119047Y-124398809D01*
X157119047Y-124636904D01*
X157166666Y-124732142D01*
X157214285Y-124779761D01*
X157309523Y-124827380D01*
X157547619Y-124827380D01*
X157642857Y-124779761D01*
X157690476Y-124732142D01*
X156690476Y-124732142D02*
X156642857Y-124779761D01*
X156690476Y-124827380D01*
X156738095Y-124779761D01*
X156690476Y-124732142D01*
X156690476Y-124827380D01*
X155690476Y-124827380D02*
X156261904Y-124827380D01*
X155976190Y-124827380D02*
X155976190Y-123827380D01*
X156071428Y-123970238D01*
X156166666Y-124065476D01*
X156261904Y-124113095D01*
X155261904Y-124732142D02*
X155214285Y-124779761D01*
X155261904Y-124827380D01*
X155309523Y-124779761D01*
X155261904Y-124732142D01*
X155261904Y-124827380D01*
X154357142Y-124160714D02*
X154357142Y-124827380D01*
X154595238Y-123779761D02*
X154833333Y-124494047D01*
X154214285Y-124494047D01*
X161857142Y-125953571D02*
X162190476Y-125953571D01*
X162190476Y-126477380D02*
X162190476Y-125477380D01*
X161714285Y-125477380D01*
X160904761Y-125810714D02*
X160904761Y-126477380D01*
X161333333Y-125810714D02*
X161333333Y-126334523D01*
X161285714Y-126429761D01*
X161190476Y-126477380D01*
X161047619Y-126477380D01*
X160952380Y-126429761D01*
X160904761Y-126382142D01*
X160476190Y-126429761D02*
X160380952Y-126477380D01*
X160190476Y-126477380D01*
X160095238Y-126429761D01*
X160047619Y-126334523D01*
X160047619Y-126286904D01*
X160095238Y-126191666D01*
X160190476Y-126144047D01*
X160333333Y-126144047D01*
X160428571Y-126096428D01*
X160476190Y-126001190D01*
X160476190Y-125953571D01*
X160428571Y-125858333D01*
X160333333Y-125810714D01*
X160190476Y-125810714D01*
X160095238Y-125858333D01*
X159619047Y-126477380D02*
X159619047Y-125810714D01*
X159619047Y-125477380D02*
X159666666Y-125525000D01*
X159619047Y-125572619D01*
X159571428Y-125525000D01*
X159619047Y-125477380D01*
X159619047Y-125572619D01*
X159000000Y-126477380D02*
X159095238Y-126429761D01*
X159142857Y-126382142D01*
X159190476Y-126286904D01*
X159190476Y-126001190D01*
X159142857Y-125905952D01*
X159095238Y-125858333D01*
X159000000Y-125810714D01*
X158857142Y-125810714D01*
X158761904Y-125858333D01*
X158714285Y-125905952D01*
X158666666Y-126001190D01*
X158666666Y-126286904D01*
X158714285Y-126382142D01*
X158761904Y-126429761D01*
X158857142Y-126477380D01*
X159000000Y-126477380D01*
X158238095Y-125810714D02*
X158238095Y-126477380D01*
X158238095Y-125905952D02*
X158190476Y-125858333D01*
X158095238Y-125810714D01*
X157952380Y-125810714D01*
X157857142Y-125858333D01*
X157809523Y-125953571D01*
X157809523Y-126477380D01*
X157333333Y-126477380D02*
X157333333Y-125477380D01*
X156952380Y-125477380D01*
X156857142Y-125525000D01*
X156809523Y-125572619D01*
X156761904Y-125667857D01*
X156761904Y-125810714D01*
X156809523Y-125905952D01*
X156857142Y-125953571D01*
X156952380Y-126001190D01*
X157333333Y-126001190D01*
X155761904Y-126382142D02*
X155809523Y-126429761D01*
X155952380Y-126477380D01*
X156047619Y-126477380D01*
X156190476Y-126429761D01*
X156285714Y-126334523D01*
X156333333Y-126239285D01*
X156380952Y-126048809D01*
X156380952Y-125905952D01*
X156333333Y-125715476D01*
X156285714Y-125620238D01*
X156190476Y-125525000D01*
X156047619Y-125477380D01*
X155952380Y-125477380D01*
X155809523Y-125525000D01*
X155761904Y-125572619D01*
X155000000Y-125953571D02*
X154857142Y-126001190D01*
X154809523Y-126048809D01*
X154761904Y-126144047D01*
X154761904Y-126286904D01*
X154809523Y-126382142D01*
X154857142Y-126429761D01*
X154952380Y-126477380D01*
X155333333Y-126477380D01*
X155333333Y-125477380D01*
X155000000Y-125477380D01*
X154904761Y-125525000D01*
X154857142Y-125572619D01*
X154809523Y-125667857D01*
X154809523Y-125763095D01*
X154857142Y-125858333D01*
X154904761Y-125905952D01*
X155000000Y-125953571D01*
X155333333Y-125953571D01*
X113190476Y-124827380D02*
X113190476Y-123827380D01*
X112619047Y-124827380D02*
X113047619Y-124255952D01*
X112619047Y-123827380D02*
X113190476Y-124398809D01*
X112190476Y-124827380D02*
X112190476Y-124160714D01*
X112190476Y-123827380D02*
X112238095Y-123875000D01*
X112190476Y-123922619D01*
X112142857Y-123875000D01*
X112190476Y-123827380D01*
X112190476Y-123922619D01*
X111142857Y-124732142D02*
X111190476Y-124779761D01*
X111333333Y-124827380D01*
X111428571Y-124827380D01*
X111571428Y-124779761D01*
X111666666Y-124684523D01*
X111714285Y-124589285D01*
X111761904Y-124398809D01*
X111761904Y-124255952D01*
X111714285Y-124065476D01*
X111666666Y-123970238D01*
X111571428Y-123875000D01*
X111428571Y-123827380D01*
X111333333Y-123827380D01*
X111190476Y-123875000D01*
X111142857Y-123922619D01*
X110285714Y-124827380D02*
X110285714Y-124303571D01*
X110333333Y-124208333D01*
X110428571Y-124160714D01*
X110619047Y-124160714D01*
X110714285Y-124208333D01*
X110285714Y-124779761D02*
X110380952Y-124827380D01*
X110619047Y-124827380D01*
X110714285Y-124779761D01*
X110761904Y-124684523D01*
X110761904Y-124589285D01*
X110714285Y-124494047D01*
X110619047Y-124446428D01*
X110380952Y-124446428D01*
X110285714Y-124398809D01*
X109380952Y-124827380D02*
X109380952Y-123827380D01*
X109380952Y-124779761D02*
X109476190Y-124827380D01*
X109666666Y-124827380D01*
X109761904Y-124779761D01*
X109809523Y-124732142D01*
X109857142Y-124636904D01*
X109857142Y-124351190D01*
X109809523Y-124255952D01*
X109761904Y-124208333D01*
X109666666Y-124160714D01*
X109476190Y-124160714D01*
X109380952Y-124208333D01*
X107666666Y-123827380D02*
X108142857Y-123827380D01*
X108190476Y-124303571D01*
X108142857Y-124255952D01*
X108047619Y-124208333D01*
X107809523Y-124208333D01*
X107714285Y-124255952D01*
X107666666Y-124303571D01*
X107619047Y-124398809D01*
X107619047Y-124636904D01*
X107666666Y-124732142D01*
X107714285Y-124779761D01*
X107809523Y-124827380D01*
X108047619Y-124827380D01*
X108142857Y-124779761D01*
X108190476Y-124732142D01*
X107190476Y-124732142D02*
X107142857Y-124779761D01*
X107190476Y-124827380D01*
X107238095Y-124779761D01*
X107190476Y-124732142D01*
X107190476Y-124827380D01*
X106190476Y-124827380D02*
X106761904Y-124827380D01*
X106476190Y-124827380D02*
X106476190Y-123827380D01*
X106571428Y-123970238D01*
X106666666Y-124065476D01*
X106761904Y-124113095D01*
X105761904Y-124732142D02*
X105714285Y-124779761D01*
X105761904Y-124827380D01*
X105809523Y-124779761D01*
X105761904Y-124732142D01*
X105761904Y-124827380D01*
X104857142Y-124160714D02*
X104857142Y-124827380D01*
X105095238Y-123779761D02*
X105333333Y-124494047D01*
X104714285Y-124494047D01*
X112357142Y-125953571D02*
X112690476Y-125953571D01*
X112690476Y-126477380D02*
X112690476Y-125477380D01*
X112214285Y-125477380D01*
X111404761Y-125810714D02*
X111404761Y-126477380D01*
X111833333Y-125810714D02*
X111833333Y-126334523D01*
X111785714Y-126429761D01*
X111690476Y-126477380D01*
X111547619Y-126477380D01*
X111452380Y-126429761D01*
X111404761Y-126382142D01*
X110976190Y-126429761D02*
X110880952Y-126477380D01*
X110690476Y-126477380D01*
X110595238Y-126429761D01*
X110547619Y-126334523D01*
X110547619Y-126286904D01*
X110595238Y-126191666D01*
X110690476Y-126144047D01*
X110833333Y-126144047D01*
X110928571Y-126096428D01*
X110976190Y-126001190D01*
X110976190Y-125953571D01*
X110928571Y-125858333D01*
X110833333Y-125810714D01*
X110690476Y-125810714D01*
X110595238Y-125858333D01*
X110119047Y-126477380D02*
X110119047Y-125810714D01*
X110119047Y-125477380D02*
X110166666Y-125525000D01*
X110119047Y-125572619D01*
X110071428Y-125525000D01*
X110119047Y-125477380D01*
X110119047Y-125572619D01*
X109500000Y-126477380D02*
X109595238Y-126429761D01*
X109642857Y-126382142D01*
X109690476Y-126286904D01*
X109690476Y-126001190D01*
X109642857Y-125905952D01*
X109595238Y-125858333D01*
X109500000Y-125810714D01*
X109357142Y-125810714D01*
X109261904Y-125858333D01*
X109214285Y-125905952D01*
X109166666Y-126001190D01*
X109166666Y-126286904D01*
X109214285Y-126382142D01*
X109261904Y-126429761D01*
X109357142Y-126477380D01*
X109500000Y-126477380D01*
X108738095Y-125810714D02*
X108738095Y-126477380D01*
X108738095Y-125905952D02*
X108690476Y-125858333D01*
X108595238Y-125810714D01*
X108452380Y-125810714D01*
X108357142Y-125858333D01*
X108309523Y-125953571D01*
X108309523Y-126477380D01*
X107833333Y-126477380D02*
X107833333Y-125477380D01*
X107452380Y-125477380D01*
X107357142Y-125525000D01*
X107309523Y-125572619D01*
X107261904Y-125667857D01*
X107261904Y-125810714D01*
X107309523Y-125905952D01*
X107357142Y-125953571D01*
X107452380Y-126001190D01*
X107833333Y-126001190D01*
X106261904Y-126382142D02*
X106309523Y-126429761D01*
X106452380Y-126477380D01*
X106547619Y-126477380D01*
X106690476Y-126429761D01*
X106785714Y-126334523D01*
X106833333Y-126239285D01*
X106880952Y-126048809D01*
X106880952Y-125905952D01*
X106833333Y-125715476D01*
X106785714Y-125620238D01*
X106690476Y-125525000D01*
X106547619Y-125477380D01*
X106452380Y-125477380D01*
X106309523Y-125525000D01*
X106261904Y-125572619D01*
X105500000Y-125953571D02*
X105357142Y-126001190D01*
X105309523Y-126048809D01*
X105261904Y-126144047D01*
X105261904Y-126286904D01*
X105309523Y-126382142D01*
X105357142Y-126429761D01*
X105452380Y-126477380D01*
X105833333Y-126477380D01*
X105833333Y-125477380D01*
X105500000Y-125477380D01*
X105404761Y-125525000D01*
X105357142Y-125572619D01*
X105309523Y-125667857D01*
X105309523Y-125763095D01*
X105357142Y-125858333D01*
X105404761Y-125905952D01*
X105500000Y-125953571D01*
X105833333Y-125953571D01*
X113190476Y-100827380D02*
X113190476Y-99827380D01*
X112619047Y-100827380D02*
X113047619Y-100255952D01*
X112619047Y-99827380D02*
X113190476Y-100398809D01*
X112190476Y-100827380D02*
X112190476Y-100160714D01*
X112190476Y-99827380D02*
X112238095Y-99875000D01*
X112190476Y-99922619D01*
X112142857Y-99875000D01*
X112190476Y-99827380D01*
X112190476Y-99922619D01*
X111142857Y-100732142D02*
X111190476Y-100779761D01*
X111333333Y-100827380D01*
X111428571Y-100827380D01*
X111571428Y-100779761D01*
X111666666Y-100684523D01*
X111714285Y-100589285D01*
X111761904Y-100398809D01*
X111761904Y-100255952D01*
X111714285Y-100065476D01*
X111666666Y-99970238D01*
X111571428Y-99875000D01*
X111428571Y-99827380D01*
X111333333Y-99827380D01*
X111190476Y-99875000D01*
X111142857Y-99922619D01*
X110285714Y-100827380D02*
X110285714Y-100303571D01*
X110333333Y-100208333D01*
X110428571Y-100160714D01*
X110619047Y-100160714D01*
X110714285Y-100208333D01*
X110285714Y-100779761D02*
X110380952Y-100827380D01*
X110619047Y-100827380D01*
X110714285Y-100779761D01*
X110761904Y-100684523D01*
X110761904Y-100589285D01*
X110714285Y-100494047D01*
X110619047Y-100446428D01*
X110380952Y-100446428D01*
X110285714Y-100398809D01*
X109380952Y-100827380D02*
X109380952Y-99827380D01*
X109380952Y-100779761D02*
X109476190Y-100827380D01*
X109666666Y-100827380D01*
X109761904Y-100779761D01*
X109809523Y-100732142D01*
X109857142Y-100636904D01*
X109857142Y-100351190D01*
X109809523Y-100255952D01*
X109761904Y-100208333D01*
X109666666Y-100160714D01*
X109476190Y-100160714D01*
X109380952Y-100208333D01*
X107666666Y-99827380D02*
X108142857Y-99827380D01*
X108190476Y-100303571D01*
X108142857Y-100255952D01*
X108047619Y-100208333D01*
X107809523Y-100208333D01*
X107714285Y-100255952D01*
X107666666Y-100303571D01*
X107619047Y-100398809D01*
X107619047Y-100636904D01*
X107666666Y-100732142D01*
X107714285Y-100779761D01*
X107809523Y-100827380D01*
X108047619Y-100827380D01*
X108142857Y-100779761D01*
X108190476Y-100732142D01*
X107190476Y-100732142D02*
X107142857Y-100779761D01*
X107190476Y-100827380D01*
X107238095Y-100779761D01*
X107190476Y-100732142D01*
X107190476Y-100827380D01*
X106190476Y-100827380D02*
X106761904Y-100827380D01*
X106476190Y-100827380D02*
X106476190Y-99827380D01*
X106571428Y-99970238D01*
X106666666Y-100065476D01*
X106761904Y-100113095D01*
X105761904Y-100732142D02*
X105714285Y-100779761D01*
X105761904Y-100827380D01*
X105809523Y-100779761D01*
X105761904Y-100732142D01*
X105761904Y-100827380D01*
X104857142Y-100160714D02*
X104857142Y-100827380D01*
X105095238Y-99779761D02*
X105333333Y-100494047D01*
X104714285Y-100494047D01*
X112357142Y-101953571D02*
X112690476Y-101953571D01*
X112690476Y-102477380D02*
X112690476Y-101477380D01*
X112214285Y-101477380D01*
X111404761Y-101810714D02*
X111404761Y-102477380D01*
X111833333Y-101810714D02*
X111833333Y-102334523D01*
X111785714Y-102429761D01*
X111690476Y-102477380D01*
X111547619Y-102477380D01*
X111452380Y-102429761D01*
X111404761Y-102382142D01*
X110976190Y-102429761D02*
X110880952Y-102477380D01*
X110690476Y-102477380D01*
X110595238Y-102429761D01*
X110547619Y-102334523D01*
X110547619Y-102286904D01*
X110595238Y-102191666D01*
X110690476Y-102144047D01*
X110833333Y-102144047D01*
X110928571Y-102096428D01*
X110976190Y-102001190D01*
X110976190Y-101953571D01*
X110928571Y-101858333D01*
X110833333Y-101810714D01*
X110690476Y-101810714D01*
X110595238Y-101858333D01*
X110119047Y-102477380D02*
X110119047Y-101810714D01*
X110119047Y-101477380D02*
X110166666Y-101525000D01*
X110119047Y-101572619D01*
X110071428Y-101525000D01*
X110119047Y-101477380D01*
X110119047Y-101572619D01*
X109500000Y-102477380D02*
X109595238Y-102429761D01*
X109642857Y-102382142D01*
X109690476Y-102286904D01*
X109690476Y-102001190D01*
X109642857Y-101905952D01*
X109595238Y-101858333D01*
X109500000Y-101810714D01*
X109357142Y-101810714D01*
X109261904Y-101858333D01*
X109214285Y-101905952D01*
X109166666Y-102001190D01*
X109166666Y-102286904D01*
X109214285Y-102382142D01*
X109261904Y-102429761D01*
X109357142Y-102477380D01*
X109500000Y-102477380D01*
X108738095Y-101810714D02*
X108738095Y-102477380D01*
X108738095Y-101905952D02*
X108690476Y-101858333D01*
X108595238Y-101810714D01*
X108452380Y-101810714D01*
X108357142Y-101858333D01*
X108309523Y-101953571D01*
X108309523Y-102477380D01*
X107833333Y-102477380D02*
X107833333Y-101477380D01*
X107452380Y-101477380D01*
X107357142Y-101525000D01*
X107309523Y-101572619D01*
X107261904Y-101667857D01*
X107261904Y-101810714D01*
X107309523Y-101905952D01*
X107357142Y-101953571D01*
X107452380Y-102001190D01*
X107833333Y-102001190D01*
X106261904Y-102382142D02*
X106309523Y-102429761D01*
X106452380Y-102477380D01*
X106547619Y-102477380D01*
X106690476Y-102429761D01*
X106785714Y-102334523D01*
X106833333Y-102239285D01*
X106880952Y-102048809D01*
X106880952Y-101905952D01*
X106833333Y-101715476D01*
X106785714Y-101620238D01*
X106690476Y-101525000D01*
X106547619Y-101477380D01*
X106452380Y-101477380D01*
X106309523Y-101525000D01*
X106261904Y-101572619D01*
X105500000Y-101953571D02*
X105357142Y-102001190D01*
X105309523Y-102048809D01*
X105261904Y-102144047D01*
X105261904Y-102286904D01*
X105309523Y-102382142D01*
X105357142Y-102429761D01*
X105452380Y-102477380D01*
X105833333Y-102477380D01*
X105833333Y-101477380D01*
X105500000Y-101477380D01*
X105404761Y-101525000D01*
X105357142Y-101572619D01*
X105309523Y-101667857D01*
X105309523Y-101763095D01*
X105357142Y-101858333D01*
X105404761Y-101905952D01*
X105500000Y-101953571D01*
X105833333Y-101953571D01*
X162690476Y-100827380D02*
X162690476Y-99827380D01*
X162119047Y-100827380D02*
X162547619Y-100255952D01*
X162119047Y-99827380D02*
X162690476Y-100398809D01*
X161690476Y-100827380D02*
X161690476Y-100160714D01*
X161690476Y-99827380D02*
X161738095Y-99875000D01*
X161690476Y-99922619D01*
X161642857Y-99875000D01*
X161690476Y-99827380D01*
X161690476Y-99922619D01*
X160642857Y-100732142D02*
X160690476Y-100779761D01*
X160833333Y-100827380D01*
X160928571Y-100827380D01*
X161071428Y-100779761D01*
X161166666Y-100684523D01*
X161214285Y-100589285D01*
X161261904Y-100398809D01*
X161261904Y-100255952D01*
X161214285Y-100065476D01*
X161166666Y-99970238D01*
X161071428Y-99875000D01*
X160928571Y-99827380D01*
X160833333Y-99827380D01*
X160690476Y-99875000D01*
X160642857Y-99922619D01*
X159785714Y-100827380D02*
X159785714Y-100303571D01*
X159833333Y-100208333D01*
X159928571Y-100160714D01*
X160119047Y-100160714D01*
X160214285Y-100208333D01*
X159785714Y-100779761D02*
X159880952Y-100827380D01*
X160119047Y-100827380D01*
X160214285Y-100779761D01*
X160261904Y-100684523D01*
X160261904Y-100589285D01*
X160214285Y-100494047D01*
X160119047Y-100446428D01*
X159880952Y-100446428D01*
X159785714Y-100398809D01*
X158880952Y-100827380D02*
X158880952Y-99827380D01*
X158880952Y-100779761D02*
X158976190Y-100827380D01*
X159166666Y-100827380D01*
X159261904Y-100779761D01*
X159309523Y-100732142D01*
X159357142Y-100636904D01*
X159357142Y-100351190D01*
X159309523Y-100255952D01*
X159261904Y-100208333D01*
X159166666Y-100160714D01*
X158976190Y-100160714D01*
X158880952Y-100208333D01*
X157166666Y-99827380D02*
X157642857Y-99827380D01*
X157690476Y-100303571D01*
X157642857Y-100255952D01*
X157547619Y-100208333D01*
X157309523Y-100208333D01*
X157214285Y-100255952D01*
X157166666Y-100303571D01*
X157119047Y-100398809D01*
X157119047Y-100636904D01*
X157166666Y-100732142D01*
X157214285Y-100779761D01*
X157309523Y-100827380D01*
X157547619Y-100827380D01*
X157642857Y-100779761D01*
X157690476Y-100732142D01*
X156690476Y-100732142D02*
X156642857Y-100779761D01*
X156690476Y-100827380D01*
X156738095Y-100779761D01*
X156690476Y-100732142D01*
X156690476Y-100827380D01*
X155690476Y-100827380D02*
X156261904Y-100827380D01*
X155976190Y-100827380D02*
X155976190Y-99827380D01*
X156071428Y-99970238D01*
X156166666Y-100065476D01*
X156261904Y-100113095D01*
X155261904Y-100732142D02*
X155214285Y-100779761D01*
X155261904Y-100827380D01*
X155309523Y-100779761D01*
X155261904Y-100732142D01*
X155261904Y-100827380D01*
X154357142Y-100160714D02*
X154357142Y-100827380D01*
X154595238Y-99779761D02*
X154833333Y-100494047D01*
X154214285Y-100494047D01*
X161857142Y-101953571D02*
X162190476Y-101953571D01*
X162190476Y-102477380D02*
X162190476Y-101477380D01*
X161714285Y-101477380D01*
X160904761Y-101810714D02*
X160904761Y-102477380D01*
X161333333Y-101810714D02*
X161333333Y-102334523D01*
X161285714Y-102429761D01*
X161190476Y-102477380D01*
X161047619Y-102477380D01*
X160952380Y-102429761D01*
X160904761Y-102382142D01*
X160476190Y-102429761D02*
X160380952Y-102477380D01*
X160190476Y-102477380D01*
X160095238Y-102429761D01*
X160047619Y-102334523D01*
X160047619Y-102286904D01*
X160095238Y-102191666D01*
X160190476Y-102144047D01*
X160333333Y-102144047D01*
X160428571Y-102096428D01*
X160476190Y-102001190D01*
X160476190Y-101953571D01*
X160428571Y-101858333D01*
X160333333Y-101810714D01*
X160190476Y-101810714D01*
X160095238Y-101858333D01*
X159619047Y-102477380D02*
X159619047Y-101810714D01*
X159619047Y-101477380D02*
X159666666Y-101525000D01*
X159619047Y-101572619D01*
X159571428Y-101525000D01*
X159619047Y-101477380D01*
X159619047Y-101572619D01*
X159000000Y-102477380D02*
X159095238Y-102429761D01*
X159142857Y-102382142D01*
X159190476Y-102286904D01*
X159190476Y-102001190D01*
X159142857Y-101905952D01*
X159095238Y-101858333D01*
X159000000Y-101810714D01*
X158857142Y-101810714D01*
X158761904Y-101858333D01*
X158714285Y-101905952D01*
X158666666Y-102001190D01*
X158666666Y-102286904D01*
X158714285Y-102382142D01*
X158761904Y-102429761D01*
X158857142Y-102477380D01*
X159000000Y-102477380D01*
X158238095Y-101810714D02*
X158238095Y-102477380D01*
X158238095Y-101905952D02*
X158190476Y-101858333D01*
X158095238Y-101810714D01*
X157952380Y-101810714D01*
X157857142Y-101858333D01*
X157809523Y-101953571D01*
X157809523Y-102477380D01*
X157333333Y-102477380D02*
X157333333Y-101477380D01*
X156952380Y-101477380D01*
X156857142Y-101525000D01*
X156809523Y-101572619D01*
X156761904Y-101667857D01*
X156761904Y-101810714D01*
X156809523Y-101905952D01*
X156857142Y-101953571D01*
X156952380Y-102001190D01*
X157333333Y-102001190D01*
X155761904Y-102382142D02*
X155809523Y-102429761D01*
X155952380Y-102477380D01*
X156047619Y-102477380D01*
X156190476Y-102429761D01*
X156285714Y-102334523D01*
X156333333Y-102239285D01*
X156380952Y-102048809D01*
X156380952Y-101905952D01*
X156333333Y-101715476D01*
X156285714Y-101620238D01*
X156190476Y-101525000D01*
X156047619Y-101477380D01*
X155952380Y-101477380D01*
X155809523Y-101525000D01*
X155761904Y-101572619D01*
X155000000Y-101953571D02*
X154857142Y-102001190D01*
X154809523Y-102048809D01*
X154761904Y-102144047D01*
X154761904Y-102286904D01*
X154809523Y-102382142D01*
X154857142Y-102429761D01*
X154952380Y-102477380D01*
X155333333Y-102477380D01*
X155333333Y-101477380D01*
X155000000Y-101477380D01*
X154904761Y-101525000D01*
X154857142Y-101572619D01*
X154809523Y-101667857D01*
X154809523Y-101763095D01*
X154857142Y-101858333D01*
X154904761Y-101905952D01*
X155000000Y-101953571D01*
X155333333Y-101953571D01*
X162690476Y-76827380D02*
X162690476Y-75827380D01*
X162119047Y-76827380D02*
X162547619Y-76255952D01*
X162119047Y-75827380D02*
X162690476Y-76398809D01*
X161690476Y-76827380D02*
X161690476Y-76160714D01*
X161690476Y-75827380D02*
X161738095Y-75875000D01*
X161690476Y-75922619D01*
X161642857Y-75875000D01*
X161690476Y-75827380D01*
X161690476Y-75922619D01*
X160642857Y-76732142D02*
X160690476Y-76779761D01*
X160833333Y-76827380D01*
X160928571Y-76827380D01*
X161071428Y-76779761D01*
X161166666Y-76684523D01*
X161214285Y-76589285D01*
X161261904Y-76398809D01*
X161261904Y-76255952D01*
X161214285Y-76065476D01*
X161166666Y-75970238D01*
X161071428Y-75875000D01*
X160928571Y-75827380D01*
X160833333Y-75827380D01*
X160690476Y-75875000D01*
X160642857Y-75922619D01*
X159785714Y-76827380D02*
X159785714Y-76303571D01*
X159833333Y-76208333D01*
X159928571Y-76160714D01*
X160119047Y-76160714D01*
X160214285Y-76208333D01*
X159785714Y-76779761D02*
X159880952Y-76827380D01*
X160119047Y-76827380D01*
X160214285Y-76779761D01*
X160261904Y-76684523D01*
X160261904Y-76589285D01*
X160214285Y-76494047D01*
X160119047Y-76446428D01*
X159880952Y-76446428D01*
X159785714Y-76398809D01*
X158880952Y-76827380D02*
X158880952Y-75827380D01*
X158880952Y-76779761D02*
X158976190Y-76827380D01*
X159166666Y-76827380D01*
X159261904Y-76779761D01*
X159309523Y-76732142D01*
X159357142Y-76636904D01*
X159357142Y-76351190D01*
X159309523Y-76255952D01*
X159261904Y-76208333D01*
X159166666Y-76160714D01*
X158976190Y-76160714D01*
X158880952Y-76208333D01*
X157166666Y-75827380D02*
X157642857Y-75827380D01*
X157690476Y-76303571D01*
X157642857Y-76255952D01*
X157547619Y-76208333D01*
X157309523Y-76208333D01*
X157214285Y-76255952D01*
X157166666Y-76303571D01*
X157119047Y-76398809D01*
X157119047Y-76636904D01*
X157166666Y-76732142D01*
X157214285Y-76779761D01*
X157309523Y-76827380D01*
X157547619Y-76827380D01*
X157642857Y-76779761D01*
X157690476Y-76732142D01*
X156690476Y-76732142D02*
X156642857Y-76779761D01*
X156690476Y-76827380D01*
X156738095Y-76779761D01*
X156690476Y-76732142D01*
X156690476Y-76827380D01*
X155690476Y-76827380D02*
X156261904Y-76827380D01*
X155976190Y-76827380D02*
X155976190Y-75827380D01*
X156071428Y-75970238D01*
X156166666Y-76065476D01*
X156261904Y-76113095D01*
X155261904Y-76732142D02*
X155214285Y-76779761D01*
X155261904Y-76827380D01*
X155309523Y-76779761D01*
X155261904Y-76732142D01*
X155261904Y-76827380D01*
X154357142Y-76160714D02*
X154357142Y-76827380D01*
X154595238Y-75779761D02*
X154833333Y-76494047D01*
X154214285Y-76494047D01*
X161857142Y-77953571D02*
X162190476Y-77953571D01*
X162190476Y-78477380D02*
X162190476Y-77477380D01*
X161714285Y-77477380D01*
X160904761Y-77810714D02*
X160904761Y-78477380D01*
X161333333Y-77810714D02*
X161333333Y-78334523D01*
X161285714Y-78429761D01*
X161190476Y-78477380D01*
X161047619Y-78477380D01*
X160952380Y-78429761D01*
X160904761Y-78382142D01*
X160476190Y-78429761D02*
X160380952Y-78477380D01*
X160190476Y-78477380D01*
X160095238Y-78429761D01*
X160047619Y-78334523D01*
X160047619Y-78286904D01*
X160095238Y-78191666D01*
X160190476Y-78144047D01*
X160333333Y-78144047D01*
X160428571Y-78096428D01*
X160476190Y-78001190D01*
X160476190Y-77953571D01*
X160428571Y-77858333D01*
X160333333Y-77810714D01*
X160190476Y-77810714D01*
X160095238Y-77858333D01*
X159619047Y-78477380D02*
X159619047Y-77810714D01*
X159619047Y-77477380D02*
X159666666Y-77525000D01*
X159619047Y-77572619D01*
X159571428Y-77525000D01*
X159619047Y-77477380D01*
X159619047Y-77572619D01*
X159000000Y-78477380D02*
X159095238Y-78429761D01*
X159142857Y-78382142D01*
X159190476Y-78286904D01*
X159190476Y-78001190D01*
X159142857Y-77905952D01*
X159095238Y-77858333D01*
X159000000Y-77810714D01*
X158857142Y-77810714D01*
X158761904Y-77858333D01*
X158714285Y-77905952D01*
X158666666Y-78001190D01*
X158666666Y-78286904D01*
X158714285Y-78382142D01*
X158761904Y-78429761D01*
X158857142Y-78477380D01*
X159000000Y-78477380D01*
X158238095Y-77810714D02*
X158238095Y-78477380D01*
X158238095Y-77905952D02*
X158190476Y-77858333D01*
X158095238Y-77810714D01*
X157952380Y-77810714D01*
X157857142Y-77858333D01*
X157809523Y-77953571D01*
X157809523Y-78477380D01*
X157333333Y-78477380D02*
X157333333Y-77477380D01*
X156952380Y-77477380D01*
X156857142Y-77525000D01*
X156809523Y-77572619D01*
X156761904Y-77667857D01*
X156761904Y-77810714D01*
X156809523Y-77905952D01*
X156857142Y-77953571D01*
X156952380Y-78001190D01*
X157333333Y-78001190D01*
X155761904Y-78382142D02*
X155809523Y-78429761D01*
X155952380Y-78477380D01*
X156047619Y-78477380D01*
X156190476Y-78429761D01*
X156285714Y-78334523D01*
X156333333Y-78239285D01*
X156380952Y-78048809D01*
X156380952Y-77905952D01*
X156333333Y-77715476D01*
X156285714Y-77620238D01*
X156190476Y-77525000D01*
X156047619Y-77477380D01*
X155952380Y-77477380D01*
X155809523Y-77525000D01*
X155761904Y-77572619D01*
X155000000Y-77953571D02*
X154857142Y-78001190D01*
X154809523Y-78048809D01*
X154761904Y-78144047D01*
X154761904Y-78286904D01*
X154809523Y-78382142D01*
X154857142Y-78429761D01*
X154952380Y-78477380D01*
X155333333Y-78477380D01*
X155333333Y-77477380D01*
X155000000Y-77477380D01*
X154904761Y-77525000D01*
X154857142Y-77572619D01*
X154809523Y-77667857D01*
X154809523Y-77763095D01*
X154857142Y-77858333D01*
X154904761Y-77905952D01*
X155000000Y-77953571D01*
X155333333Y-77953571D01*
X113190476Y-76827380D02*
X113190476Y-75827380D01*
X112619047Y-76827380D02*
X113047619Y-76255952D01*
X112619047Y-75827380D02*
X113190476Y-76398809D01*
X112190476Y-76827380D02*
X112190476Y-76160714D01*
X112190476Y-75827380D02*
X112238095Y-75875000D01*
X112190476Y-75922619D01*
X112142857Y-75875000D01*
X112190476Y-75827380D01*
X112190476Y-75922619D01*
X111142857Y-76732142D02*
X111190476Y-76779761D01*
X111333333Y-76827380D01*
X111428571Y-76827380D01*
X111571428Y-76779761D01*
X111666666Y-76684523D01*
X111714285Y-76589285D01*
X111761904Y-76398809D01*
X111761904Y-76255952D01*
X111714285Y-76065476D01*
X111666666Y-75970238D01*
X111571428Y-75875000D01*
X111428571Y-75827380D01*
X111333333Y-75827380D01*
X111190476Y-75875000D01*
X111142857Y-75922619D01*
X110285714Y-76827380D02*
X110285714Y-76303571D01*
X110333333Y-76208333D01*
X110428571Y-76160714D01*
X110619047Y-76160714D01*
X110714285Y-76208333D01*
X110285714Y-76779761D02*
X110380952Y-76827380D01*
X110619047Y-76827380D01*
X110714285Y-76779761D01*
X110761904Y-76684523D01*
X110761904Y-76589285D01*
X110714285Y-76494047D01*
X110619047Y-76446428D01*
X110380952Y-76446428D01*
X110285714Y-76398809D01*
X109380952Y-76827380D02*
X109380952Y-75827380D01*
X109380952Y-76779761D02*
X109476190Y-76827380D01*
X109666666Y-76827380D01*
X109761904Y-76779761D01*
X109809523Y-76732142D01*
X109857142Y-76636904D01*
X109857142Y-76351190D01*
X109809523Y-76255952D01*
X109761904Y-76208333D01*
X109666666Y-76160714D01*
X109476190Y-76160714D01*
X109380952Y-76208333D01*
X107666666Y-75827380D02*
X108142857Y-75827380D01*
X108190476Y-76303571D01*
X108142857Y-76255952D01*
X108047619Y-76208333D01*
X107809523Y-76208333D01*
X107714285Y-76255952D01*
X107666666Y-76303571D01*
X107619047Y-76398809D01*
X107619047Y-76636904D01*
X107666666Y-76732142D01*
X107714285Y-76779761D01*
X107809523Y-76827380D01*
X108047619Y-76827380D01*
X108142857Y-76779761D01*
X108190476Y-76732142D01*
X107190476Y-76732142D02*
X107142857Y-76779761D01*
X107190476Y-76827380D01*
X107238095Y-76779761D01*
X107190476Y-76732142D01*
X107190476Y-76827380D01*
X106190476Y-76827380D02*
X106761904Y-76827380D01*
X106476190Y-76827380D02*
X106476190Y-75827380D01*
X106571428Y-75970238D01*
X106666666Y-76065476D01*
X106761904Y-76113095D01*
X105761904Y-76732142D02*
X105714285Y-76779761D01*
X105761904Y-76827380D01*
X105809523Y-76779761D01*
X105761904Y-76732142D01*
X105761904Y-76827380D01*
X104857142Y-76160714D02*
X104857142Y-76827380D01*
X105095238Y-75779761D02*
X105333333Y-76494047D01*
X104714285Y-76494047D01*
X112357142Y-77953571D02*
X112690476Y-77953571D01*
X112690476Y-78477380D02*
X112690476Y-77477380D01*
X112214285Y-77477380D01*
X111404761Y-77810714D02*
X111404761Y-78477380D01*
X111833333Y-77810714D02*
X111833333Y-78334523D01*
X111785714Y-78429761D01*
X111690476Y-78477380D01*
X111547619Y-78477380D01*
X111452380Y-78429761D01*
X111404761Y-78382142D01*
X110976190Y-78429761D02*
X110880952Y-78477380D01*
X110690476Y-78477380D01*
X110595238Y-78429761D01*
X110547619Y-78334523D01*
X110547619Y-78286904D01*
X110595238Y-78191666D01*
X110690476Y-78144047D01*
X110833333Y-78144047D01*
X110928571Y-78096428D01*
X110976190Y-78001190D01*
X110976190Y-77953571D01*
X110928571Y-77858333D01*
X110833333Y-77810714D01*
X110690476Y-77810714D01*
X110595238Y-77858333D01*
X110119047Y-78477380D02*
X110119047Y-77810714D01*
X110119047Y-77477380D02*
X110166666Y-77525000D01*
X110119047Y-77572619D01*
X110071428Y-77525000D01*
X110119047Y-77477380D01*
X110119047Y-77572619D01*
X109500000Y-78477380D02*
X109595238Y-78429761D01*
X109642857Y-78382142D01*
X109690476Y-78286904D01*
X109690476Y-78001190D01*
X109642857Y-77905952D01*
X109595238Y-77858333D01*
X109500000Y-77810714D01*
X109357142Y-77810714D01*
X109261904Y-77858333D01*
X109214285Y-77905952D01*
X109166666Y-78001190D01*
X109166666Y-78286904D01*
X109214285Y-78382142D01*
X109261904Y-78429761D01*
X109357142Y-78477380D01*
X109500000Y-78477380D01*
X108738095Y-77810714D02*
X108738095Y-78477380D01*
X108738095Y-77905952D02*
X108690476Y-77858333D01*
X108595238Y-77810714D01*
X108452380Y-77810714D01*
X108357142Y-77858333D01*
X108309523Y-77953571D01*
X108309523Y-78477380D01*
X107833333Y-78477380D02*
X107833333Y-77477380D01*
X107452380Y-77477380D01*
X107357142Y-77525000D01*
X107309523Y-77572619D01*
X107261904Y-77667857D01*
X107261904Y-77810714D01*
X107309523Y-77905952D01*
X107357142Y-77953571D01*
X107452380Y-78001190D01*
X107833333Y-78001190D01*
X106261904Y-78382142D02*
X106309523Y-78429761D01*
X106452380Y-78477380D01*
X106547619Y-78477380D01*
X106690476Y-78429761D01*
X106785714Y-78334523D01*
X106833333Y-78239285D01*
X106880952Y-78048809D01*
X106880952Y-77905952D01*
X106833333Y-77715476D01*
X106785714Y-77620238D01*
X106690476Y-77525000D01*
X106547619Y-77477380D01*
X106452380Y-77477380D01*
X106309523Y-77525000D01*
X106261904Y-77572619D01*
X105500000Y-77953571D02*
X105357142Y-78001190D01*
X105309523Y-78048809D01*
X105261904Y-78144047D01*
X105261904Y-78286904D01*
X105309523Y-78382142D01*
X105357142Y-78429761D01*
X105452380Y-78477380D01*
X105833333Y-78477380D01*
X105833333Y-77477380D01*
X105500000Y-77477380D01*
X105404761Y-77525000D01*
X105357142Y-77572619D01*
X105309523Y-77667857D01*
X105309523Y-77763095D01*
X105357142Y-77858333D01*
X105404761Y-77905952D01*
X105500000Y-77953571D01*
X105833333Y-77953571D01*
M02*
