M48
; DRILL file {KiCad 5.1.4} date Wed 06 Nov 2019 10:35:50 PM JST
; FORMAT={-:-/ absolute / inch / decimal}
; #@! TF.CreationDate,2019-11-06T22:35:50+09:00
; #@! TF.GenerationSoftware,Kicad,Pcbnew,5.1.4
FMAT,2
INCH
T1C0.0157
T2C0.0394
%
G90
G05
T1
X4.0157Y-2.2539
X4.0157Y-3.1299
X4.0157Y-3.1988
X4.0157Y-4.0748
X4.0157Y-4.1437
X4.0157Y-5.0197
X4.0157Y-5.0886
X4.0157Y-5.9646
X4.6154Y-2.5795
X4.6154Y-3.5244
X4.6154Y-4.4693
X4.6154Y-5.4142
X4.6161Y-2.3819
X4.6161Y-3.3268
X4.6161Y-4.2717
X4.6161Y-5.2165
X4.7835Y-2.8724
X4.7835Y-3.0724
X4.7835Y-3.8173
X4.7835Y-4.0173
X4.7835Y-4.7622
X4.7835Y-4.9622
X4.7835Y-5.7071
X4.7835Y-5.9071
X4.9902Y-2.6795
X4.9902Y-3.6244
X4.9902Y-4.5693
X4.9902Y-5.5142
X5.1961Y-2.5795
X5.1961Y-3.5244
X5.1961Y-4.4693
X5.1961Y-5.4142
X5.3248Y-2.9331
X5.3248Y-3.878
X5.3248Y-4.8228
X5.3248Y-5.7677
X5.374Y-2.4295
X5.374Y-3.3744
X5.374Y-4.3193
X5.374Y-5.2642
X5.4528Y-3.0315
X5.4528Y-3.9764
X5.4528Y-4.9213
X5.4528Y-5.8661
X5.8465Y-2.7854
X5.8465Y-3.7303
X5.8465Y-4.6752
X5.8465Y-5.6201
X5.8858Y-2.2539
X5.8858Y-3.1299
X5.8858Y-3.1988
X5.8858Y-4.0748
X5.8858Y-4.1437
X5.8858Y-5.0197
X5.8858Y-5.0886
X5.8858Y-5.9646
X5.9646Y-2.2539
X5.9646Y-3.1299
X5.9646Y-3.1988
X5.9646Y-4.0748
X5.9646Y-4.1437
X5.9646Y-5.0197
X5.9646Y-5.0886
X5.9646Y-5.9646
X6.5642Y-2.5795
X6.5642Y-3.5244
X6.5642Y-4.4693
X6.5642Y-5.4142
X6.565Y-2.3819
X6.565Y-3.3268
X6.565Y-4.2717
X6.565Y-5.2165
X6.7323Y-2.8724
X6.7323Y-3.0724
X6.7323Y-3.8173
X6.7323Y-4.0173
X6.7323Y-4.7622
X6.7323Y-4.9622
X6.7323Y-5.7071
X6.7323Y-5.9071
X6.939Y-2.6795
X6.939Y-3.6244
X6.939Y-4.5693
X6.939Y-5.5142
X7.1449Y-2.5795
X7.1449Y-3.5244
X7.1449Y-4.4693
X7.1449Y-5.4142
X7.2736Y-2.9331
X7.2736Y-3.878
X7.2736Y-4.8228
X7.2736Y-5.7677
X7.3228Y-2.4295
X7.3228Y-3.3744
X7.3228Y-4.3193
X7.3228Y-5.2642
X7.4016Y-3.0315
X7.4016Y-3.9764
X7.4016Y-4.9213
X7.4016Y-5.8661
X7.7953Y-2.7854
X7.7953Y-3.7303
X7.7953Y-4.6752
X7.7953Y-5.6201
X7.8346Y-2.2539
X7.8346Y-3.1299
X7.8346Y-3.1988
X7.8346Y-4.0748
X7.8346Y-4.1437
X7.8346Y-5.0197
X7.8346Y-5.0886
X7.8346Y-5.9646
T2
X6.063Y-2.3803
X6.063Y-2.4803
X6.063Y-4.2701
X6.063Y-4.3701
X4.1142Y-5.215
X4.1142Y-5.315
X4.1142Y-4.2701
X4.1142Y-4.3701
X6.063Y-3.3252
X6.063Y-3.4252
X6.063Y-5.215
X6.063Y-5.315
X4.1142Y-3.3252
X4.1142Y-3.4252
X4.1142Y-2.3803
X4.1142Y-2.4803
T0
M30
