G04 #@! TF.GenerationSoftware,KiCad,Pcbnew,5.1.4*
G04 #@! TF.CreationDate,2019-11-06T22:36:36+09:00*
G04 #@! TF.ProjectId,computerScienceExperience2,636f6d70-7574-4657-9253-6369656e6365,rev?*
G04 #@! TF.SameCoordinates,Original*
G04 #@! TF.FileFunction,Soldermask,Bot*
G04 #@! TF.FilePolarity,Negative*
%FSLAX46Y46*%
G04 Gerber Fmt 4.6, Leading zero omitted, Abs format (unit mm)*
G04 Created by KiCad (PCBNEW 5.1.4) date 2019-11-06 22:36:36*
%MOMM*%
%LPD*%
G04 APERTURE LIST*
%ADD10C,0.100000*%
G04 APERTURE END LIST*
D10*
G36*
X105401000Y-135901000D02*
G01*
X103599000Y-135901000D01*
X103599000Y-134099000D01*
X105401000Y-134099000D01*
X105401000Y-135901000D01*
X105401000Y-135901000D01*
G37*
G36*
X154901000Y-135901000D02*
G01*
X153099000Y-135901000D01*
X153099000Y-134099000D01*
X154901000Y-134099000D01*
X154901000Y-135901000D01*
X154901000Y-135901000D01*
G37*
G36*
X104610443Y-131565519D02*
G01*
X104676627Y-131572037D01*
X104846466Y-131623557D01*
X105002991Y-131707222D01*
X105038729Y-131736552D01*
X105140186Y-131819814D01*
X105223448Y-131921271D01*
X105252778Y-131957009D01*
X105336443Y-132113534D01*
X105387963Y-132283373D01*
X105405359Y-132460000D01*
X105387963Y-132636627D01*
X105336443Y-132806466D01*
X105252778Y-132962991D01*
X105223448Y-132998729D01*
X105140186Y-133100186D01*
X105038729Y-133183448D01*
X105002991Y-133212778D01*
X104846466Y-133296443D01*
X104676627Y-133347963D01*
X104610443Y-133354481D01*
X104544260Y-133361000D01*
X104455740Y-133361000D01*
X104389557Y-133354481D01*
X104323373Y-133347963D01*
X104153534Y-133296443D01*
X103997009Y-133212778D01*
X103961271Y-133183448D01*
X103859814Y-133100186D01*
X103776552Y-132998729D01*
X103747222Y-132962991D01*
X103663557Y-132806466D01*
X103612037Y-132636627D01*
X103594641Y-132460000D01*
X103612037Y-132283373D01*
X103663557Y-132113534D01*
X103747222Y-131957009D01*
X103776552Y-131921271D01*
X103859814Y-131819814D01*
X103961271Y-131736552D01*
X103997009Y-131707222D01*
X104153534Y-131623557D01*
X104323373Y-131572037D01*
X104389557Y-131565519D01*
X104455740Y-131559000D01*
X104544260Y-131559000D01*
X104610443Y-131565519D01*
X104610443Y-131565519D01*
G37*
G36*
X154110443Y-131565519D02*
G01*
X154176627Y-131572037D01*
X154346466Y-131623557D01*
X154502991Y-131707222D01*
X154538729Y-131736552D01*
X154640186Y-131819814D01*
X154723448Y-131921271D01*
X154752778Y-131957009D01*
X154836443Y-132113534D01*
X154887963Y-132283373D01*
X154905359Y-132460000D01*
X154887963Y-132636627D01*
X154836443Y-132806466D01*
X154752778Y-132962991D01*
X154723448Y-132998729D01*
X154640186Y-133100186D01*
X154538729Y-133183448D01*
X154502991Y-133212778D01*
X154346466Y-133296443D01*
X154176627Y-133347963D01*
X154110443Y-133354481D01*
X154044260Y-133361000D01*
X153955740Y-133361000D01*
X153889557Y-133354481D01*
X153823373Y-133347963D01*
X153653534Y-133296443D01*
X153497009Y-133212778D01*
X153461271Y-133183448D01*
X153359814Y-133100186D01*
X153276552Y-132998729D01*
X153247222Y-132962991D01*
X153163557Y-132806466D01*
X153112037Y-132636627D01*
X153094641Y-132460000D01*
X153112037Y-132283373D01*
X153163557Y-132113534D01*
X153247222Y-131957009D01*
X153276552Y-131921271D01*
X153359814Y-131819814D01*
X153461271Y-131736552D01*
X153497009Y-131707222D01*
X153653534Y-131623557D01*
X153823373Y-131572037D01*
X153889557Y-131565519D01*
X153955740Y-131559000D01*
X154044260Y-131559000D01*
X154110443Y-131565519D01*
X154110443Y-131565519D01*
G37*
G36*
X105401000Y-111901000D02*
G01*
X103599000Y-111901000D01*
X103599000Y-110099000D01*
X105401000Y-110099000D01*
X105401000Y-111901000D01*
X105401000Y-111901000D01*
G37*
G36*
X154901000Y-111901000D02*
G01*
X153099000Y-111901000D01*
X153099000Y-110099000D01*
X154901000Y-110099000D01*
X154901000Y-111901000D01*
X154901000Y-111901000D01*
G37*
G36*
X104610443Y-107565519D02*
G01*
X104676627Y-107572037D01*
X104846466Y-107623557D01*
X105002991Y-107707222D01*
X105038729Y-107736552D01*
X105140186Y-107819814D01*
X105223448Y-107921271D01*
X105252778Y-107957009D01*
X105336443Y-108113534D01*
X105387963Y-108283373D01*
X105405359Y-108460000D01*
X105387963Y-108636627D01*
X105336443Y-108806466D01*
X105252778Y-108962991D01*
X105223448Y-108998729D01*
X105140186Y-109100186D01*
X105038729Y-109183448D01*
X105002991Y-109212778D01*
X104846466Y-109296443D01*
X104676627Y-109347963D01*
X104610443Y-109354481D01*
X104544260Y-109361000D01*
X104455740Y-109361000D01*
X104389557Y-109354481D01*
X104323373Y-109347963D01*
X104153534Y-109296443D01*
X103997009Y-109212778D01*
X103961271Y-109183448D01*
X103859814Y-109100186D01*
X103776552Y-108998729D01*
X103747222Y-108962991D01*
X103663557Y-108806466D01*
X103612037Y-108636627D01*
X103594641Y-108460000D01*
X103612037Y-108283373D01*
X103663557Y-108113534D01*
X103747222Y-107957009D01*
X103776552Y-107921271D01*
X103859814Y-107819814D01*
X103961271Y-107736552D01*
X103997009Y-107707222D01*
X104153534Y-107623557D01*
X104323373Y-107572037D01*
X104389557Y-107565519D01*
X104455740Y-107559000D01*
X104544260Y-107559000D01*
X104610443Y-107565519D01*
X104610443Y-107565519D01*
G37*
G36*
X154110443Y-107565519D02*
G01*
X154176627Y-107572037D01*
X154346466Y-107623557D01*
X154502991Y-107707222D01*
X154538729Y-107736552D01*
X154640186Y-107819814D01*
X154723448Y-107921271D01*
X154752778Y-107957009D01*
X154836443Y-108113534D01*
X154887963Y-108283373D01*
X154905359Y-108460000D01*
X154887963Y-108636627D01*
X154836443Y-108806466D01*
X154752778Y-108962991D01*
X154723448Y-108998729D01*
X154640186Y-109100186D01*
X154538729Y-109183448D01*
X154502991Y-109212778D01*
X154346466Y-109296443D01*
X154176627Y-109347963D01*
X154110443Y-109354481D01*
X154044260Y-109361000D01*
X153955740Y-109361000D01*
X153889557Y-109354481D01*
X153823373Y-109347963D01*
X153653534Y-109296443D01*
X153497009Y-109212778D01*
X153461271Y-109183448D01*
X153359814Y-109100186D01*
X153276552Y-108998729D01*
X153247222Y-108962991D01*
X153163557Y-108806466D01*
X153112037Y-108636627D01*
X153094641Y-108460000D01*
X153112037Y-108283373D01*
X153163557Y-108113534D01*
X153247222Y-107957009D01*
X153276552Y-107921271D01*
X153359814Y-107819814D01*
X153461271Y-107736552D01*
X153497009Y-107707222D01*
X153653534Y-107623557D01*
X153823373Y-107572037D01*
X153889557Y-107565519D01*
X153955740Y-107559000D01*
X154044260Y-107559000D01*
X154110443Y-107565519D01*
X154110443Y-107565519D01*
G37*
G36*
X105401000Y-87901000D02*
G01*
X103599000Y-87901000D01*
X103599000Y-86099000D01*
X105401000Y-86099000D01*
X105401000Y-87901000D01*
X105401000Y-87901000D01*
G37*
G36*
X154901000Y-87901000D02*
G01*
X153099000Y-87901000D01*
X153099000Y-86099000D01*
X154901000Y-86099000D01*
X154901000Y-87901000D01*
X154901000Y-87901000D01*
G37*
G36*
X104610442Y-83565518D02*
G01*
X104676627Y-83572037D01*
X104846466Y-83623557D01*
X105002991Y-83707222D01*
X105038729Y-83736552D01*
X105140186Y-83819814D01*
X105223448Y-83921271D01*
X105252778Y-83957009D01*
X105336443Y-84113534D01*
X105387963Y-84283373D01*
X105405359Y-84460000D01*
X105387963Y-84636627D01*
X105336443Y-84806466D01*
X105252778Y-84962991D01*
X105223448Y-84998729D01*
X105140186Y-85100186D01*
X105038729Y-85183448D01*
X105002991Y-85212778D01*
X104846466Y-85296443D01*
X104676627Y-85347963D01*
X104610442Y-85354482D01*
X104544260Y-85361000D01*
X104455740Y-85361000D01*
X104389558Y-85354482D01*
X104323373Y-85347963D01*
X104153534Y-85296443D01*
X103997009Y-85212778D01*
X103961271Y-85183448D01*
X103859814Y-85100186D01*
X103776552Y-84998729D01*
X103747222Y-84962991D01*
X103663557Y-84806466D01*
X103612037Y-84636627D01*
X103594641Y-84460000D01*
X103612037Y-84283373D01*
X103663557Y-84113534D01*
X103747222Y-83957009D01*
X103776552Y-83921271D01*
X103859814Y-83819814D01*
X103961271Y-83736552D01*
X103997009Y-83707222D01*
X104153534Y-83623557D01*
X104323373Y-83572037D01*
X104389558Y-83565518D01*
X104455740Y-83559000D01*
X104544260Y-83559000D01*
X104610442Y-83565518D01*
X104610442Y-83565518D01*
G37*
G36*
X154110442Y-83565518D02*
G01*
X154176627Y-83572037D01*
X154346466Y-83623557D01*
X154502991Y-83707222D01*
X154538729Y-83736552D01*
X154640186Y-83819814D01*
X154723448Y-83921271D01*
X154752778Y-83957009D01*
X154836443Y-84113534D01*
X154887963Y-84283373D01*
X154905359Y-84460000D01*
X154887963Y-84636627D01*
X154836443Y-84806466D01*
X154752778Y-84962991D01*
X154723448Y-84998729D01*
X154640186Y-85100186D01*
X154538729Y-85183448D01*
X154502991Y-85212778D01*
X154346466Y-85296443D01*
X154176627Y-85347963D01*
X154110442Y-85354482D01*
X154044260Y-85361000D01*
X153955740Y-85361000D01*
X153889558Y-85354482D01*
X153823373Y-85347963D01*
X153653534Y-85296443D01*
X153497009Y-85212778D01*
X153461271Y-85183448D01*
X153359814Y-85100186D01*
X153276552Y-84998729D01*
X153247222Y-84962991D01*
X153163557Y-84806466D01*
X153112037Y-84636627D01*
X153094641Y-84460000D01*
X153112037Y-84283373D01*
X153163557Y-84113534D01*
X153247222Y-83957009D01*
X153276552Y-83921271D01*
X153359814Y-83819814D01*
X153461271Y-83736552D01*
X153497009Y-83707222D01*
X153653534Y-83623557D01*
X153823373Y-83572037D01*
X153889558Y-83565518D01*
X153955740Y-83559000D01*
X154044260Y-83559000D01*
X154110442Y-83565518D01*
X154110442Y-83565518D01*
G37*
G36*
X105401000Y-63901000D02*
G01*
X103599000Y-63901000D01*
X103599000Y-62099000D01*
X105401000Y-62099000D01*
X105401000Y-63901000D01*
X105401000Y-63901000D01*
G37*
G36*
X154901000Y-63901000D02*
G01*
X153099000Y-63901000D01*
X153099000Y-62099000D01*
X154901000Y-62099000D01*
X154901000Y-63901000D01*
X154901000Y-63901000D01*
G37*
G36*
X104610442Y-59565518D02*
G01*
X104676627Y-59572037D01*
X104846466Y-59623557D01*
X105002991Y-59707222D01*
X105038729Y-59736552D01*
X105140186Y-59819814D01*
X105223448Y-59921271D01*
X105252778Y-59957009D01*
X105336443Y-60113534D01*
X105387963Y-60283373D01*
X105405359Y-60460000D01*
X105387963Y-60636627D01*
X105336443Y-60806466D01*
X105252778Y-60962991D01*
X105223448Y-60998729D01*
X105140186Y-61100186D01*
X105038729Y-61183448D01*
X105002991Y-61212778D01*
X104846466Y-61296443D01*
X104676627Y-61347963D01*
X104610442Y-61354482D01*
X104544260Y-61361000D01*
X104455740Y-61361000D01*
X104389558Y-61354482D01*
X104323373Y-61347963D01*
X104153534Y-61296443D01*
X103997009Y-61212778D01*
X103961271Y-61183448D01*
X103859814Y-61100186D01*
X103776552Y-60998729D01*
X103747222Y-60962991D01*
X103663557Y-60806466D01*
X103612037Y-60636627D01*
X103594641Y-60460000D01*
X103612037Y-60283373D01*
X103663557Y-60113534D01*
X103747222Y-59957009D01*
X103776552Y-59921271D01*
X103859814Y-59819814D01*
X103961271Y-59736552D01*
X103997009Y-59707222D01*
X104153534Y-59623557D01*
X104323373Y-59572037D01*
X104389558Y-59565518D01*
X104455740Y-59559000D01*
X104544260Y-59559000D01*
X104610442Y-59565518D01*
X104610442Y-59565518D01*
G37*
G36*
X154110442Y-59565518D02*
G01*
X154176627Y-59572037D01*
X154346466Y-59623557D01*
X154502991Y-59707222D01*
X154538729Y-59736552D01*
X154640186Y-59819814D01*
X154723448Y-59921271D01*
X154752778Y-59957009D01*
X154836443Y-60113534D01*
X154887963Y-60283373D01*
X154905359Y-60460000D01*
X154887963Y-60636627D01*
X154836443Y-60806466D01*
X154752778Y-60962991D01*
X154723448Y-60998729D01*
X154640186Y-61100186D01*
X154538729Y-61183448D01*
X154502991Y-61212778D01*
X154346466Y-61296443D01*
X154176627Y-61347963D01*
X154110442Y-61354482D01*
X154044260Y-61361000D01*
X153955740Y-61361000D01*
X153889558Y-61354482D01*
X153823373Y-61347963D01*
X153653534Y-61296443D01*
X153497009Y-61212778D01*
X153461271Y-61183448D01*
X153359814Y-61100186D01*
X153276552Y-60998729D01*
X153247222Y-60962991D01*
X153163557Y-60806466D01*
X153112037Y-60636627D01*
X153094641Y-60460000D01*
X153112037Y-60283373D01*
X153163557Y-60113534D01*
X153247222Y-59957009D01*
X153276552Y-59921271D01*
X153359814Y-59819814D01*
X153461271Y-59736552D01*
X153497009Y-59707222D01*
X153653534Y-59623557D01*
X153823373Y-59572037D01*
X153889558Y-59565518D01*
X153955740Y-59559000D01*
X154044260Y-59559000D01*
X154110442Y-59565518D01*
X154110442Y-59565518D01*
G37*
M02*
