%TF.GenerationSoftware,KiCad,Pcbnew,5.1.6*%
%TF.CreationDate,2020-09-24T12:30:59+09:00*%
%TF.ProjectId,circuit-2,63697263-7569-4742-9d32-2e6b69636164,rev?*%
%TF.SameCoordinates,Original*%
%TF.FileFunction,Copper,L2,Bot*%
%TF.FilePolarity,Positive*%
%FSLAX46Y46*%
G04 Gerber Fmt 4.6, Leading zero omitted, Abs format (unit mm)*
G04 Created by KiCad (PCBNEW 5.1.6) date 2020-09-24 12:30:59*
%MOMM*%
%LPD*%
G01*
G04 APERTURE LIST*
%TA.AperFunction,ComponentPad*%
%ADD10R,1.700000X1.700000*%
%TD*%
%TA.AperFunction,ViaPad*%
%ADD11C,0.800000*%
%TD*%
%TA.AperFunction,Conductor*%
%ADD12C,0.250000*%
%TD*%
%TA.AperFunction,Conductor*%
%ADD13C,0.254000*%
%TD*%
G04 APERTURE END LIST*
D10*
%TO.P,Q0,1*%
%TO.N,Net-(J3-Pad1)*%
X97536000Y-57023000D03*
%TD*%
%TO.P,Q1,1*%
%TO.N,Net-(J4-Pad1)*%
X97536000Y-62992000D03*
%TD*%
%TO.P,Vcc,1*%
%TO.N,VCC*%
X50038000Y-49276000D03*
%TD*%
%TO.P,Clock,1*%
%TO.N,CK*%
X97536000Y-48514000D03*
%TD*%
%TO.P,GND,1*%
%TO.N,GND*%
X50038000Y-51816000D03*
%TD*%
D11*
%TO.N,GND*%
X48768000Y-65405000D03*
X88773000Y-56134000D03*
%TO.N,CK*%
X79883000Y-48514000D03*
%TO.N,Net-(J3-Pad1)*%
X88773000Y-53594000D03*
X79883000Y-58674000D03*
X74803000Y-58674000D03*
X58801000Y-48514000D03*
%TO.N,Net-(J4-Pad1)*%
X58801000Y-51054000D03*
X88773000Y-61214000D03*
%TO.N,Net-(U1-Pad2)*%
X74803000Y-62738000D03*
X58801000Y-53594000D03*
%TD*%
D12*
%TO.N,CK*%
X79883000Y-48514000D02*
X94234000Y-48514000D01*
X94234000Y-48514000D02*
X97536000Y-48514000D01*
%TO.N,Net-(J3-Pad1)*%
X80645000Y-58674000D02*
X79883000Y-58674000D01*
X80899000Y-58420000D02*
X80645000Y-58674000D01*
X80899000Y-53975000D02*
X80899000Y-58420000D01*
X81280000Y-53594000D02*
X80899000Y-53975000D01*
X88773000Y-53594000D02*
X81280000Y-53594000D01*
X97536000Y-53975000D02*
X97155000Y-53594000D01*
X97536000Y-55245000D02*
X97536000Y-53975000D01*
X97155000Y-53594000D02*
X88773000Y-53594000D01*
X74803000Y-49149000D02*
X74803000Y-58674000D01*
X74168000Y-48514000D02*
X74803000Y-49149000D01*
X58801000Y-48514000D02*
X74168000Y-48514000D01*
X97536000Y-55245000D02*
X97536000Y-57023000D01*
%TO.N,Net-(J4-Pad1)*%
X72390000Y-51054000D02*
X58801000Y-51054000D01*
X73025000Y-51689000D02*
X72390000Y-51054000D01*
X73025000Y-60579000D02*
X73025000Y-51689000D01*
X73660000Y-61214000D02*
X73025000Y-60579000D01*
X88773000Y-61214000D02*
X73660000Y-61214000D01*
X97536000Y-61595000D02*
X97155000Y-61214000D01*
X97536000Y-62992000D02*
X97536000Y-61595000D01*
X88773000Y-61214000D02*
X97155000Y-61214000D01*
%TO.N,Net-(U1-Pad2)*%
X71501000Y-61722000D02*
X72517000Y-62738000D01*
X72517000Y-62738000D02*
X74803000Y-62738000D01*
X71501000Y-54356000D02*
X71501000Y-61722000D01*
X70739000Y-53594000D02*
X71501000Y-54356000D01*
X58801000Y-53594000D02*
X70739000Y-53594000D01*
%TD*%
D13*
%TO.N,GND*%
G36*
X100076000Y-66167000D02*
G01*
X48006000Y-66167000D01*
X48006000Y-52666000D01*
X48549928Y-52666000D01*
X48562188Y-52790482D01*
X48598498Y-52910180D01*
X48657463Y-53020494D01*
X48736815Y-53117185D01*
X48833506Y-53196537D01*
X48943820Y-53255502D01*
X49063518Y-53291812D01*
X49188000Y-53304072D01*
X49752250Y-53301000D01*
X49911000Y-53142250D01*
X49911000Y-51943000D01*
X50165000Y-51943000D01*
X50165000Y-53142250D01*
X50323750Y-53301000D01*
X50888000Y-53304072D01*
X51012482Y-53291812D01*
X51132180Y-53255502D01*
X51242494Y-53196537D01*
X51339185Y-53117185D01*
X51418537Y-53020494D01*
X51477502Y-52910180D01*
X51513812Y-52790482D01*
X51526072Y-52666000D01*
X51523000Y-52101750D01*
X51364250Y-51943000D01*
X50165000Y-51943000D01*
X49911000Y-51943000D01*
X48711750Y-51943000D01*
X48553000Y-52101750D01*
X48549928Y-52666000D01*
X48006000Y-52666000D01*
X48006000Y-48426000D01*
X48549928Y-48426000D01*
X48549928Y-50126000D01*
X48562188Y-50250482D01*
X48598498Y-50370180D01*
X48657463Y-50480494D01*
X48711222Y-50546000D01*
X48657463Y-50611506D01*
X48598498Y-50721820D01*
X48562188Y-50841518D01*
X48549928Y-50966000D01*
X48553000Y-51530250D01*
X48711750Y-51689000D01*
X49911000Y-51689000D01*
X49911000Y-51669000D01*
X50165000Y-51669000D01*
X50165000Y-51689000D01*
X51364250Y-51689000D01*
X51523000Y-51530250D01*
X51526072Y-50966000D01*
X51513812Y-50841518D01*
X51477502Y-50721820D01*
X51418537Y-50611506D01*
X51364778Y-50546000D01*
X51418537Y-50480494D01*
X51477502Y-50370180D01*
X51513812Y-50250482D01*
X51526072Y-50126000D01*
X51526072Y-48426000D01*
X51524700Y-48412061D01*
X57766000Y-48412061D01*
X57766000Y-48615939D01*
X57805774Y-48815898D01*
X57883795Y-49004256D01*
X57997063Y-49173774D01*
X58141226Y-49317937D01*
X58310744Y-49431205D01*
X58499102Y-49509226D01*
X58699061Y-49549000D01*
X58902939Y-49549000D01*
X59102898Y-49509226D01*
X59291256Y-49431205D01*
X59460774Y-49317937D01*
X59504711Y-49274000D01*
X73853199Y-49274000D01*
X74043000Y-49463802D01*
X74043001Y-57970288D01*
X73999063Y-58014226D01*
X73885795Y-58183744D01*
X73807774Y-58372102D01*
X73785000Y-58486596D01*
X73785000Y-51726333D01*
X73788677Y-51689000D01*
X73774003Y-51540014D01*
X73730546Y-51396753D01*
X73659974Y-51264724D01*
X73588799Y-51177997D01*
X73565001Y-51148999D01*
X73536002Y-51125200D01*
X72953803Y-50543002D01*
X72930001Y-50513999D01*
X72814276Y-50419026D01*
X72682247Y-50348454D01*
X72538986Y-50304997D01*
X72427333Y-50294000D01*
X72427322Y-50294000D01*
X72390000Y-50290324D01*
X72352678Y-50294000D01*
X59504711Y-50294000D01*
X59460774Y-50250063D01*
X59291256Y-50136795D01*
X59102898Y-50058774D01*
X58902939Y-50019000D01*
X58699061Y-50019000D01*
X58499102Y-50058774D01*
X58310744Y-50136795D01*
X58141226Y-50250063D01*
X57997063Y-50394226D01*
X57883795Y-50563744D01*
X57805774Y-50752102D01*
X57766000Y-50952061D01*
X57766000Y-51155939D01*
X57805774Y-51355898D01*
X57883795Y-51544256D01*
X57997063Y-51713774D01*
X58141226Y-51857937D01*
X58310744Y-51971205D01*
X58499102Y-52049226D01*
X58699061Y-52089000D01*
X58902939Y-52089000D01*
X59102898Y-52049226D01*
X59291256Y-51971205D01*
X59460774Y-51857937D01*
X59504711Y-51814000D01*
X72075199Y-51814000D01*
X72265001Y-52003803D01*
X72265000Y-60541678D01*
X72261324Y-60579000D01*
X72265000Y-60616322D01*
X72265000Y-60616332D01*
X72275997Y-60727985D01*
X72307344Y-60831323D01*
X72319454Y-60871246D01*
X72390026Y-61003276D01*
X72429871Y-61051826D01*
X72484999Y-61119001D01*
X72514002Y-61142803D01*
X73096200Y-61725002D01*
X73119999Y-61754001D01*
X73148997Y-61777799D01*
X73235724Y-61848974D01*
X73367753Y-61919546D01*
X73511014Y-61963003D01*
X73660000Y-61977677D01*
X73697333Y-61974000D01*
X74103289Y-61974000D01*
X74099289Y-61978000D01*
X72831802Y-61978000D01*
X72261000Y-61407199D01*
X72261000Y-54393325D01*
X72264676Y-54356000D01*
X72261000Y-54318675D01*
X72261000Y-54318667D01*
X72250003Y-54207014D01*
X72206546Y-54063753D01*
X72135974Y-53931724D01*
X72041001Y-53815999D01*
X72012004Y-53792202D01*
X71302803Y-53083002D01*
X71279001Y-53053999D01*
X71163276Y-52959026D01*
X71031247Y-52888454D01*
X70887986Y-52844997D01*
X70776333Y-52834000D01*
X70776322Y-52834000D01*
X70739000Y-52830324D01*
X70701678Y-52834000D01*
X59504711Y-52834000D01*
X59460774Y-52790063D01*
X59291256Y-52676795D01*
X59102898Y-52598774D01*
X58902939Y-52559000D01*
X58699061Y-52559000D01*
X58499102Y-52598774D01*
X58310744Y-52676795D01*
X58141226Y-52790063D01*
X57997063Y-52934226D01*
X57883795Y-53103744D01*
X57805774Y-53292102D01*
X57766000Y-53492061D01*
X57766000Y-53695939D01*
X57805774Y-53895898D01*
X57883795Y-54084256D01*
X57997063Y-54253774D01*
X58141226Y-54397937D01*
X58310744Y-54511205D01*
X58499102Y-54589226D01*
X58699061Y-54629000D01*
X58902939Y-54629000D01*
X59102898Y-54589226D01*
X59291256Y-54511205D01*
X59460774Y-54397937D01*
X59504711Y-54354000D01*
X70424199Y-54354000D01*
X70741000Y-54670802D01*
X70741001Y-61684668D01*
X70737324Y-61722000D01*
X70741001Y-61759333D01*
X70751998Y-61870986D01*
X70760138Y-61897820D01*
X70795454Y-62014246D01*
X70866026Y-62146276D01*
X70932273Y-62226997D01*
X70961000Y-62262001D01*
X70989998Y-62285799D01*
X71953201Y-63249003D01*
X71976999Y-63278001D01*
X72005997Y-63301799D01*
X72092723Y-63372974D01*
X72173733Y-63416275D01*
X72224753Y-63443546D01*
X72368014Y-63487003D01*
X72479667Y-63498000D01*
X72479677Y-63498000D01*
X72517000Y-63501676D01*
X72554322Y-63498000D01*
X74099289Y-63498000D01*
X74143226Y-63541937D01*
X74312744Y-63655205D01*
X74501102Y-63733226D01*
X74701061Y-63773000D01*
X74904939Y-63773000D01*
X75104898Y-63733226D01*
X75293256Y-63655205D01*
X75462774Y-63541937D01*
X75606937Y-63397774D01*
X75720205Y-63228256D01*
X75798226Y-63039898D01*
X75838000Y-62839939D01*
X75838000Y-62636061D01*
X75798226Y-62436102D01*
X75720205Y-62247744D01*
X75606937Y-62078226D01*
X75502711Y-61974000D01*
X88069289Y-61974000D01*
X88113226Y-62017937D01*
X88282744Y-62131205D01*
X88471102Y-62209226D01*
X88671061Y-62249000D01*
X88874939Y-62249000D01*
X89074898Y-62209226D01*
X89263256Y-62131205D01*
X89432774Y-62017937D01*
X89476711Y-61974000D01*
X96073389Y-61974000D01*
X96060188Y-62017518D01*
X96047928Y-62142000D01*
X96047928Y-63842000D01*
X96060188Y-63966482D01*
X96096498Y-64086180D01*
X96155463Y-64196494D01*
X96234815Y-64293185D01*
X96331506Y-64372537D01*
X96441820Y-64431502D01*
X96561518Y-64467812D01*
X96686000Y-64480072D01*
X98386000Y-64480072D01*
X98510482Y-64467812D01*
X98630180Y-64431502D01*
X98740494Y-64372537D01*
X98837185Y-64293185D01*
X98916537Y-64196494D01*
X98975502Y-64086180D01*
X99011812Y-63966482D01*
X99024072Y-63842000D01*
X99024072Y-62142000D01*
X99011812Y-62017518D01*
X98975502Y-61897820D01*
X98916537Y-61787506D01*
X98837185Y-61690815D01*
X98740494Y-61611463D01*
X98630180Y-61552498D01*
X98510482Y-61516188D01*
X98386000Y-61503928D01*
X98290707Y-61503928D01*
X98285003Y-61446014D01*
X98241546Y-61302753D01*
X98170974Y-61170724D01*
X98076001Y-61054999D01*
X98046997Y-61031196D01*
X97718804Y-60703003D01*
X97695001Y-60673999D01*
X97579276Y-60579026D01*
X97447247Y-60508454D01*
X97303986Y-60464997D01*
X97192333Y-60454000D01*
X97192322Y-60454000D01*
X97155000Y-60450324D01*
X97117678Y-60454000D01*
X89476711Y-60454000D01*
X89432774Y-60410063D01*
X89263256Y-60296795D01*
X89074898Y-60218774D01*
X88874939Y-60179000D01*
X88671061Y-60179000D01*
X88471102Y-60218774D01*
X88282744Y-60296795D01*
X88113226Y-60410063D01*
X88069289Y-60454000D01*
X73974802Y-60454000D01*
X73785000Y-60264199D01*
X73785000Y-58861404D01*
X73807774Y-58975898D01*
X73885795Y-59164256D01*
X73999063Y-59333774D01*
X74143226Y-59477937D01*
X74312744Y-59591205D01*
X74501102Y-59669226D01*
X74701061Y-59709000D01*
X74904939Y-59709000D01*
X75104898Y-59669226D01*
X75293256Y-59591205D01*
X75462774Y-59477937D01*
X75606937Y-59333774D01*
X75720205Y-59164256D01*
X75798226Y-58975898D01*
X75838000Y-58775939D01*
X75838000Y-58572061D01*
X78848000Y-58572061D01*
X78848000Y-58775939D01*
X78887774Y-58975898D01*
X78965795Y-59164256D01*
X79079063Y-59333774D01*
X79223226Y-59477937D01*
X79392744Y-59591205D01*
X79581102Y-59669226D01*
X79781061Y-59709000D01*
X79984939Y-59709000D01*
X80184898Y-59669226D01*
X80373256Y-59591205D01*
X80542774Y-59477937D01*
X80586711Y-59434000D01*
X80607678Y-59434000D01*
X80645000Y-59437676D01*
X80682322Y-59434000D01*
X80682333Y-59434000D01*
X80793986Y-59423003D01*
X80937247Y-59379546D01*
X81069276Y-59308974D01*
X81185001Y-59214001D01*
X81208804Y-59184997D01*
X81409997Y-58983804D01*
X81439001Y-58960001D01*
X81533974Y-58844276D01*
X81604546Y-58712247D01*
X81648003Y-58568986D01*
X81659000Y-58457333D01*
X81659000Y-58457324D01*
X81662676Y-58420001D01*
X81659000Y-58382678D01*
X81659000Y-54354000D01*
X88069289Y-54354000D01*
X88113226Y-54397937D01*
X88282744Y-54511205D01*
X88471102Y-54589226D01*
X88671061Y-54629000D01*
X88874939Y-54629000D01*
X89074898Y-54589226D01*
X89263256Y-54511205D01*
X89432774Y-54397937D01*
X89476711Y-54354000D01*
X96776001Y-54354000D01*
X96776000Y-55207667D01*
X96776000Y-55534928D01*
X96686000Y-55534928D01*
X96561518Y-55547188D01*
X96441820Y-55583498D01*
X96331506Y-55642463D01*
X96234815Y-55721815D01*
X96155463Y-55818506D01*
X96096498Y-55928820D01*
X96060188Y-56048518D01*
X96047928Y-56173000D01*
X96047928Y-57873000D01*
X96060188Y-57997482D01*
X96096498Y-58117180D01*
X96155463Y-58227494D01*
X96234815Y-58324185D01*
X96331506Y-58403537D01*
X96441820Y-58462502D01*
X96561518Y-58498812D01*
X96686000Y-58511072D01*
X98386000Y-58511072D01*
X98510482Y-58498812D01*
X98630180Y-58462502D01*
X98740494Y-58403537D01*
X98837185Y-58324185D01*
X98916537Y-58227494D01*
X98975502Y-58117180D01*
X99011812Y-57997482D01*
X99024072Y-57873000D01*
X99024072Y-56173000D01*
X99011812Y-56048518D01*
X98975502Y-55928820D01*
X98916537Y-55818506D01*
X98837185Y-55721815D01*
X98740494Y-55642463D01*
X98630180Y-55583498D01*
X98510482Y-55547188D01*
X98386000Y-55534928D01*
X98296000Y-55534928D01*
X98296000Y-54012322D01*
X98299676Y-53974999D01*
X98296000Y-53937676D01*
X98296000Y-53937667D01*
X98285003Y-53826014D01*
X98241546Y-53682753D01*
X98170974Y-53550724D01*
X98076001Y-53434999D01*
X98046997Y-53411196D01*
X97718804Y-53083003D01*
X97695001Y-53053999D01*
X97579276Y-52959026D01*
X97447247Y-52888454D01*
X97303986Y-52844997D01*
X97192333Y-52834000D01*
X97192322Y-52834000D01*
X97155000Y-52830324D01*
X97117678Y-52834000D01*
X89476711Y-52834000D01*
X89432774Y-52790063D01*
X89263256Y-52676795D01*
X89074898Y-52598774D01*
X88874939Y-52559000D01*
X88671061Y-52559000D01*
X88471102Y-52598774D01*
X88282744Y-52676795D01*
X88113226Y-52790063D01*
X88069289Y-52834000D01*
X81317322Y-52834000D01*
X81279999Y-52830324D01*
X81242676Y-52834000D01*
X81242667Y-52834000D01*
X81131014Y-52844997D01*
X80987753Y-52888454D01*
X80855724Y-52959026D01*
X80739999Y-53053999D01*
X80716196Y-53083003D01*
X80388003Y-53411196D01*
X80358999Y-53434999D01*
X80312170Y-53492061D01*
X80264026Y-53550724D01*
X80210719Y-53650454D01*
X80193454Y-53682754D01*
X80149997Y-53826015D01*
X80139000Y-53937668D01*
X80139000Y-53937678D01*
X80135324Y-53975000D01*
X80139000Y-54012323D01*
X80139001Y-57669645D01*
X79984939Y-57639000D01*
X79781061Y-57639000D01*
X79581102Y-57678774D01*
X79392744Y-57756795D01*
X79223226Y-57870063D01*
X79079063Y-58014226D01*
X78965795Y-58183744D01*
X78887774Y-58372102D01*
X78848000Y-58572061D01*
X75838000Y-58572061D01*
X75798226Y-58372102D01*
X75720205Y-58183744D01*
X75606937Y-58014226D01*
X75563000Y-57970289D01*
X75563000Y-49186333D01*
X75566677Y-49149000D01*
X75552003Y-49000014D01*
X75508546Y-48856753D01*
X75437974Y-48724724D01*
X75366799Y-48637997D01*
X75343001Y-48608999D01*
X75314004Y-48585202D01*
X75140863Y-48412061D01*
X78848000Y-48412061D01*
X78848000Y-48615939D01*
X78887774Y-48815898D01*
X78965795Y-49004256D01*
X79079063Y-49173774D01*
X79223226Y-49317937D01*
X79392744Y-49431205D01*
X79581102Y-49509226D01*
X79781061Y-49549000D01*
X79984939Y-49549000D01*
X80184898Y-49509226D01*
X80373256Y-49431205D01*
X80542774Y-49317937D01*
X80586711Y-49274000D01*
X96047928Y-49274000D01*
X96047928Y-49364000D01*
X96060188Y-49488482D01*
X96096498Y-49608180D01*
X96155463Y-49718494D01*
X96234815Y-49815185D01*
X96331506Y-49894537D01*
X96441820Y-49953502D01*
X96561518Y-49989812D01*
X96686000Y-50002072D01*
X98386000Y-50002072D01*
X98510482Y-49989812D01*
X98630180Y-49953502D01*
X98740494Y-49894537D01*
X98837185Y-49815185D01*
X98916537Y-49718494D01*
X98975502Y-49608180D01*
X99011812Y-49488482D01*
X99024072Y-49364000D01*
X99024072Y-47664000D01*
X99011812Y-47539518D01*
X98975502Y-47419820D01*
X98916537Y-47309506D01*
X98837185Y-47212815D01*
X98740494Y-47133463D01*
X98630180Y-47074498D01*
X98510482Y-47038188D01*
X98386000Y-47025928D01*
X96686000Y-47025928D01*
X96561518Y-47038188D01*
X96441820Y-47074498D01*
X96331506Y-47133463D01*
X96234815Y-47212815D01*
X96155463Y-47309506D01*
X96096498Y-47419820D01*
X96060188Y-47539518D01*
X96047928Y-47664000D01*
X96047928Y-47754000D01*
X80586711Y-47754000D01*
X80542774Y-47710063D01*
X80373256Y-47596795D01*
X80184898Y-47518774D01*
X79984939Y-47479000D01*
X79781061Y-47479000D01*
X79581102Y-47518774D01*
X79392744Y-47596795D01*
X79223226Y-47710063D01*
X79079063Y-47854226D01*
X78965795Y-48023744D01*
X78887774Y-48212102D01*
X78848000Y-48412061D01*
X75140863Y-48412061D01*
X74731803Y-48003002D01*
X74708001Y-47973999D01*
X74592276Y-47879026D01*
X74460247Y-47808454D01*
X74316986Y-47764997D01*
X74205333Y-47754000D01*
X74205322Y-47754000D01*
X74168000Y-47750324D01*
X74130678Y-47754000D01*
X59504711Y-47754000D01*
X59460774Y-47710063D01*
X59291256Y-47596795D01*
X59102898Y-47518774D01*
X58902939Y-47479000D01*
X58699061Y-47479000D01*
X58499102Y-47518774D01*
X58310744Y-47596795D01*
X58141226Y-47710063D01*
X57997063Y-47854226D01*
X57883795Y-48023744D01*
X57805774Y-48212102D01*
X57766000Y-48412061D01*
X51524700Y-48412061D01*
X51513812Y-48301518D01*
X51477502Y-48181820D01*
X51418537Y-48071506D01*
X51339185Y-47974815D01*
X51242494Y-47895463D01*
X51132180Y-47836498D01*
X51012482Y-47800188D01*
X50888000Y-47787928D01*
X49188000Y-47787928D01*
X49063518Y-47800188D01*
X48943820Y-47836498D01*
X48833506Y-47895463D01*
X48736815Y-47974815D01*
X48657463Y-48071506D01*
X48598498Y-48181820D01*
X48562188Y-48301518D01*
X48549928Y-48426000D01*
X48006000Y-48426000D01*
X48006000Y-45085000D01*
X100076000Y-45085000D01*
X100076000Y-66167000D01*
G37*
X100076000Y-66167000D02*
X48006000Y-66167000D01*
X48006000Y-52666000D01*
X48549928Y-52666000D01*
X48562188Y-52790482D01*
X48598498Y-52910180D01*
X48657463Y-53020494D01*
X48736815Y-53117185D01*
X48833506Y-53196537D01*
X48943820Y-53255502D01*
X49063518Y-53291812D01*
X49188000Y-53304072D01*
X49752250Y-53301000D01*
X49911000Y-53142250D01*
X49911000Y-51943000D01*
X50165000Y-51943000D01*
X50165000Y-53142250D01*
X50323750Y-53301000D01*
X50888000Y-53304072D01*
X51012482Y-53291812D01*
X51132180Y-53255502D01*
X51242494Y-53196537D01*
X51339185Y-53117185D01*
X51418537Y-53020494D01*
X51477502Y-52910180D01*
X51513812Y-52790482D01*
X51526072Y-52666000D01*
X51523000Y-52101750D01*
X51364250Y-51943000D01*
X50165000Y-51943000D01*
X49911000Y-51943000D01*
X48711750Y-51943000D01*
X48553000Y-52101750D01*
X48549928Y-52666000D01*
X48006000Y-52666000D01*
X48006000Y-48426000D01*
X48549928Y-48426000D01*
X48549928Y-50126000D01*
X48562188Y-50250482D01*
X48598498Y-50370180D01*
X48657463Y-50480494D01*
X48711222Y-50546000D01*
X48657463Y-50611506D01*
X48598498Y-50721820D01*
X48562188Y-50841518D01*
X48549928Y-50966000D01*
X48553000Y-51530250D01*
X48711750Y-51689000D01*
X49911000Y-51689000D01*
X49911000Y-51669000D01*
X50165000Y-51669000D01*
X50165000Y-51689000D01*
X51364250Y-51689000D01*
X51523000Y-51530250D01*
X51526072Y-50966000D01*
X51513812Y-50841518D01*
X51477502Y-50721820D01*
X51418537Y-50611506D01*
X51364778Y-50546000D01*
X51418537Y-50480494D01*
X51477502Y-50370180D01*
X51513812Y-50250482D01*
X51526072Y-50126000D01*
X51526072Y-48426000D01*
X51524700Y-48412061D01*
X57766000Y-48412061D01*
X57766000Y-48615939D01*
X57805774Y-48815898D01*
X57883795Y-49004256D01*
X57997063Y-49173774D01*
X58141226Y-49317937D01*
X58310744Y-49431205D01*
X58499102Y-49509226D01*
X58699061Y-49549000D01*
X58902939Y-49549000D01*
X59102898Y-49509226D01*
X59291256Y-49431205D01*
X59460774Y-49317937D01*
X59504711Y-49274000D01*
X73853199Y-49274000D01*
X74043000Y-49463802D01*
X74043001Y-57970288D01*
X73999063Y-58014226D01*
X73885795Y-58183744D01*
X73807774Y-58372102D01*
X73785000Y-58486596D01*
X73785000Y-51726333D01*
X73788677Y-51689000D01*
X73774003Y-51540014D01*
X73730546Y-51396753D01*
X73659974Y-51264724D01*
X73588799Y-51177997D01*
X73565001Y-51148999D01*
X73536002Y-51125200D01*
X72953803Y-50543002D01*
X72930001Y-50513999D01*
X72814276Y-50419026D01*
X72682247Y-50348454D01*
X72538986Y-50304997D01*
X72427333Y-50294000D01*
X72427322Y-50294000D01*
X72390000Y-50290324D01*
X72352678Y-50294000D01*
X59504711Y-50294000D01*
X59460774Y-50250063D01*
X59291256Y-50136795D01*
X59102898Y-50058774D01*
X58902939Y-50019000D01*
X58699061Y-50019000D01*
X58499102Y-50058774D01*
X58310744Y-50136795D01*
X58141226Y-50250063D01*
X57997063Y-50394226D01*
X57883795Y-50563744D01*
X57805774Y-50752102D01*
X57766000Y-50952061D01*
X57766000Y-51155939D01*
X57805774Y-51355898D01*
X57883795Y-51544256D01*
X57997063Y-51713774D01*
X58141226Y-51857937D01*
X58310744Y-51971205D01*
X58499102Y-52049226D01*
X58699061Y-52089000D01*
X58902939Y-52089000D01*
X59102898Y-52049226D01*
X59291256Y-51971205D01*
X59460774Y-51857937D01*
X59504711Y-51814000D01*
X72075199Y-51814000D01*
X72265001Y-52003803D01*
X72265000Y-60541678D01*
X72261324Y-60579000D01*
X72265000Y-60616322D01*
X72265000Y-60616332D01*
X72275997Y-60727985D01*
X72307344Y-60831323D01*
X72319454Y-60871246D01*
X72390026Y-61003276D01*
X72429871Y-61051826D01*
X72484999Y-61119001D01*
X72514002Y-61142803D01*
X73096200Y-61725002D01*
X73119999Y-61754001D01*
X73148997Y-61777799D01*
X73235724Y-61848974D01*
X73367753Y-61919546D01*
X73511014Y-61963003D01*
X73660000Y-61977677D01*
X73697333Y-61974000D01*
X74103289Y-61974000D01*
X74099289Y-61978000D01*
X72831802Y-61978000D01*
X72261000Y-61407199D01*
X72261000Y-54393325D01*
X72264676Y-54356000D01*
X72261000Y-54318675D01*
X72261000Y-54318667D01*
X72250003Y-54207014D01*
X72206546Y-54063753D01*
X72135974Y-53931724D01*
X72041001Y-53815999D01*
X72012004Y-53792202D01*
X71302803Y-53083002D01*
X71279001Y-53053999D01*
X71163276Y-52959026D01*
X71031247Y-52888454D01*
X70887986Y-52844997D01*
X70776333Y-52834000D01*
X70776322Y-52834000D01*
X70739000Y-52830324D01*
X70701678Y-52834000D01*
X59504711Y-52834000D01*
X59460774Y-52790063D01*
X59291256Y-52676795D01*
X59102898Y-52598774D01*
X58902939Y-52559000D01*
X58699061Y-52559000D01*
X58499102Y-52598774D01*
X58310744Y-52676795D01*
X58141226Y-52790063D01*
X57997063Y-52934226D01*
X57883795Y-53103744D01*
X57805774Y-53292102D01*
X57766000Y-53492061D01*
X57766000Y-53695939D01*
X57805774Y-53895898D01*
X57883795Y-54084256D01*
X57997063Y-54253774D01*
X58141226Y-54397937D01*
X58310744Y-54511205D01*
X58499102Y-54589226D01*
X58699061Y-54629000D01*
X58902939Y-54629000D01*
X59102898Y-54589226D01*
X59291256Y-54511205D01*
X59460774Y-54397937D01*
X59504711Y-54354000D01*
X70424199Y-54354000D01*
X70741000Y-54670802D01*
X70741001Y-61684668D01*
X70737324Y-61722000D01*
X70741001Y-61759333D01*
X70751998Y-61870986D01*
X70760138Y-61897820D01*
X70795454Y-62014246D01*
X70866026Y-62146276D01*
X70932273Y-62226997D01*
X70961000Y-62262001D01*
X70989998Y-62285799D01*
X71953201Y-63249003D01*
X71976999Y-63278001D01*
X72005997Y-63301799D01*
X72092723Y-63372974D01*
X72173733Y-63416275D01*
X72224753Y-63443546D01*
X72368014Y-63487003D01*
X72479667Y-63498000D01*
X72479677Y-63498000D01*
X72517000Y-63501676D01*
X72554322Y-63498000D01*
X74099289Y-63498000D01*
X74143226Y-63541937D01*
X74312744Y-63655205D01*
X74501102Y-63733226D01*
X74701061Y-63773000D01*
X74904939Y-63773000D01*
X75104898Y-63733226D01*
X75293256Y-63655205D01*
X75462774Y-63541937D01*
X75606937Y-63397774D01*
X75720205Y-63228256D01*
X75798226Y-63039898D01*
X75838000Y-62839939D01*
X75838000Y-62636061D01*
X75798226Y-62436102D01*
X75720205Y-62247744D01*
X75606937Y-62078226D01*
X75502711Y-61974000D01*
X88069289Y-61974000D01*
X88113226Y-62017937D01*
X88282744Y-62131205D01*
X88471102Y-62209226D01*
X88671061Y-62249000D01*
X88874939Y-62249000D01*
X89074898Y-62209226D01*
X89263256Y-62131205D01*
X89432774Y-62017937D01*
X89476711Y-61974000D01*
X96073389Y-61974000D01*
X96060188Y-62017518D01*
X96047928Y-62142000D01*
X96047928Y-63842000D01*
X96060188Y-63966482D01*
X96096498Y-64086180D01*
X96155463Y-64196494D01*
X96234815Y-64293185D01*
X96331506Y-64372537D01*
X96441820Y-64431502D01*
X96561518Y-64467812D01*
X96686000Y-64480072D01*
X98386000Y-64480072D01*
X98510482Y-64467812D01*
X98630180Y-64431502D01*
X98740494Y-64372537D01*
X98837185Y-64293185D01*
X98916537Y-64196494D01*
X98975502Y-64086180D01*
X99011812Y-63966482D01*
X99024072Y-63842000D01*
X99024072Y-62142000D01*
X99011812Y-62017518D01*
X98975502Y-61897820D01*
X98916537Y-61787506D01*
X98837185Y-61690815D01*
X98740494Y-61611463D01*
X98630180Y-61552498D01*
X98510482Y-61516188D01*
X98386000Y-61503928D01*
X98290707Y-61503928D01*
X98285003Y-61446014D01*
X98241546Y-61302753D01*
X98170974Y-61170724D01*
X98076001Y-61054999D01*
X98046997Y-61031196D01*
X97718804Y-60703003D01*
X97695001Y-60673999D01*
X97579276Y-60579026D01*
X97447247Y-60508454D01*
X97303986Y-60464997D01*
X97192333Y-60454000D01*
X97192322Y-60454000D01*
X97155000Y-60450324D01*
X97117678Y-60454000D01*
X89476711Y-60454000D01*
X89432774Y-60410063D01*
X89263256Y-60296795D01*
X89074898Y-60218774D01*
X88874939Y-60179000D01*
X88671061Y-60179000D01*
X88471102Y-60218774D01*
X88282744Y-60296795D01*
X88113226Y-60410063D01*
X88069289Y-60454000D01*
X73974802Y-60454000D01*
X73785000Y-60264199D01*
X73785000Y-58861404D01*
X73807774Y-58975898D01*
X73885795Y-59164256D01*
X73999063Y-59333774D01*
X74143226Y-59477937D01*
X74312744Y-59591205D01*
X74501102Y-59669226D01*
X74701061Y-59709000D01*
X74904939Y-59709000D01*
X75104898Y-59669226D01*
X75293256Y-59591205D01*
X75462774Y-59477937D01*
X75606937Y-59333774D01*
X75720205Y-59164256D01*
X75798226Y-58975898D01*
X75838000Y-58775939D01*
X75838000Y-58572061D01*
X78848000Y-58572061D01*
X78848000Y-58775939D01*
X78887774Y-58975898D01*
X78965795Y-59164256D01*
X79079063Y-59333774D01*
X79223226Y-59477937D01*
X79392744Y-59591205D01*
X79581102Y-59669226D01*
X79781061Y-59709000D01*
X79984939Y-59709000D01*
X80184898Y-59669226D01*
X80373256Y-59591205D01*
X80542774Y-59477937D01*
X80586711Y-59434000D01*
X80607678Y-59434000D01*
X80645000Y-59437676D01*
X80682322Y-59434000D01*
X80682333Y-59434000D01*
X80793986Y-59423003D01*
X80937247Y-59379546D01*
X81069276Y-59308974D01*
X81185001Y-59214001D01*
X81208804Y-59184997D01*
X81409997Y-58983804D01*
X81439001Y-58960001D01*
X81533974Y-58844276D01*
X81604546Y-58712247D01*
X81648003Y-58568986D01*
X81659000Y-58457333D01*
X81659000Y-58457324D01*
X81662676Y-58420001D01*
X81659000Y-58382678D01*
X81659000Y-54354000D01*
X88069289Y-54354000D01*
X88113226Y-54397937D01*
X88282744Y-54511205D01*
X88471102Y-54589226D01*
X88671061Y-54629000D01*
X88874939Y-54629000D01*
X89074898Y-54589226D01*
X89263256Y-54511205D01*
X89432774Y-54397937D01*
X89476711Y-54354000D01*
X96776001Y-54354000D01*
X96776000Y-55207667D01*
X96776000Y-55534928D01*
X96686000Y-55534928D01*
X96561518Y-55547188D01*
X96441820Y-55583498D01*
X96331506Y-55642463D01*
X96234815Y-55721815D01*
X96155463Y-55818506D01*
X96096498Y-55928820D01*
X96060188Y-56048518D01*
X96047928Y-56173000D01*
X96047928Y-57873000D01*
X96060188Y-57997482D01*
X96096498Y-58117180D01*
X96155463Y-58227494D01*
X96234815Y-58324185D01*
X96331506Y-58403537D01*
X96441820Y-58462502D01*
X96561518Y-58498812D01*
X96686000Y-58511072D01*
X98386000Y-58511072D01*
X98510482Y-58498812D01*
X98630180Y-58462502D01*
X98740494Y-58403537D01*
X98837185Y-58324185D01*
X98916537Y-58227494D01*
X98975502Y-58117180D01*
X99011812Y-57997482D01*
X99024072Y-57873000D01*
X99024072Y-56173000D01*
X99011812Y-56048518D01*
X98975502Y-55928820D01*
X98916537Y-55818506D01*
X98837185Y-55721815D01*
X98740494Y-55642463D01*
X98630180Y-55583498D01*
X98510482Y-55547188D01*
X98386000Y-55534928D01*
X98296000Y-55534928D01*
X98296000Y-54012322D01*
X98299676Y-53974999D01*
X98296000Y-53937676D01*
X98296000Y-53937667D01*
X98285003Y-53826014D01*
X98241546Y-53682753D01*
X98170974Y-53550724D01*
X98076001Y-53434999D01*
X98046997Y-53411196D01*
X97718804Y-53083003D01*
X97695001Y-53053999D01*
X97579276Y-52959026D01*
X97447247Y-52888454D01*
X97303986Y-52844997D01*
X97192333Y-52834000D01*
X97192322Y-52834000D01*
X97155000Y-52830324D01*
X97117678Y-52834000D01*
X89476711Y-52834000D01*
X89432774Y-52790063D01*
X89263256Y-52676795D01*
X89074898Y-52598774D01*
X88874939Y-52559000D01*
X88671061Y-52559000D01*
X88471102Y-52598774D01*
X88282744Y-52676795D01*
X88113226Y-52790063D01*
X88069289Y-52834000D01*
X81317322Y-52834000D01*
X81279999Y-52830324D01*
X81242676Y-52834000D01*
X81242667Y-52834000D01*
X81131014Y-52844997D01*
X80987753Y-52888454D01*
X80855724Y-52959026D01*
X80739999Y-53053999D01*
X80716196Y-53083003D01*
X80388003Y-53411196D01*
X80358999Y-53434999D01*
X80312170Y-53492061D01*
X80264026Y-53550724D01*
X80210719Y-53650454D01*
X80193454Y-53682754D01*
X80149997Y-53826015D01*
X80139000Y-53937668D01*
X80139000Y-53937678D01*
X80135324Y-53975000D01*
X80139000Y-54012323D01*
X80139001Y-57669645D01*
X79984939Y-57639000D01*
X79781061Y-57639000D01*
X79581102Y-57678774D01*
X79392744Y-57756795D01*
X79223226Y-57870063D01*
X79079063Y-58014226D01*
X78965795Y-58183744D01*
X78887774Y-58372102D01*
X78848000Y-58572061D01*
X75838000Y-58572061D01*
X75798226Y-58372102D01*
X75720205Y-58183744D01*
X75606937Y-58014226D01*
X75563000Y-57970289D01*
X75563000Y-49186333D01*
X75566677Y-49149000D01*
X75552003Y-49000014D01*
X75508546Y-48856753D01*
X75437974Y-48724724D01*
X75366799Y-48637997D01*
X75343001Y-48608999D01*
X75314004Y-48585202D01*
X75140863Y-48412061D01*
X78848000Y-48412061D01*
X78848000Y-48615939D01*
X78887774Y-48815898D01*
X78965795Y-49004256D01*
X79079063Y-49173774D01*
X79223226Y-49317937D01*
X79392744Y-49431205D01*
X79581102Y-49509226D01*
X79781061Y-49549000D01*
X79984939Y-49549000D01*
X80184898Y-49509226D01*
X80373256Y-49431205D01*
X80542774Y-49317937D01*
X80586711Y-49274000D01*
X96047928Y-49274000D01*
X96047928Y-49364000D01*
X96060188Y-49488482D01*
X96096498Y-49608180D01*
X96155463Y-49718494D01*
X96234815Y-49815185D01*
X96331506Y-49894537D01*
X96441820Y-49953502D01*
X96561518Y-49989812D01*
X96686000Y-50002072D01*
X98386000Y-50002072D01*
X98510482Y-49989812D01*
X98630180Y-49953502D01*
X98740494Y-49894537D01*
X98837185Y-49815185D01*
X98916537Y-49718494D01*
X98975502Y-49608180D01*
X99011812Y-49488482D01*
X99024072Y-49364000D01*
X99024072Y-47664000D01*
X99011812Y-47539518D01*
X98975502Y-47419820D01*
X98916537Y-47309506D01*
X98837185Y-47212815D01*
X98740494Y-47133463D01*
X98630180Y-47074498D01*
X98510482Y-47038188D01*
X98386000Y-47025928D01*
X96686000Y-47025928D01*
X96561518Y-47038188D01*
X96441820Y-47074498D01*
X96331506Y-47133463D01*
X96234815Y-47212815D01*
X96155463Y-47309506D01*
X96096498Y-47419820D01*
X96060188Y-47539518D01*
X96047928Y-47664000D01*
X96047928Y-47754000D01*
X80586711Y-47754000D01*
X80542774Y-47710063D01*
X80373256Y-47596795D01*
X80184898Y-47518774D01*
X79984939Y-47479000D01*
X79781061Y-47479000D01*
X79581102Y-47518774D01*
X79392744Y-47596795D01*
X79223226Y-47710063D01*
X79079063Y-47854226D01*
X78965795Y-48023744D01*
X78887774Y-48212102D01*
X78848000Y-48412061D01*
X75140863Y-48412061D01*
X74731803Y-48003002D01*
X74708001Y-47973999D01*
X74592276Y-47879026D01*
X74460247Y-47808454D01*
X74316986Y-47764997D01*
X74205333Y-47754000D01*
X74205322Y-47754000D01*
X74168000Y-47750324D01*
X74130678Y-47754000D01*
X59504711Y-47754000D01*
X59460774Y-47710063D01*
X59291256Y-47596795D01*
X59102898Y-47518774D01*
X58902939Y-47479000D01*
X58699061Y-47479000D01*
X58499102Y-47518774D01*
X58310744Y-47596795D01*
X58141226Y-47710063D01*
X57997063Y-47854226D01*
X57883795Y-48023744D01*
X57805774Y-48212102D01*
X57766000Y-48412061D01*
X51524700Y-48412061D01*
X51513812Y-48301518D01*
X51477502Y-48181820D01*
X51418537Y-48071506D01*
X51339185Y-47974815D01*
X51242494Y-47895463D01*
X51132180Y-47836498D01*
X51012482Y-47800188D01*
X50888000Y-47787928D01*
X49188000Y-47787928D01*
X49063518Y-47800188D01*
X48943820Y-47836498D01*
X48833506Y-47895463D01*
X48736815Y-47974815D01*
X48657463Y-48071506D01*
X48598498Y-48181820D01*
X48562188Y-48301518D01*
X48549928Y-48426000D01*
X48006000Y-48426000D01*
X48006000Y-45085000D01*
X100076000Y-45085000D01*
X100076000Y-66167000D01*
%TD*%
M02*
