%TF.GenerationSoftware,KiCad,Pcbnew,5.1.6*%
%TF.CreationDate,2020-09-24T12:30:59+09:00*%
%TF.ProjectId,circuit-2,63697263-7569-4742-9d32-2e6b69636164,rev?*%
%TF.SameCoordinates,Original*%
%TF.FileFunction,Copper,L1,Top*%
%TF.FilePolarity,Positive*%
%FSLAX46Y46*%
G04 Gerber Fmt 4.6, Leading zero omitted, Abs format (unit mm)*
G04 Created by KiCad (PCBNEW 5.1.6) date 2020-09-24 12:30:59*
%MOMM*%
%LPD*%
G01*
G04 APERTURE LIST*
%TA.AperFunction,ComponentPad*%
%ADD10R,1.700000X1.700000*%
%TD*%
%TA.AperFunction,SMDPad,CuDef*%
%ADD11R,3.810000X1.000000*%
%TD*%
%TA.AperFunction,ViaPad*%
%ADD12C,0.800000*%
%TD*%
%TA.AperFunction,Conductor*%
%ADD13C,0.250000*%
%TD*%
%TA.AperFunction,Conductor*%
%ADD14C,0.254000*%
%TD*%
G04 APERTURE END LIST*
D10*
%TO.P,Q0,1*%
%TO.N,Net-(J3-Pad1)*%
X97536000Y-57023000D03*
%TD*%
%TO.P,Q1,1*%
%TO.N,Net-(J4-Pad1)*%
X97536000Y-62992000D03*
%TD*%
D11*
%TO.P,74LS73,1*%
%TO.N,CK*%
X77343000Y-48564800D03*
%TO.P,74LS73,2*%
%TO.N,Net-(U1-Pad2)*%
X77343000Y-51054000D03*
%TO.P,74LS73,3*%
%TO.N,VCC*%
X77343000Y-53594000D03*
%TO.P,74LS73,4*%
X77343000Y-56134000D03*
%TO.P,74LS73,5*%
%TO.N,Net-(J3-Pad1)*%
X77343000Y-58674000D03*
%TO.P,74LS73,6*%
%TO.N,Net-(U1-Pad2)*%
X77343000Y-61214000D03*
%TO.P,74LS73,7*%
%TO.N,VCC*%
X77343000Y-63754000D03*
%TO.P,74LS73,14*%
X91313000Y-48564800D03*
%TO.P,74LS73,13*%
%TO.N,Net-(U1-Pad13)*%
X91313000Y-51054000D03*
%TO.P,74LS73,8*%
%TO.N,Net-(U1-Pad8)*%
X91313000Y-63754000D03*
%TO.P,74LS73,10*%
%TO.N,VCC*%
X91313000Y-58674000D03*
%TO.P,74LS73,9*%
%TO.N,Net-(J4-Pad1)*%
X91313000Y-61214000D03*
%TO.P,74LS73,11*%
%TO.N,GND*%
X91313000Y-56134000D03*
%TO.P,74LS73,12*%
%TO.N,Net-(J3-Pad1)*%
X91313000Y-53594000D03*
%TD*%
%TO.P,74LS00,12*%
%TO.N,N/C*%
X70231000Y-53594000D03*
%TO.P,74LS00,11*%
X70231000Y-56134000D03*
%TO.P,74LS00,9*%
X70231000Y-61214000D03*
%TO.P,74LS00,10*%
X70231000Y-58674000D03*
%TO.P,74LS00,8*%
X70231000Y-63754000D03*
%TO.P,74LS00,13*%
X70231000Y-51054000D03*
%TO.P,74LS00,14*%
%TO.N,VCC*%
X70231000Y-48564800D03*
%TO.P,74LS00,7*%
%TO.N,GND*%
X56261000Y-63754000D03*
%TO.P,74LS00,6*%
%TO.N,N/C*%
X56261000Y-61214000D03*
%TO.P,74LS00,5*%
X56261000Y-58674000D03*
%TO.P,74LS00,4*%
X56261000Y-56134000D03*
%TO.P,74LS00,3*%
%TO.N,Net-(U1-Pad2)*%
X56261000Y-53594000D03*
%TO.P,74LS00,2*%
%TO.N,Net-(J4-Pad1)*%
X56261000Y-51054000D03*
%TO.P,74LS00,1*%
%TO.N,Net-(J3-Pad1)*%
X56261000Y-48564800D03*
%TD*%
D10*
%TO.P,Vcc,1*%
%TO.N,VCC*%
X50038000Y-49276000D03*
%TD*%
%TO.P,Clock,1*%
%TO.N,CK*%
X97536000Y-48514000D03*
%TD*%
%TO.P,GND,1*%
%TO.N,GND*%
X50038000Y-51816000D03*
%TD*%
D12*
%TO.N,GND*%
X48768000Y-65405000D03*
X88773000Y-56134000D03*
%TO.N,CK*%
X79883000Y-48514000D03*
%TO.N,Net-(J3-Pad1)*%
X88773000Y-53594000D03*
X79883000Y-58674000D03*
X74803000Y-58674000D03*
X58801000Y-48514000D03*
%TO.N,Net-(J4-Pad1)*%
X58801000Y-51054000D03*
X88773000Y-61214000D03*
%TO.N,Net-(U1-Pad2)*%
X74803000Y-62738000D03*
X58801000Y-53594000D03*
%TD*%
D13*
%TO.N,VCC*%
X50038000Y-49276000D02*
X50038000Y-46990000D01*
X50038000Y-46990000D02*
X50927000Y-46101000D01*
X50927000Y-46101000D02*
X69469000Y-46101000D01*
X70231000Y-46863000D02*
X70231000Y-48564800D01*
X69469000Y-46101000D02*
X70231000Y-46863000D01*
X90678000Y-46101000D02*
X91313000Y-46736000D01*
X69469000Y-46101000D02*
X73914000Y-46101000D01*
X74803000Y-53594000D02*
X77343000Y-53594000D01*
X73914000Y-52705000D02*
X74803000Y-53594000D01*
X73914000Y-52705000D02*
X73914000Y-55245000D01*
X74803000Y-56134000D02*
X77343000Y-56134000D01*
X73914000Y-55245000D02*
X74803000Y-56134000D01*
X73914000Y-46101000D02*
X87122000Y-46101000D01*
X87122000Y-46101000D02*
X90678000Y-46101000D01*
X88265000Y-58674000D02*
X91313000Y-58674000D01*
%TO.N,GND*%
X50800000Y-63754000D02*
X56261000Y-63754000D01*
X50038000Y-62992000D02*
X50800000Y-63754000D01*
X91313000Y-56134000D02*
X88773000Y-56134000D01*
%TO.N,CK*%
X77393800Y-48514000D02*
X77343000Y-48564800D01*
X79883000Y-48514000D02*
X77393800Y-48514000D01*
%TO.N,Net-(J3-Pad1)*%
X91313000Y-53594000D02*
X88773000Y-53594000D01*
X79883000Y-58674000D02*
X77343000Y-58674000D01*
X74803000Y-58674000D02*
X77343000Y-58674000D01*
X58750200Y-48564800D02*
X58801000Y-48514000D01*
X56261000Y-48564800D02*
X58750200Y-48564800D01*
%TO.N,Net-(J4-Pad1)*%
X56261000Y-51054000D02*
X58801000Y-51054000D01*
X88773000Y-61214000D02*
X91313000Y-61214000D01*
%TO.N,Net-(U1-Pad2)*%
X77343000Y-51054000D02*
X81153000Y-51054000D01*
X81153000Y-51054000D02*
X82042000Y-51943000D01*
X82042000Y-51943000D02*
X82042000Y-60452000D01*
X81280000Y-61214000D02*
X77343000Y-61214000D01*
X82042000Y-60452000D02*
X81280000Y-61214000D01*
X77343000Y-61214000D02*
X75057000Y-61214000D01*
X74803000Y-61468000D02*
X74803000Y-62738000D01*
X75057000Y-61214000D02*
X74803000Y-61468000D01*
X56261000Y-53594000D02*
X58801000Y-53594000D01*
%TD*%
D14*
%TO.N,GND*%
G36*
X48553000Y-51530250D02*
G01*
X48711750Y-51689000D01*
X49911000Y-51689000D01*
X49911000Y-51669000D01*
X50165000Y-51669000D01*
X50165000Y-51689000D01*
X51364250Y-51689000D01*
X51523000Y-51530250D01*
X51524210Y-51308000D01*
X53717928Y-51308000D01*
X53717928Y-51554000D01*
X53730188Y-51678482D01*
X53766498Y-51798180D01*
X53825463Y-51908494D01*
X53904815Y-52005185D01*
X54001506Y-52084537D01*
X54111820Y-52143502D01*
X54231518Y-52179812D01*
X54356000Y-52192072D01*
X58039000Y-52192072D01*
X58039000Y-52455928D01*
X54356000Y-52455928D01*
X54231518Y-52468188D01*
X54111820Y-52504498D01*
X54001506Y-52563463D01*
X53904815Y-52642815D01*
X53825463Y-52739506D01*
X53766498Y-52849820D01*
X53730188Y-52969518D01*
X53717928Y-53094000D01*
X53717928Y-54094000D01*
X53730188Y-54218482D01*
X53766498Y-54338180D01*
X53825463Y-54448494D01*
X53904815Y-54545185D01*
X54001506Y-54624537D01*
X54111820Y-54683502D01*
X54231518Y-54719812D01*
X54356000Y-54732072D01*
X58039000Y-54732072D01*
X58039000Y-54995928D01*
X54356000Y-54995928D01*
X54231518Y-55008188D01*
X54111820Y-55044498D01*
X54001506Y-55103463D01*
X53904815Y-55182815D01*
X53825463Y-55279506D01*
X53766498Y-55389820D01*
X53730188Y-55509518D01*
X53717928Y-55634000D01*
X53717928Y-56634000D01*
X53730188Y-56758482D01*
X53766498Y-56878180D01*
X53825463Y-56988494D01*
X53904815Y-57085185D01*
X54001506Y-57164537D01*
X54111820Y-57223502D01*
X54231518Y-57259812D01*
X54356000Y-57272072D01*
X58039000Y-57272072D01*
X58039000Y-57535928D01*
X54356000Y-57535928D01*
X54231518Y-57548188D01*
X54111820Y-57584498D01*
X54001506Y-57643463D01*
X53904815Y-57722815D01*
X53825463Y-57819506D01*
X53766498Y-57929820D01*
X53730188Y-58049518D01*
X53717928Y-58174000D01*
X53717928Y-59174000D01*
X53730188Y-59298482D01*
X53766498Y-59418180D01*
X53825463Y-59528494D01*
X53904815Y-59625185D01*
X54001506Y-59704537D01*
X54111820Y-59763502D01*
X54231518Y-59799812D01*
X54356000Y-59812072D01*
X58039000Y-59812072D01*
X58039000Y-60075928D01*
X54356000Y-60075928D01*
X54231518Y-60088188D01*
X54111820Y-60124498D01*
X54001506Y-60183463D01*
X53904815Y-60262815D01*
X53825463Y-60359506D01*
X53766498Y-60469820D01*
X53730188Y-60589518D01*
X53717928Y-60714000D01*
X53717928Y-61714000D01*
X53730188Y-61838482D01*
X53766498Y-61958180D01*
X53825463Y-62068494D01*
X53904815Y-62165185D01*
X54001506Y-62244537D01*
X54111820Y-62303502D01*
X54231518Y-62339812D01*
X54356000Y-62352072D01*
X58039000Y-62352072D01*
X58039000Y-62616169D01*
X56546750Y-62619000D01*
X56388000Y-62777750D01*
X56388000Y-63627000D01*
X56408000Y-63627000D01*
X56408000Y-63881000D01*
X56388000Y-63881000D01*
X56388000Y-64730250D01*
X56546750Y-64889000D01*
X58039000Y-64891831D01*
X58039000Y-66167000D01*
X48006000Y-66167000D01*
X48006000Y-64254000D01*
X53717928Y-64254000D01*
X53730188Y-64378482D01*
X53766498Y-64498180D01*
X53825463Y-64608494D01*
X53904815Y-64705185D01*
X54001506Y-64784537D01*
X54111820Y-64843502D01*
X54231518Y-64879812D01*
X54356000Y-64892072D01*
X55975250Y-64889000D01*
X56134000Y-64730250D01*
X56134000Y-63881000D01*
X53879750Y-63881000D01*
X53721000Y-64039750D01*
X53717928Y-64254000D01*
X48006000Y-64254000D01*
X48006000Y-63254000D01*
X53717928Y-63254000D01*
X53721000Y-63468250D01*
X53879750Y-63627000D01*
X56134000Y-63627000D01*
X56134000Y-62777750D01*
X55975250Y-62619000D01*
X54356000Y-62615928D01*
X54231518Y-62628188D01*
X54111820Y-62664498D01*
X54001506Y-62723463D01*
X53904815Y-62802815D01*
X53825463Y-62899506D01*
X53766498Y-63009820D01*
X53730188Y-63129518D01*
X53717928Y-63254000D01*
X48006000Y-63254000D01*
X48006000Y-52666000D01*
X48549928Y-52666000D01*
X48562188Y-52790482D01*
X48598498Y-52910180D01*
X48657463Y-53020494D01*
X48736815Y-53117185D01*
X48833506Y-53196537D01*
X48943820Y-53255502D01*
X49063518Y-53291812D01*
X49188000Y-53304072D01*
X49752250Y-53301000D01*
X49911000Y-53142250D01*
X49911000Y-51943000D01*
X50165000Y-51943000D01*
X50165000Y-53142250D01*
X50323750Y-53301000D01*
X50888000Y-53304072D01*
X51012482Y-53291812D01*
X51132180Y-53255502D01*
X51242494Y-53196537D01*
X51339185Y-53117185D01*
X51418537Y-53020494D01*
X51477502Y-52910180D01*
X51513812Y-52790482D01*
X51526072Y-52666000D01*
X51523000Y-52101750D01*
X51364250Y-51943000D01*
X50165000Y-51943000D01*
X49911000Y-51943000D01*
X48711750Y-51943000D01*
X48553000Y-52101750D01*
X48549928Y-52666000D01*
X48006000Y-52666000D01*
X48006000Y-51308000D01*
X48551790Y-51308000D01*
X48553000Y-51530250D01*
G37*
X48553000Y-51530250D02*
X48711750Y-51689000D01*
X49911000Y-51689000D01*
X49911000Y-51669000D01*
X50165000Y-51669000D01*
X50165000Y-51689000D01*
X51364250Y-51689000D01*
X51523000Y-51530250D01*
X51524210Y-51308000D01*
X53717928Y-51308000D01*
X53717928Y-51554000D01*
X53730188Y-51678482D01*
X53766498Y-51798180D01*
X53825463Y-51908494D01*
X53904815Y-52005185D01*
X54001506Y-52084537D01*
X54111820Y-52143502D01*
X54231518Y-52179812D01*
X54356000Y-52192072D01*
X58039000Y-52192072D01*
X58039000Y-52455928D01*
X54356000Y-52455928D01*
X54231518Y-52468188D01*
X54111820Y-52504498D01*
X54001506Y-52563463D01*
X53904815Y-52642815D01*
X53825463Y-52739506D01*
X53766498Y-52849820D01*
X53730188Y-52969518D01*
X53717928Y-53094000D01*
X53717928Y-54094000D01*
X53730188Y-54218482D01*
X53766498Y-54338180D01*
X53825463Y-54448494D01*
X53904815Y-54545185D01*
X54001506Y-54624537D01*
X54111820Y-54683502D01*
X54231518Y-54719812D01*
X54356000Y-54732072D01*
X58039000Y-54732072D01*
X58039000Y-54995928D01*
X54356000Y-54995928D01*
X54231518Y-55008188D01*
X54111820Y-55044498D01*
X54001506Y-55103463D01*
X53904815Y-55182815D01*
X53825463Y-55279506D01*
X53766498Y-55389820D01*
X53730188Y-55509518D01*
X53717928Y-55634000D01*
X53717928Y-56634000D01*
X53730188Y-56758482D01*
X53766498Y-56878180D01*
X53825463Y-56988494D01*
X53904815Y-57085185D01*
X54001506Y-57164537D01*
X54111820Y-57223502D01*
X54231518Y-57259812D01*
X54356000Y-57272072D01*
X58039000Y-57272072D01*
X58039000Y-57535928D01*
X54356000Y-57535928D01*
X54231518Y-57548188D01*
X54111820Y-57584498D01*
X54001506Y-57643463D01*
X53904815Y-57722815D01*
X53825463Y-57819506D01*
X53766498Y-57929820D01*
X53730188Y-58049518D01*
X53717928Y-58174000D01*
X53717928Y-59174000D01*
X53730188Y-59298482D01*
X53766498Y-59418180D01*
X53825463Y-59528494D01*
X53904815Y-59625185D01*
X54001506Y-59704537D01*
X54111820Y-59763502D01*
X54231518Y-59799812D01*
X54356000Y-59812072D01*
X58039000Y-59812072D01*
X58039000Y-60075928D01*
X54356000Y-60075928D01*
X54231518Y-60088188D01*
X54111820Y-60124498D01*
X54001506Y-60183463D01*
X53904815Y-60262815D01*
X53825463Y-60359506D01*
X53766498Y-60469820D01*
X53730188Y-60589518D01*
X53717928Y-60714000D01*
X53717928Y-61714000D01*
X53730188Y-61838482D01*
X53766498Y-61958180D01*
X53825463Y-62068494D01*
X53904815Y-62165185D01*
X54001506Y-62244537D01*
X54111820Y-62303502D01*
X54231518Y-62339812D01*
X54356000Y-62352072D01*
X58039000Y-62352072D01*
X58039000Y-62616169D01*
X56546750Y-62619000D01*
X56388000Y-62777750D01*
X56388000Y-63627000D01*
X56408000Y-63627000D01*
X56408000Y-63881000D01*
X56388000Y-63881000D01*
X56388000Y-64730250D01*
X56546750Y-64889000D01*
X58039000Y-64891831D01*
X58039000Y-66167000D01*
X48006000Y-66167000D01*
X48006000Y-64254000D01*
X53717928Y-64254000D01*
X53730188Y-64378482D01*
X53766498Y-64498180D01*
X53825463Y-64608494D01*
X53904815Y-64705185D01*
X54001506Y-64784537D01*
X54111820Y-64843502D01*
X54231518Y-64879812D01*
X54356000Y-64892072D01*
X55975250Y-64889000D01*
X56134000Y-64730250D01*
X56134000Y-63881000D01*
X53879750Y-63881000D01*
X53721000Y-64039750D01*
X53717928Y-64254000D01*
X48006000Y-64254000D01*
X48006000Y-63254000D01*
X53717928Y-63254000D01*
X53721000Y-63468250D01*
X53879750Y-63627000D01*
X56134000Y-63627000D01*
X56134000Y-62777750D01*
X55975250Y-62619000D01*
X54356000Y-62615928D01*
X54231518Y-62628188D01*
X54111820Y-62664498D01*
X54001506Y-62723463D01*
X53904815Y-62802815D01*
X53825463Y-62899506D01*
X53766498Y-63009820D01*
X53730188Y-63129518D01*
X53717928Y-63254000D01*
X48006000Y-63254000D01*
X48006000Y-52666000D01*
X48549928Y-52666000D01*
X48562188Y-52790482D01*
X48598498Y-52910180D01*
X48657463Y-53020494D01*
X48736815Y-53117185D01*
X48833506Y-53196537D01*
X48943820Y-53255502D01*
X49063518Y-53291812D01*
X49188000Y-53304072D01*
X49752250Y-53301000D01*
X49911000Y-53142250D01*
X49911000Y-51943000D01*
X50165000Y-51943000D01*
X50165000Y-53142250D01*
X50323750Y-53301000D01*
X50888000Y-53304072D01*
X51012482Y-53291812D01*
X51132180Y-53255502D01*
X51242494Y-53196537D01*
X51339185Y-53117185D01*
X51418537Y-53020494D01*
X51477502Y-52910180D01*
X51513812Y-52790482D01*
X51526072Y-52666000D01*
X51523000Y-52101750D01*
X51364250Y-51943000D01*
X50165000Y-51943000D01*
X49911000Y-51943000D01*
X48711750Y-51943000D01*
X48553000Y-52101750D01*
X48549928Y-52666000D01*
X48006000Y-52666000D01*
X48006000Y-51308000D01*
X48551790Y-51308000D01*
X48553000Y-51530250D01*
%TO.N,VCC*%
G36*
X100083843Y-66167000D02*
G01*
X58801000Y-66167000D01*
X58801000Y-64285192D01*
X58804072Y-64254000D01*
X58804072Y-63254000D01*
X67687928Y-63254000D01*
X67687928Y-64254000D01*
X67700188Y-64378482D01*
X67736498Y-64498180D01*
X67795463Y-64608494D01*
X67874815Y-64705185D01*
X67971506Y-64784537D01*
X68081820Y-64843502D01*
X68201518Y-64879812D01*
X68326000Y-64892072D01*
X72136000Y-64892072D01*
X72260482Y-64879812D01*
X72380180Y-64843502D01*
X72490494Y-64784537D01*
X72587185Y-64705185D01*
X72666537Y-64608494D01*
X72725502Y-64498180D01*
X72761812Y-64378482D01*
X72774072Y-64254000D01*
X72774072Y-63254000D01*
X72761812Y-63129518D01*
X72725502Y-63009820D01*
X72666537Y-62899506D01*
X72587185Y-62802815D01*
X72490494Y-62723463D01*
X72380180Y-62664498D01*
X72286436Y-62636061D01*
X73768000Y-62636061D01*
X73768000Y-62839939D01*
X73807774Y-63039898D01*
X73885795Y-63228256D01*
X73999063Y-63397774D01*
X74143226Y-63541937D01*
X74312744Y-63655205D01*
X74501102Y-63733226D01*
X74701061Y-63773000D01*
X74803000Y-63773000D01*
X74803000Y-63881002D01*
X74961748Y-63881002D01*
X74803000Y-64039750D01*
X74799928Y-64254000D01*
X74812188Y-64378482D01*
X74848498Y-64498180D01*
X74907463Y-64608494D01*
X74986815Y-64705185D01*
X75083506Y-64784537D01*
X75193820Y-64843502D01*
X75313518Y-64879812D01*
X75438000Y-64892072D01*
X77057250Y-64889000D01*
X77216000Y-64730250D01*
X77216000Y-63881000D01*
X77470000Y-63881000D01*
X77470000Y-64730250D01*
X77628750Y-64889000D01*
X79248000Y-64892072D01*
X79372482Y-64879812D01*
X79492180Y-64843502D01*
X79602494Y-64784537D01*
X79699185Y-64705185D01*
X79778537Y-64608494D01*
X79837502Y-64498180D01*
X79873812Y-64378482D01*
X79886072Y-64254000D01*
X79883000Y-64039750D01*
X79724250Y-63881000D01*
X77470000Y-63881000D01*
X77216000Y-63881000D01*
X77196000Y-63881000D01*
X77196000Y-63627000D01*
X77216000Y-63627000D01*
X77216000Y-62777750D01*
X77470000Y-62777750D01*
X77470000Y-63627000D01*
X79724250Y-63627000D01*
X79883000Y-63468250D01*
X79886072Y-63254000D01*
X88769928Y-63254000D01*
X88769928Y-64254000D01*
X88782188Y-64378482D01*
X88818498Y-64498180D01*
X88877463Y-64608494D01*
X88956815Y-64705185D01*
X89053506Y-64784537D01*
X89163820Y-64843502D01*
X89283518Y-64879812D01*
X89408000Y-64892072D01*
X93218000Y-64892072D01*
X93342482Y-64879812D01*
X93462180Y-64843502D01*
X93572494Y-64784537D01*
X93669185Y-64705185D01*
X93748537Y-64608494D01*
X93807502Y-64498180D01*
X93843812Y-64378482D01*
X93856072Y-64254000D01*
X93856072Y-63254000D01*
X93843812Y-63129518D01*
X93807502Y-63009820D01*
X93748537Y-62899506D01*
X93669185Y-62802815D01*
X93572494Y-62723463D01*
X93462180Y-62664498D01*
X93342482Y-62628188D01*
X93218000Y-62615928D01*
X89408000Y-62615928D01*
X89283518Y-62628188D01*
X89163820Y-62664498D01*
X89053506Y-62723463D01*
X88956815Y-62802815D01*
X88877463Y-62899506D01*
X88818498Y-63009820D01*
X88782188Y-63129518D01*
X88769928Y-63254000D01*
X79886072Y-63254000D01*
X79873812Y-63129518D01*
X79837502Y-63009820D01*
X79778537Y-62899506D01*
X79699185Y-62802815D01*
X79602494Y-62723463D01*
X79492180Y-62664498D01*
X79372482Y-62628188D01*
X79248000Y-62615928D01*
X77628750Y-62619000D01*
X77470000Y-62777750D01*
X77216000Y-62777750D01*
X77057250Y-62619000D01*
X75834145Y-62616680D01*
X75798226Y-62436102D01*
X75763419Y-62352072D01*
X79248000Y-62352072D01*
X79372482Y-62339812D01*
X79492180Y-62303502D01*
X79602494Y-62244537D01*
X79699185Y-62165185D01*
X79778537Y-62068494D01*
X79829046Y-61974000D01*
X81242678Y-61974000D01*
X81280000Y-61977676D01*
X81317322Y-61974000D01*
X81317333Y-61974000D01*
X81428986Y-61963003D01*
X81572247Y-61919546D01*
X81704276Y-61848974D01*
X81820001Y-61754001D01*
X81843803Y-61724998D01*
X82456740Y-61112061D01*
X87738000Y-61112061D01*
X87738000Y-61315939D01*
X87777774Y-61515898D01*
X87855795Y-61704256D01*
X87969063Y-61873774D01*
X88113226Y-62017937D01*
X88282744Y-62131205D01*
X88471102Y-62209226D01*
X88671061Y-62249000D01*
X88874939Y-62249000D01*
X89023047Y-62219540D01*
X89053506Y-62244537D01*
X89163820Y-62303502D01*
X89283518Y-62339812D01*
X89408000Y-62352072D01*
X93218000Y-62352072D01*
X93342482Y-62339812D01*
X93462180Y-62303502D01*
X93572494Y-62244537D01*
X93669185Y-62165185D01*
X93688212Y-62142000D01*
X96047928Y-62142000D01*
X96047928Y-63842000D01*
X96060188Y-63966482D01*
X96096498Y-64086180D01*
X96155463Y-64196494D01*
X96234815Y-64293185D01*
X96331506Y-64372537D01*
X96441820Y-64431502D01*
X96561518Y-64467812D01*
X96686000Y-64480072D01*
X98386000Y-64480072D01*
X98510482Y-64467812D01*
X98630180Y-64431502D01*
X98740494Y-64372537D01*
X98837185Y-64293185D01*
X98916537Y-64196494D01*
X98975502Y-64086180D01*
X99011812Y-63966482D01*
X99024072Y-63842000D01*
X99024072Y-62142000D01*
X99011812Y-62017518D01*
X98975502Y-61897820D01*
X98916537Y-61787506D01*
X98837185Y-61690815D01*
X98740494Y-61611463D01*
X98630180Y-61552498D01*
X98510482Y-61516188D01*
X98386000Y-61503928D01*
X96686000Y-61503928D01*
X96561518Y-61516188D01*
X96441820Y-61552498D01*
X96331506Y-61611463D01*
X96234815Y-61690815D01*
X96155463Y-61787506D01*
X96096498Y-61897820D01*
X96060188Y-62017518D01*
X96047928Y-62142000D01*
X93688212Y-62142000D01*
X93748537Y-62068494D01*
X93807502Y-61958180D01*
X93843812Y-61838482D01*
X93856072Y-61714000D01*
X93856072Y-60714000D01*
X93843812Y-60589518D01*
X93807502Y-60469820D01*
X93748537Y-60359506D01*
X93669185Y-60262815D01*
X93572494Y-60183463D01*
X93462180Y-60124498D01*
X93342482Y-60088188D01*
X93218000Y-60075928D01*
X89408000Y-60075928D01*
X89283518Y-60088188D01*
X89163820Y-60124498D01*
X89053506Y-60183463D01*
X89023047Y-60208460D01*
X88874939Y-60179000D01*
X88671061Y-60179000D01*
X88471102Y-60218774D01*
X88282744Y-60296795D01*
X88113226Y-60410063D01*
X87969063Y-60554226D01*
X87855795Y-60723744D01*
X87777774Y-60912102D01*
X87738000Y-61112061D01*
X82456740Y-61112061D01*
X82553002Y-61015799D01*
X82582001Y-60992001D01*
X82676974Y-60876276D01*
X82747546Y-60744247D01*
X82791003Y-60600986D01*
X82802000Y-60489333D01*
X82802000Y-60489325D01*
X82805676Y-60452000D01*
X82802000Y-60414675D01*
X82802000Y-59174000D01*
X88769928Y-59174000D01*
X88782188Y-59298482D01*
X88818498Y-59418180D01*
X88877463Y-59528494D01*
X88956815Y-59625185D01*
X89053506Y-59704537D01*
X89163820Y-59763502D01*
X89283518Y-59799812D01*
X89408000Y-59812072D01*
X91027250Y-59809000D01*
X91186000Y-59650250D01*
X91186000Y-58801000D01*
X91440000Y-58801000D01*
X91440000Y-59650250D01*
X91598750Y-59809000D01*
X93218000Y-59812072D01*
X93342482Y-59799812D01*
X93462180Y-59763502D01*
X93572494Y-59704537D01*
X93669185Y-59625185D01*
X93748537Y-59528494D01*
X93807502Y-59418180D01*
X93843812Y-59298482D01*
X93856072Y-59174000D01*
X93853000Y-58959750D01*
X93694250Y-58801000D01*
X91440000Y-58801000D01*
X91186000Y-58801000D01*
X88931750Y-58801000D01*
X88773000Y-58959750D01*
X88769928Y-59174000D01*
X82802000Y-59174000D01*
X82802000Y-58174000D01*
X88769928Y-58174000D01*
X88773000Y-58388250D01*
X88931750Y-58547000D01*
X91186000Y-58547000D01*
X91186000Y-57697750D01*
X91440000Y-57697750D01*
X91440000Y-58547000D01*
X93694250Y-58547000D01*
X93853000Y-58388250D01*
X93856072Y-58174000D01*
X93843812Y-58049518D01*
X93807502Y-57929820D01*
X93748537Y-57819506D01*
X93669185Y-57722815D01*
X93572494Y-57643463D01*
X93462180Y-57584498D01*
X93342482Y-57548188D01*
X93218000Y-57535928D01*
X91598750Y-57539000D01*
X91440000Y-57697750D01*
X91186000Y-57697750D01*
X91027250Y-57539000D01*
X89408000Y-57535928D01*
X89283518Y-57548188D01*
X89163820Y-57584498D01*
X89053506Y-57643463D01*
X88956815Y-57722815D01*
X88877463Y-57819506D01*
X88818498Y-57929820D01*
X88782188Y-58049518D01*
X88769928Y-58174000D01*
X82802000Y-58174000D01*
X82802000Y-56032061D01*
X87738000Y-56032061D01*
X87738000Y-56235939D01*
X87777774Y-56435898D01*
X87855795Y-56624256D01*
X87969063Y-56793774D01*
X88113226Y-56937937D01*
X88282744Y-57051205D01*
X88471102Y-57129226D01*
X88671061Y-57169000D01*
X88874939Y-57169000D01*
X89023047Y-57139540D01*
X89053506Y-57164537D01*
X89163820Y-57223502D01*
X89283518Y-57259812D01*
X89408000Y-57272072D01*
X93218000Y-57272072D01*
X93342482Y-57259812D01*
X93462180Y-57223502D01*
X93572494Y-57164537D01*
X93669185Y-57085185D01*
X93748537Y-56988494D01*
X93807502Y-56878180D01*
X93843812Y-56758482D01*
X93856072Y-56634000D01*
X93856072Y-56173000D01*
X96047928Y-56173000D01*
X96047928Y-57873000D01*
X96060188Y-57997482D01*
X96096498Y-58117180D01*
X96155463Y-58227494D01*
X96234815Y-58324185D01*
X96331506Y-58403537D01*
X96441820Y-58462502D01*
X96561518Y-58498812D01*
X96686000Y-58511072D01*
X98386000Y-58511072D01*
X98510482Y-58498812D01*
X98630180Y-58462502D01*
X98740494Y-58403537D01*
X98837185Y-58324185D01*
X98916537Y-58227494D01*
X98975502Y-58117180D01*
X99011812Y-57997482D01*
X99024072Y-57873000D01*
X99024072Y-56173000D01*
X99011812Y-56048518D01*
X98975502Y-55928820D01*
X98916537Y-55818506D01*
X98837185Y-55721815D01*
X98740494Y-55642463D01*
X98630180Y-55583498D01*
X98510482Y-55547188D01*
X98386000Y-55534928D01*
X96686000Y-55534928D01*
X96561518Y-55547188D01*
X96441820Y-55583498D01*
X96331506Y-55642463D01*
X96234815Y-55721815D01*
X96155463Y-55818506D01*
X96096498Y-55928820D01*
X96060188Y-56048518D01*
X96047928Y-56173000D01*
X93856072Y-56173000D01*
X93856072Y-55634000D01*
X93843812Y-55509518D01*
X93807502Y-55389820D01*
X93748537Y-55279506D01*
X93669185Y-55182815D01*
X93572494Y-55103463D01*
X93462180Y-55044498D01*
X93342482Y-55008188D01*
X93218000Y-54995928D01*
X89408000Y-54995928D01*
X89283518Y-55008188D01*
X89163820Y-55044498D01*
X89053506Y-55103463D01*
X89023047Y-55128460D01*
X88874939Y-55099000D01*
X88671061Y-55099000D01*
X88471102Y-55138774D01*
X88282744Y-55216795D01*
X88113226Y-55330063D01*
X87969063Y-55474226D01*
X87855795Y-55643744D01*
X87777774Y-55832102D01*
X87738000Y-56032061D01*
X82802000Y-56032061D01*
X82802000Y-53492061D01*
X87738000Y-53492061D01*
X87738000Y-53695939D01*
X87777774Y-53895898D01*
X87855795Y-54084256D01*
X87969063Y-54253774D01*
X88113226Y-54397937D01*
X88282744Y-54511205D01*
X88471102Y-54589226D01*
X88671061Y-54629000D01*
X88874939Y-54629000D01*
X89023047Y-54599540D01*
X89053506Y-54624537D01*
X89163820Y-54683502D01*
X89283518Y-54719812D01*
X89408000Y-54732072D01*
X93218000Y-54732072D01*
X93342482Y-54719812D01*
X93462180Y-54683502D01*
X93572494Y-54624537D01*
X93669185Y-54545185D01*
X93748537Y-54448494D01*
X93807502Y-54338180D01*
X93843812Y-54218482D01*
X93856072Y-54094000D01*
X93856072Y-53094000D01*
X93843812Y-52969518D01*
X93807502Y-52849820D01*
X93748537Y-52739506D01*
X93669185Y-52642815D01*
X93572494Y-52563463D01*
X93462180Y-52504498D01*
X93342482Y-52468188D01*
X93218000Y-52455928D01*
X89408000Y-52455928D01*
X89283518Y-52468188D01*
X89163820Y-52504498D01*
X89053506Y-52563463D01*
X89023047Y-52588460D01*
X88874939Y-52559000D01*
X88671061Y-52559000D01*
X88471102Y-52598774D01*
X88282744Y-52676795D01*
X88113226Y-52790063D01*
X87969063Y-52934226D01*
X87855795Y-53103744D01*
X87777774Y-53292102D01*
X87738000Y-53492061D01*
X82802000Y-53492061D01*
X82802000Y-51980323D01*
X82805676Y-51943000D01*
X82802000Y-51905677D01*
X82802000Y-51905667D01*
X82791003Y-51794014D01*
X82747546Y-51650753D01*
X82676974Y-51518724D01*
X82582001Y-51402999D01*
X82553004Y-51379202D01*
X81727802Y-50554000D01*
X88769928Y-50554000D01*
X88769928Y-51554000D01*
X88782188Y-51678482D01*
X88818498Y-51798180D01*
X88877463Y-51908494D01*
X88956815Y-52005185D01*
X89053506Y-52084537D01*
X89163820Y-52143502D01*
X89283518Y-52179812D01*
X89408000Y-52192072D01*
X93218000Y-52192072D01*
X93342482Y-52179812D01*
X93462180Y-52143502D01*
X93572494Y-52084537D01*
X93669185Y-52005185D01*
X93748537Y-51908494D01*
X93807502Y-51798180D01*
X93843812Y-51678482D01*
X93856072Y-51554000D01*
X93856072Y-50554000D01*
X93843812Y-50429518D01*
X93807502Y-50309820D01*
X93748537Y-50199506D01*
X93669185Y-50102815D01*
X93572494Y-50023463D01*
X93462180Y-49964498D01*
X93342482Y-49928188D01*
X93218000Y-49915928D01*
X89408000Y-49915928D01*
X89283518Y-49928188D01*
X89163820Y-49964498D01*
X89053506Y-50023463D01*
X88956815Y-50102815D01*
X88877463Y-50199506D01*
X88818498Y-50309820D01*
X88782188Y-50429518D01*
X88769928Y-50554000D01*
X81727802Y-50554000D01*
X81716803Y-50543002D01*
X81693001Y-50513999D01*
X81577276Y-50419026D01*
X81445247Y-50348454D01*
X81301986Y-50304997D01*
X81190333Y-50294000D01*
X81190322Y-50294000D01*
X81153000Y-50290324D01*
X81115678Y-50294000D01*
X79829046Y-50294000D01*
X79778537Y-50199506D01*
X79699185Y-50102815D01*
X79602494Y-50023463D01*
X79492180Y-49964498D01*
X79372482Y-49928188D01*
X79248000Y-49915928D01*
X75438000Y-49915928D01*
X75313518Y-49928188D01*
X75193820Y-49964498D01*
X75083506Y-50023463D01*
X74986815Y-50102815D01*
X74907463Y-50199506D01*
X74848498Y-50309820D01*
X74812188Y-50429518D01*
X74799928Y-50554000D01*
X74799928Y-51554000D01*
X74812188Y-51678482D01*
X74848498Y-51798180D01*
X74907463Y-51908494D01*
X74986815Y-52005185D01*
X75083506Y-52084537D01*
X75193820Y-52143502D01*
X75313518Y-52179812D01*
X75438000Y-52192072D01*
X79248000Y-52192072D01*
X79372482Y-52179812D01*
X79492180Y-52143502D01*
X79602494Y-52084537D01*
X79699185Y-52005185D01*
X79778537Y-51908494D01*
X79829046Y-51814000D01*
X80838199Y-51814000D01*
X81282000Y-52257802D01*
X81282001Y-60137197D01*
X80965199Y-60454000D01*
X79829046Y-60454000D01*
X79778537Y-60359506D01*
X79699185Y-60262815D01*
X79602494Y-60183463D01*
X79492180Y-60124498D01*
X79372482Y-60088188D01*
X79248000Y-60075928D01*
X75438000Y-60075928D01*
X75313518Y-60088188D01*
X75193820Y-60124498D01*
X75083506Y-60183463D01*
X74986815Y-60262815D01*
X74907463Y-60359506D01*
X74848498Y-60469820D01*
X74844078Y-60484392D01*
X74764753Y-60508454D01*
X74632724Y-60579026D01*
X74516999Y-60673999D01*
X74493196Y-60703003D01*
X74292003Y-60904196D01*
X74262999Y-60927999D01*
X74210474Y-60992001D01*
X74168026Y-61043724D01*
X74097455Y-61175753D01*
X74097454Y-61175754D01*
X74053997Y-61319015D01*
X74043000Y-61430668D01*
X74043000Y-61430678D01*
X74039324Y-61468000D01*
X74043000Y-61505323D01*
X74043000Y-62034289D01*
X73999063Y-62078226D01*
X73885795Y-62247744D01*
X73807774Y-62436102D01*
X73768000Y-62636061D01*
X72286436Y-62636061D01*
X72260482Y-62628188D01*
X72136000Y-62615928D01*
X68326000Y-62615928D01*
X68201518Y-62628188D01*
X68081820Y-62664498D01*
X67971506Y-62723463D01*
X67874815Y-62802815D01*
X67795463Y-62899506D01*
X67736498Y-63009820D01*
X67700188Y-63129518D01*
X67687928Y-63254000D01*
X58804072Y-63254000D01*
X58801000Y-63222808D01*
X58801000Y-61745192D01*
X58804072Y-61714000D01*
X58804072Y-60714000D01*
X67687928Y-60714000D01*
X67687928Y-61714000D01*
X67700188Y-61838482D01*
X67736498Y-61958180D01*
X67795463Y-62068494D01*
X67874815Y-62165185D01*
X67971506Y-62244537D01*
X68081820Y-62303502D01*
X68201518Y-62339812D01*
X68326000Y-62352072D01*
X72136000Y-62352072D01*
X72260482Y-62339812D01*
X72380180Y-62303502D01*
X72490494Y-62244537D01*
X72587185Y-62165185D01*
X72666537Y-62068494D01*
X72725502Y-61958180D01*
X72761812Y-61838482D01*
X72774072Y-61714000D01*
X72774072Y-60714000D01*
X72761812Y-60589518D01*
X72725502Y-60469820D01*
X72666537Y-60359506D01*
X72587185Y-60262815D01*
X72490494Y-60183463D01*
X72380180Y-60124498D01*
X72260482Y-60088188D01*
X72136000Y-60075928D01*
X68326000Y-60075928D01*
X68201518Y-60088188D01*
X68081820Y-60124498D01*
X67971506Y-60183463D01*
X67874815Y-60262815D01*
X67795463Y-60359506D01*
X67736498Y-60469820D01*
X67700188Y-60589518D01*
X67687928Y-60714000D01*
X58804072Y-60714000D01*
X58801000Y-60682808D01*
X58801000Y-59205192D01*
X58804072Y-59174000D01*
X58804072Y-58174000D01*
X67687928Y-58174000D01*
X67687928Y-59174000D01*
X67700188Y-59298482D01*
X67736498Y-59418180D01*
X67795463Y-59528494D01*
X67874815Y-59625185D01*
X67971506Y-59704537D01*
X68081820Y-59763502D01*
X68201518Y-59799812D01*
X68326000Y-59812072D01*
X72136000Y-59812072D01*
X72260482Y-59799812D01*
X72380180Y-59763502D01*
X72490494Y-59704537D01*
X72587185Y-59625185D01*
X72666537Y-59528494D01*
X72725502Y-59418180D01*
X72761812Y-59298482D01*
X72774072Y-59174000D01*
X72774072Y-58572061D01*
X73768000Y-58572061D01*
X73768000Y-58775939D01*
X73807774Y-58975898D01*
X73885795Y-59164256D01*
X73999063Y-59333774D01*
X74143226Y-59477937D01*
X74312744Y-59591205D01*
X74501102Y-59669226D01*
X74701061Y-59709000D01*
X74904939Y-59709000D01*
X75053047Y-59679540D01*
X75083506Y-59704537D01*
X75193820Y-59763502D01*
X75313518Y-59799812D01*
X75438000Y-59812072D01*
X79248000Y-59812072D01*
X79372482Y-59799812D01*
X79492180Y-59763502D01*
X79602494Y-59704537D01*
X79632953Y-59679540D01*
X79781061Y-59709000D01*
X79984939Y-59709000D01*
X80184898Y-59669226D01*
X80373256Y-59591205D01*
X80542774Y-59477937D01*
X80686937Y-59333774D01*
X80800205Y-59164256D01*
X80878226Y-58975898D01*
X80918000Y-58775939D01*
X80918000Y-58572061D01*
X80878226Y-58372102D01*
X80800205Y-58183744D01*
X80686937Y-58014226D01*
X80542774Y-57870063D01*
X80373256Y-57756795D01*
X80184898Y-57678774D01*
X79984939Y-57639000D01*
X79781061Y-57639000D01*
X79632953Y-57668460D01*
X79602494Y-57643463D01*
X79492180Y-57584498D01*
X79372482Y-57548188D01*
X79248000Y-57535928D01*
X75438000Y-57535928D01*
X75313518Y-57548188D01*
X75193820Y-57584498D01*
X75083506Y-57643463D01*
X75053047Y-57668460D01*
X74904939Y-57639000D01*
X74701061Y-57639000D01*
X74501102Y-57678774D01*
X74312744Y-57756795D01*
X74143226Y-57870063D01*
X73999063Y-58014226D01*
X73885795Y-58183744D01*
X73807774Y-58372102D01*
X73768000Y-58572061D01*
X72774072Y-58572061D01*
X72774072Y-58174000D01*
X72761812Y-58049518D01*
X72725502Y-57929820D01*
X72666537Y-57819506D01*
X72587185Y-57722815D01*
X72490494Y-57643463D01*
X72380180Y-57584498D01*
X72260482Y-57548188D01*
X72136000Y-57535928D01*
X68326000Y-57535928D01*
X68201518Y-57548188D01*
X68081820Y-57584498D01*
X67971506Y-57643463D01*
X67874815Y-57722815D01*
X67795463Y-57819506D01*
X67736498Y-57929820D01*
X67700188Y-58049518D01*
X67687928Y-58174000D01*
X58804072Y-58174000D01*
X58801000Y-58142808D01*
X58801000Y-56665192D01*
X58804072Y-56634000D01*
X58804072Y-55634000D01*
X67687928Y-55634000D01*
X67687928Y-56634000D01*
X67700188Y-56758482D01*
X67736498Y-56878180D01*
X67795463Y-56988494D01*
X67874815Y-57085185D01*
X67971506Y-57164537D01*
X68081820Y-57223502D01*
X68201518Y-57259812D01*
X68326000Y-57272072D01*
X72136000Y-57272072D01*
X72260482Y-57259812D01*
X72380180Y-57223502D01*
X72490494Y-57164537D01*
X72587185Y-57085185D01*
X72666537Y-56988494D01*
X72725502Y-56878180D01*
X72761812Y-56758482D01*
X72774072Y-56634000D01*
X74799928Y-56634000D01*
X74812188Y-56758482D01*
X74848498Y-56878180D01*
X74907463Y-56988494D01*
X74986815Y-57085185D01*
X75083506Y-57164537D01*
X75193820Y-57223502D01*
X75313518Y-57259812D01*
X75438000Y-57272072D01*
X77057250Y-57269000D01*
X77216000Y-57110250D01*
X77216000Y-56261000D01*
X77470000Y-56261000D01*
X77470000Y-57110250D01*
X77628750Y-57269000D01*
X79248000Y-57272072D01*
X79372482Y-57259812D01*
X79492180Y-57223502D01*
X79602494Y-57164537D01*
X79699185Y-57085185D01*
X79778537Y-56988494D01*
X79837502Y-56878180D01*
X79873812Y-56758482D01*
X79886072Y-56634000D01*
X79883000Y-56419750D01*
X79724250Y-56261000D01*
X77470000Y-56261000D01*
X77216000Y-56261000D01*
X74961750Y-56261000D01*
X74803000Y-56419750D01*
X74799928Y-56634000D01*
X72774072Y-56634000D01*
X72774072Y-55634000D01*
X74799928Y-55634000D01*
X74803000Y-55848250D01*
X74961750Y-56007000D01*
X77216000Y-56007000D01*
X77216000Y-55157750D01*
X77470000Y-55157750D01*
X77470000Y-56007000D01*
X79724250Y-56007000D01*
X79883000Y-55848250D01*
X79886072Y-55634000D01*
X79873812Y-55509518D01*
X79837502Y-55389820D01*
X79778537Y-55279506D01*
X79699185Y-55182815D01*
X79602494Y-55103463D01*
X79492180Y-55044498D01*
X79372482Y-55008188D01*
X79248000Y-54995928D01*
X77628750Y-54999000D01*
X77470000Y-55157750D01*
X77216000Y-55157750D01*
X77057250Y-54999000D01*
X75438000Y-54995928D01*
X75313518Y-55008188D01*
X75193820Y-55044498D01*
X75083506Y-55103463D01*
X74986815Y-55182815D01*
X74907463Y-55279506D01*
X74848498Y-55389820D01*
X74812188Y-55509518D01*
X74799928Y-55634000D01*
X72774072Y-55634000D01*
X72761812Y-55509518D01*
X72725502Y-55389820D01*
X72666537Y-55279506D01*
X72587185Y-55182815D01*
X72490494Y-55103463D01*
X72380180Y-55044498D01*
X72260482Y-55008188D01*
X72136000Y-54995928D01*
X68326000Y-54995928D01*
X68201518Y-55008188D01*
X68081820Y-55044498D01*
X67971506Y-55103463D01*
X67874815Y-55182815D01*
X67795463Y-55279506D01*
X67736498Y-55389820D01*
X67700188Y-55509518D01*
X67687928Y-55634000D01*
X58804072Y-55634000D01*
X58801000Y-55602808D01*
X58801000Y-54629000D01*
X58902939Y-54629000D01*
X59102898Y-54589226D01*
X59291256Y-54511205D01*
X59460774Y-54397937D01*
X59604937Y-54253774D01*
X59718205Y-54084256D01*
X59796226Y-53895898D01*
X59836000Y-53695939D01*
X59836000Y-53492061D01*
X59796226Y-53292102D01*
X59718205Y-53103744D01*
X59711695Y-53094000D01*
X67687928Y-53094000D01*
X67687928Y-54094000D01*
X67700188Y-54218482D01*
X67736498Y-54338180D01*
X67795463Y-54448494D01*
X67874815Y-54545185D01*
X67971506Y-54624537D01*
X68081820Y-54683502D01*
X68201518Y-54719812D01*
X68326000Y-54732072D01*
X72136000Y-54732072D01*
X72260482Y-54719812D01*
X72380180Y-54683502D01*
X72490494Y-54624537D01*
X72587185Y-54545185D01*
X72666537Y-54448494D01*
X72725502Y-54338180D01*
X72761812Y-54218482D01*
X72774072Y-54094000D01*
X74799928Y-54094000D01*
X74812188Y-54218482D01*
X74848498Y-54338180D01*
X74907463Y-54448494D01*
X74986815Y-54545185D01*
X75083506Y-54624537D01*
X75193820Y-54683502D01*
X75313518Y-54719812D01*
X75438000Y-54732072D01*
X77057250Y-54729000D01*
X77216000Y-54570250D01*
X77216000Y-53721000D01*
X77470000Y-53721000D01*
X77470000Y-54570250D01*
X77628750Y-54729000D01*
X79248000Y-54732072D01*
X79372482Y-54719812D01*
X79492180Y-54683502D01*
X79602494Y-54624537D01*
X79699185Y-54545185D01*
X79778537Y-54448494D01*
X79837502Y-54338180D01*
X79873812Y-54218482D01*
X79886072Y-54094000D01*
X79883000Y-53879750D01*
X79724250Y-53721000D01*
X77470000Y-53721000D01*
X77216000Y-53721000D01*
X74961750Y-53721000D01*
X74803000Y-53879750D01*
X74799928Y-54094000D01*
X72774072Y-54094000D01*
X72774072Y-53094000D01*
X74799928Y-53094000D01*
X74803000Y-53308250D01*
X74961750Y-53467000D01*
X77216000Y-53467000D01*
X77216000Y-52617750D01*
X77470000Y-52617750D01*
X77470000Y-53467000D01*
X79724250Y-53467000D01*
X79883000Y-53308250D01*
X79886072Y-53094000D01*
X79873812Y-52969518D01*
X79837502Y-52849820D01*
X79778537Y-52739506D01*
X79699185Y-52642815D01*
X79602494Y-52563463D01*
X79492180Y-52504498D01*
X79372482Y-52468188D01*
X79248000Y-52455928D01*
X77628750Y-52459000D01*
X77470000Y-52617750D01*
X77216000Y-52617750D01*
X77057250Y-52459000D01*
X75438000Y-52455928D01*
X75313518Y-52468188D01*
X75193820Y-52504498D01*
X75083506Y-52563463D01*
X74986815Y-52642815D01*
X74907463Y-52739506D01*
X74848498Y-52849820D01*
X74812188Y-52969518D01*
X74799928Y-53094000D01*
X72774072Y-53094000D01*
X72761812Y-52969518D01*
X72725502Y-52849820D01*
X72666537Y-52739506D01*
X72587185Y-52642815D01*
X72490494Y-52563463D01*
X72380180Y-52504498D01*
X72260482Y-52468188D01*
X72136000Y-52455928D01*
X68326000Y-52455928D01*
X68201518Y-52468188D01*
X68081820Y-52504498D01*
X67971506Y-52563463D01*
X67874815Y-52642815D01*
X67795463Y-52739506D01*
X67736498Y-52849820D01*
X67700188Y-52969518D01*
X67687928Y-53094000D01*
X59711695Y-53094000D01*
X59604937Y-52934226D01*
X59460774Y-52790063D01*
X59291256Y-52676795D01*
X59102898Y-52598774D01*
X58902939Y-52559000D01*
X58801000Y-52559000D01*
X58801000Y-52089000D01*
X58902939Y-52089000D01*
X59102898Y-52049226D01*
X59291256Y-51971205D01*
X59460774Y-51857937D01*
X59604937Y-51713774D01*
X59718205Y-51544256D01*
X59796226Y-51355898D01*
X59836000Y-51155939D01*
X59836000Y-50952061D01*
X59796226Y-50752102D01*
X59718205Y-50563744D01*
X59711695Y-50554000D01*
X67687928Y-50554000D01*
X67687928Y-51554000D01*
X67700188Y-51678482D01*
X67736498Y-51798180D01*
X67795463Y-51908494D01*
X67874815Y-52005185D01*
X67971506Y-52084537D01*
X68081820Y-52143502D01*
X68201518Y-52179812D01*
X68326000Y-52192072D01*
X72136000Y-52192072D01*
X72260482Y-52179812D01*
X72380180Y-52143502D01*
X72490494Y-52084537D01*
X72587185Y-52005185D01*
X72666537Y-51908494D01*
X72725502Y-51798180D01*
X72761812Y-51678482D01*
X72774072Y-51554000D01*
X72774072Y-50554000D01*
X72761812Y-50429518D01*
X72725502Y-50309820D01*
X72666537Y-50199506D01*
X72587185Y-50102815D01*
X72490494Y-50023463D01*
X72380180Y-49964498D01*
X72260482Y-49928188D01*
X72136000Y-49915928D01*
X68326000Y-49915928D01*
X68201518Y-49928188D01*
X68081820Y-49964498D01*
X67971506Y-50023463D01*
X67874815Y-50102815D01*
X67795463Y-50199506D01*
X67736498Y-50309820D01*
X67700188Y-50429518D01*
X67687928Y-50554000D01*
X59711695Y-50554000D01*
X59604937Y-50394226D01*
X59460774Y-50250063D01*
X59291256Y-50136795D01*
X59102898Y-50058774D01*
X58902939Y-50019000D01*
X58699061Y-50019000D01*
X58550953Y-50048460D01*
X58520494Y-50023463D01*
X58410180Y-49964498D01*
X58290482Y-49928188D01*
X58166000Y-49915928D01*
X54356000Y-49915928D01*
X54231518Y-49928188D01*
X54111820Y-49964498D01*
X54001506Y-50023463D01*
X53904815Y-50102815D01*
X53825463Y-50199506D01*
X53766498Y-50309820D01*
X53730188Y-50429518D01*
X53718716Y-50546000D01*
X51364778Y-50546000D01*
X51418537Y-50480494D01*
X51477502Y-50370180D01*
X51513812Y-50250482D01*
X51526072Y-50126000D01*
X51523000Y-49561750D01*
X51364250Y-49403000D01*
X50165000Y-49403000D01*
X50165000Y-49423000D01*
X49911000Y-49423000D01*
X49911000Y-49403000D01*
X48711750Y-49403000D01*
X48553000Y-49561750D01*
X48549928Y-50126000D01*
X48562188Y-50250482D01*
X48598498Y-50370180D01*
X48657463Y-50480494D01*
X48711222Y-50546000D01*
X48006000Y-50546000D01*
X48006000Y-48426000D01*
X48549928Y-48426000D01*
X48553000Y-48990250D01*
X48711750Y-49149000D01*
X49911000Y-49149000D01*
X49911000Y-47949750D01*
X50165000Y-47949750D01*
X50165000Y-49149000D01*
X51364250Y-49149000D01*
X51523000Y-48990250D01*
X51526072Y-48426000D01*
X51513812Y-48301518D01*
X51477502Y-48181820D01*
X51418537Y-48071506D01*
X51413034Y-48064800D01*
X53717928Y-48064800D01*
X53717928Y-49064800D01*
X53730188Y-49189282D01*
X53766498Y-49308980D01*
X53825463Y-49419294D01*
X53904815Y-49515985D01*
X54001506Y-49595337D01*
X54111820Y-49654302D01*
X54231518Y-49690612D01*
X54356000Y-49702872D01*
X58166000Y-49702872D01*
X58290482Y-49690612D01*
X58410180Y-49654302D01*
X58520494Y-49595337D01*
X58600777Y-49529450D01*
X58699061Y-49549000D01*
X58902939Y-49549000D01*
X59102898Y-49509226D01*
X59291256Y-49431205D01*
X59460774Y-49317937D01*
X59604937Y-49173774D01*
X59677750Y-49064800D01*
X67687928Y-49064800D01*
X67700188Y-49189282D01*
X67736498Y-49308980D01*
X67795463Y-49419294D01*
X67874815Y-49515985D01*
X67971506Y-49595337D01*
X68081820Y-49654302D01*
X68201518Y-49690612D01*
X68326000Y-49702872D01*
X69945250Y-49699800D01*
X70104000Y-49541050D01*
X70104000Y-48691800D01*
X70358000Y-48691800D01*
X70358000Y-49541050D01*
X70516750Y-49699800D01*
X72136000Y-49702872D01*
X72260482Y-49690612D01*
X72380180Y-49654302D01*
X72490494Y-49595337D01*
X72587185Y-49515985D01*
X72666537Y-49419294D01*
X72725502Y-49308980D01*
X72761812Y-49189282D01*
X72774072Y-49064800D01*
X72771000Y-48850550D01*
X72612250Y-48691800D01*
X70358000Y-48691800D01*
X70104000Y-48691800D01*
X67849750Y-48691800D01*
X67691000Y-48850550D01*
X67687928Y-49064800D01*
X59677750Y-49064800D01*
X59718205Y-49004256D01*
X59796226Y-48815898D01*
X59836000Y-48615939D01*
X59836000Y-48412061D01*
X59796226Y-48212102D01*
X59735212Y-48064800D01*
X67687928Y-48064800D01*
X67691000Y-48279050D01*
X67849750Y-48437800D01*
X70104000Y-48437800D01*
X70104000Y-47588550D01*
X70358000Y-47588550D01*
X70358000Y-48437800D01*
X72612250Y-48437800D01*
X72771000Y-48279050D01*
X72774072Y-48064800D01*
X74799928Y-48064800D01*
X74799928Y-49064800D01*
X74812188Y-49189282D01*
X74848498Y-49308980D01*
X74907463Y-49419294D01*
X74986815Y-49515985D01*
X75083506Y-49595337D01*
X75193820Y-49654302D01*
X75313518Y-49690612D01*
X75438000Y-49702872D01*
X79248000Y-49702872D01*
X79372482Y-49690612D01*
X79492180Y-49654302D01*
X79602494Y-49595337D01*
X79682777Y-49529450D01*
X79781061Y-49549000D01*
X79984939Y-49549000D01*
X80184898Y-49509226D01*
X80373256Y-49431205D01*
X80542774Y-49317937D01*
X80686937Y-49173774D01*
X80759750Y-49064800D01*
X88769928Y-49064800D01*
X88782188Y-49189282D01*
X88818498Y-49308980D01*
X88877463Y-49419294D01*
X88956815Y-49515985D01*
X89053506Y-49595337D01*
X89163820Y-49654302D01*
X89283518Y-49690612D01*
X89408000Y-49702872D01*
X91027250Y-49699800D01*
X91186000Y-49541050D01*
X91186000Y-48691800D01*
X91440000Y-48691800D01*
X91440000Y-49541050D01*
X91598750Y-49699800D01*
X93218000Y-49702872D01*
X93342482Y-49690612D01*
X93462180Y-49654302D01*
X93572494Y-49595337D01*
X93669185Y-49515985D01*
X93748537Y-49419294D01*
X93807502Y-49308980D01*
X93843812Y-49189282D01*
X93856072Y-49064800D01*
X93853000Y-48850550D01*
X93694250Y-48691800D01*
X91440000Y-48691800D01*
X91186000Y-48691800D01*
X88931750Y-48691800D01*
X88773000Y-48850550D01*
X88769928Y-49064800D01*
X80759750Y-49064800D01*
X80800205Y-49004256D01*
X80878226Y-48815898D01*
X80918000Y-48615939D01*
X80918000Y-48412061D01*
X80878226Y-48212102D01*
X80817212Y-48064800D01*
X88769928Y-48064800D01*
X88773000Y-48279050D01*
X88931750Y-48437800D01*
X91186000Y-48437800D01*
X91186000Y-47588550D01*
X91440000Y-47588550D01*
X91440000Y-48437800D01*
X93694250Y-48437800D01*
X93853000Y-48279050D01*
X93856072Y-48064800D01*
X93843812Y-47940318D01*
X93807502Y-47820620D01*
X93748537Y-47710306D01*
X93710535Y-47664000D01*
X96047928Y-47664000D01*
X96047928Y-49364000D01*
X96060188Y-49488482D01*
X96096498Y-49608180D01*
X96155463Y-49718494D01*
X96234815Y-49815185D01*
X96331506Y-49894537D01*
X96441820Y-49953502D01*
X96561518Y-49989812D01*
X96686000Y-50002072D01*
X98386000Y-50002072D01*
X98510482Y-49989812D01*
X98630180Y-49953502D01*
X98740494Y-49894537D01*
X98837185Y-49815185D01*
X98916537Y-49718494D01*
X98975502Y-49608180D01*
X99011812Y-49488482D01*
X99024072Y-49364000D01*
X99024072Y-47664000D01*
X99011812Y-47539518D01*
X98975502Y-47419820D01*
X98916537Y-47309506D01*
X98837185Y-47212815D01*
X98740494Y-47133463D01*
X98630180Y-47074498D01*
X98510482Y-47038188D01*
X98386000Y-47025928D01*
X96686000Y-47025928D01*
X96561518Y-47038188D01*
X96441820Y-47074498D01*
X96331506Y-47133463D01*
X96234815Y-47212815D01*
X96155463Y-47309506D01*
X96096498Y-47419820D01*
X96060188Y-47539518D01*
X96047928Y-47664000D01*
X93710535Y-47664000D01*
X93669185Y-47613615D01*
X93572494Y-47534263D01*
X93462180Y-47475298D01*
X93342482Y-47438988D01*
X93218000Y-47426728D01*
X91598750Y-47429800D01*
X91440000Y-47588550D01*
X91186000Y-47588550D01*
X91027250Y-47429800D01*
X89408000Y-47426728D01*
X89283518Y-47438988D01*
X89163820Y-47475298D01*
X89053506Y-47534263D01*
X88956815Y-47613615D01*
X88877463Y-47710306D01*
X88818498Y-47820620D01*
X88782188Y-47940318D01*
X88769928Y-48064800D01*
X80817212Y-48064800D01*
X80800205Y-48023744D01*
X80686937Y-47854226D01*
X80542774Y-47710063D01*
X80373256Y-47596795D01*
X80184898Y-47518774D01*
X79984939Y-47479000D01*
X79781061Y-47479000D01*
X79581102Y-47518774D01*
X79576828Y-47520544D01*
X79492180Y-47475298D01*
X79372482Y-47438988D01*
X79248000Y-47426728D01*
X75438000Y-47426728D01*
X75313518Y-47438988D01*
X75193820Y-47475298D01*
X75083506Y-47534263D01*
X74986815Y-47613615D01*
X74907463Y-47710306D01*
X74848498Y-47820620D01*
X74812188Y-47940318D01*
X74799928Y-48064800D01*
X72774072Y-48064800D01*
X72761812Y-47940318D01*
X72725502Y-47820620D01*
X72666537Y-47710306D01*
X72587185Y-47613615D01*
X72490494Y-47534263D01*
X72380180Y-47475298D01*
X72260482Y-47438988D01*
X72136000Y-47426728D01*
X70516750Y-47429800D01*
X70358000Y-47588550D01*
X70104000Y-47588550D01*
X69945250Y-47429800D01*
X68326000Y-47426728D01*
X68201518Y-47438988D01*
X68081820Y-47475298D01*
X67971506Y-47534263D01*
X67874815Y-47613615D01*
X67795463Y-47710306D01*
X67736498Y-47820620D01*
X67700188Y-47940318D01*
X67687928Y-48064800D01*
X59735212Y-48064800D01*
X59718205Y-48023744D01*
X59604937Y-47854226D01*
X59460774Y-47710063D01*
X59291256Y-47596795D01*
X59102898Y-47518774D01*
X58902939Y-47479000D01*
X58699061Y-47479000D01*
X58499102Y-47518774D01*
X58494828Y-47520544D01*
X58410180Y-47475298D01*
X58290482Y-47438988D01*
X58166000Y-47426728D01*
X54356000Y-47426728D01*
X54231518Y-47438988D01*
X54111820Y-47475298D01*
X54001506Y-47534263D01*
X53904815Y-47613615D01*
X53825463Y-47710306D01*
X53766498Y-47820620D01*
X53730188Y-47940318D01*
X53717928Y-48064800D01*
X51413034Y-48064800D01*
X51339185Y-47974815D01*
X51242494Y-47895463D01*
X51132180Y-47836498D01*
X51012482Y-47800188D01*
X50888000Y-47787928D01*
X50323750Y-47791000D01*
X50165000Y-47949750D01*
X49911000Y-47949750D01*
X49752250Y-47791000D01*
X49188000Y-47787928D01*
X49063518Y-47800188D01*
X48943820Y-47836498D01*
X48833506Y-47895463D01*
X48736815Y-47974815D01*
X48657463Y-48071506D01*
X48598498Y-48181820D01*
X48562188Y-48301518D01*
X48549928Y-48426000D01*
X48006000Y-48426000D01*
X48006000Y-45085000D01*
X100068157Y-45085000D01*
X100083843Y-66167000D01*
G37*
X100083843Y-66167000D02*
X58801000Y-66167000D01*
X58801000Y-64285192D01*
X58804072Y-64254000D01*
X58804072Y-63254000D01*
X67687928Y-63254000D01*
X67687928Y-64254000D01*
X67700188Y-64378482D01*
X67736498Y-64498180D01*
X67795463Y-64608494D01*
X67874815Y-64705185D01*
X67971506Y-64784537D01*
X68081820Y-64843502D01*
X68201518Y-64879812D01*
X68326000Y-64892072D01*
X72136000Y-64892072D01*
X72260482Y-64879812D01*
X72380180Y-64843502D01*
X72490494Y-64784537D01*
X72587185Y-64705185D01*
X72666537Y-64608494D01*
X72725502Y-64498180D01*
X72761812Y-64378482D01*
X72774072Y-64254000D01*
X72774072Y-63254000D01*
X72761812Y-63129518D01*
X72725502Y-63009820D01*
X72666537Y-62899506D01*
X72587185Y-62802815D01*
X72490494Y-62723463D01*
X72380180Y-62664498D01*
X72286436Y-62636061D01*
X73768000Y-62636061D01*
X73768000Y-62839939D01*
X73807774Y-63039898D01*
X73885795Y-63228256D01*
X73999063Y-63397774D01*
X74143226Y-63541937D01*
X74312744Y-63655205D01*
X74501102Y-63733226D01*
X74701061Y-63773000D01*
X74803000Y-63773000D01*
X74803000Y-63881002D01*
X74961748Y-63881002D01*
X74803000Y-64039750D01*
X74799928Y-64254000D01*
X74812188Y-64378482D01*
X74848498Y-64498180D01*
X74907463Y-64608494D01*
X74986815Y-64705185D01*
X75083506Y-64784537D01*
X75193820Y-64843502D01*
X75313518Y-64879812D01*
X75438000Y-64892072D01*
X77057250Y-64889000D01*
X77216000Y-64730250D01*
X77216000Y-63881000D01*
X77470000Y-63881000D01*
X77470000Y-64730250D01*
X77628750Y-64889000D01*
X79248000Y-64892072D01*
X79372482Y-64879812D01*
X79492180Y-64843502D01*
X79602494Y-64784537D01*
X79699185Y-64705185D01*
X79778537Y-64608494D01*
X79837502Y-64498180D01*
X79873812Y-64378482D01*
X79886072Y-64254000D01*
X79883000Y-64039750D01*
X79724250Y-63881000D01*
X77470000Y-63881000D01*
X77216000Y-63881000D01*
X77196000Y-63881000D01*
X77196000Y-63627000D01*
X77216000Y-63627000D01*
X77216000Y-62777750D01*
X77470000Y-62777750D01*
X77470000Y-63627000D01*
X79724250Y-63627000D01*
X79883000Y-63468250D01*
X79886072Y-63254000D01*
X88769928Y-63254000D01*
X88769928Y-64254000D01*
X88782188Y-64378482D01*
X88818498Y-64498180D01*
X88877463Y-64608494D01*
X88956815Y-64705185D01*
X89053506Y-64784537D01*
X89163820Y-64843502D01*
X89283518Y-64879812D01*
X89408000Y-64892072D01*
X93218000Y-64892072D01*
X93342482Y-64879812D01*
X93462180Y-64843502D01*
X93572494Y-64784537D01*
X93669185Y-64705185D01*
X93748537Y-64608494D01*
X93807502Y-64498180D01*
X93843812Y-64378482D01*
X93856072Y-64254000D01*
X93856072Y-63254000D01*
X93843812Y-63129518D01*
X93807502Y-63009820D01*
X93748537Y-62899506D01*
X93669185Y-62802815D01*
X93572494Y-62723463D01*
X93462180Y-62664498D01*
X93342482Y-62628188D01*
X93218000Y-62615928D01*
X89408000Y-62615928D01*
X89283518Y-62628188D01*
X89163820Y-62664498D01*
X89053506Y-62723463D01*
X88956815Y-62802815D01*
X88877463Y-62899506D01*
X88818498Y-63009820D01*
X88782188Y-63129518D01*
X88769928Y-63254000D01*
X79886072Y-63254000D01*
X79873812Y-63129518D01*
X79837502Y-63009820D01*
X79778537Y-62899506D01*
X79699185Y-62802815D01*
X79602494Y-62723463D01*
X79492180Y-62664498D01*
X79372482Y-62628188D01*
X79248000Y-62615928D01*
X77628750Y-62619000D01*
X77470000Y-62777750D01*
X77216000Y-62777750D01*
X77057250Y-62619000D01*
X75834145Y-62616680D01*
X75798226Y-62436102D01*
X75763419Y-62352072D01*
X79248000Y-62352072D01*
X79372482Y-62339812D01*
X79492180Y-62303502D01*
X79602494Y-62244537D01*
X79699185Y-62165185D01*
X79778537Y-62068494D01*
X79829046Y-61974000D01*
X81242678Y-61974000D01*
X81280000Y-61977676D01*
X81317322Y-61974000D01*
X81317333Y-61974000D01*
X81428986Y-61963003D01*
X81572247Y-61919546D01*
X81704276Y-61848974D01*
X81820001Y-61754001D01*
X81843803Y-61724998D01*
X82456740Y-61112061D01*
X87738000Y-61112061D01*
X87738000Y-61315939D01*
X87777774Y-61515898D01*
X87855795Y-61704256D01*
X87969063Y-61873774D01*
X88113226Y-62017937D01*
X88282744Y-62131205D01*
X88471102Y-62209226D01*
X88671061Y-62249000D01*
X88874939Y-62249000D01*
X89023047Y-62219540D01*
X89053506Y-62244537D01*
X89163820Y-62303502D01*
X89283518Y-62339812D01*
X89408000Y-62352072D01*
X93218000Y-62352072D01*
X93342482Y-62339812D01*
X93462180Y-62303502D01*
X93572494Y-62244537D01*
X93669185Y-62165185D01*
X93688212Y-62142000D01*
X96047928Y-62142000D01*
X96047928Y-63842000D01*
X96060188Y-63966482D01*
X96096498Y-64086180D01*
X96155463Y-64196494D01*
X96234815Y-64293185D01*
X96331506Y-64372537D01*
X96441820Y-64431502D01*
X96561518Y-64467812D01*
X96686000Y-64480072D01*
X98386000Y-64480072D01*
X98510482Y-64467812D01*
X98630180Y-64431502D01*
X98740494Y-64372537D01*
X98837185Y-64293185D01*
X98916537Y-64196494D01*
X98975502Y-64086180D01*
X99011812Y-63966482D01*
X99024072Y-63842000D01*
X99024072Y-62142000D01*
X99011812Y-62017518D01*
X98975502Y-61897820D01*
X98916537Y-61787506D01*
X98837185Y-61690815D01*
X98740494Y-61611463D01*
X98630180Y-61552498D01*
X98510482Y-61516188D01*
X98386000Y-61503928D01*
X96686000Y-61503928D01*
X96561518Y-61516188D01*
X96441820Y-61552498D01*
X96331506Y-61611463D01*
X96234815Y-61690815D01*
X96155463Y-61787506D01*
X96096498Y-61897820D01*
X96060188Y-62017518D01*
X96047928Y-62142000D01*
X93688212Y-62142000D01*
X93748537Y-62068494D01*
X93807502Y-61958180D01*
X93843812Y-61838482D01*
X93856072Y-61714000D01*
X93856072Y-60714000D01*
X93843812Y-60589518D01*
X93807502Y-60469820D01*
X93748537Y-60359506D01*
X93669185Y-60262815D01*
X93572494Y-60183463D01*
X93462180Y-60124498D01*
X93342482Y-60088188D01*
X93218000Y-60075928D01*
X89408000Y-60075928D01*
X89283518Y-60088188D01*
X89163820Y-60124498D01*
X89053506Y-60183463D01*
X89023047Y-60208460D01*
X88874939Y-60179000D01*
X88671061Y-60179000D01*
X88471102Y-60218774D01*
X88282744Y-60296795D01*
X88113226Y-60410063D01*
X87969063Y-60554226D01*
X87855795Y-60723744D01*
X87777774Y-60912102D01*
X87738000Y-61112061D01*
X82456740Y-61112061D01*
X82553002Y-61015799D01*
X82582001Y-60992001D01*
X82676974Y-60876276D01*
X82747546Y-60744247D01*
X82791003Y-60600986D01*
X82802000Y-60489333D01*
X82802000Y-60489325D01*
X82805676Y-60452000D01*
X82802000Y-60414675D01*
X82802000Y-59174000D01*
X88769928Y-59174000D01*
X88782188Y-59298482D01*
X88818498Y-59418180D01*
X88877463Y-59528494D01*
X88956815Y-59625185D01*
X89053506Y-59704537D01*
X89163820Y-59763502D01*
X89283518Y-59799812D01*
X89408000Y-59812072D01*
X91027250Y-59809000D01*
X91186000Y-59650250D01*
X91186000Y-58801000D01*
X91440000Y-58801000D01*
X91440000Y-59650250D01*
X91598750Y-59809000D01*
X93218000Y-59812072D01*
X93342482Y-59799812D01*
X93462180Y-59763502D01*
X93572494Y-59704537D01*
X93669185Y-59625185D01*
X93748537Y-59528494D01*
X93807502Y-59418180D01*
X93843812Y-59298482D01*
X93856072Y-59174000D01*
X93853000Y-58959750D01*
X93694250Y-58801000D01*
X91440000Y-58801000D01*
X91186000Y-58801000D01*
X88931750Y-58801000D01*
X88773000Y-58959750D01*
X88769928Y-59174000D01*
X82802000Y-59174000D01*
X82802000Y-58174000D01*
X88769928Y-58174000D01*
X88773000Y-58388250D01*
X88931750Y-58547000D01*
X91186000Y-58547000D01*
X91186000Y-57697750D01*
X91440000Y-57697750D01*
X91440000Y-58547000D01*
X93694250Y-58547000D01*
X93853000Y-58388250D01*
X93856072Y-58174000D01*
X93843812Y-58049518D01*
X93807502Y-57929820D01*
X93748537Y-57819506D01*
X93669185Y-57722815D01*
X93572494Y-57643463D01*
X93462180Y-57584498D01*
X93342482Y-57548188D01*
X93218000Y-57535928D01*
X91598750Y-57539000D01*
X91440000Y-57697750D01*
X91186000Y-57697750D01*
X91027250Y-57539000D01*
X89408000Y-57535928D01*
X89283518Y-57548188D01*
X89163820Y-57584498D01*
X89053506Y-57643463D01*
X88956815Y-57722815D01*
X88877463Y-57819506D01*
X88818498Y-57929820D01*
X88782188Y-58049518D01*
X88769928Y-58174000D01*
X82802000Y-58174000D01*
X82802000Y-56032061D01*
X87738000Y-56032061D01*
X87738000Y-56235939D01*
X87777774Y-56435898D01*
X87855795Y-56624256D01*
X87969063Y-56793774D01*
X88113226Y-56937937D01*
X88282744Y-57051205D01*
X88471102Y-57129226D01*
X88671061Y-57169000D01*
X88874939Y-57169000D01*
X89023047Y-57139540D01*
X89053506Y-57164537D01*
X89163820Y-57223502D01*
X89283518Y-57259812D01*
X89408000Y-57272072D01*
X93218000Y-57272072D01*
X93342482Y-57259812D01*
X93462180Y-57223502D01*
X93572494Y-57164537D01*
X93669185Y-57085185D01*
X93748537Y-56988494D01*
X93807502Y-56878180D01*
X93843812Y-56758482D01*
X93856072Y-56634000D01*
X93856072Y-56173000D01*
X96047928Y-56173000D01*
X96047928Y-57873000D01*
X96060188Y-57997482D01*
X96096498Y-58117180D01*
X96155463Y-58227494D01*
X96234815Y-58324185D01*
X96331506Y-58403537D01*
X96441820Y-58462502D01*
X96561518Y-58498812D01*
X96686000Y-58511072D01*
X98386000Y-58511072D01*
X98510482Y-58498812D01*
X98630180Y-58462502D01*
X98740494Y-58403537D01*
X98837185Y-58324185D01*
X98916537Y-58227494D01*
X98975502Y-58117180D01*
X99011812Y-57997482D01*
X99024072Y-57873000D01*
X99024072Y-56173000D01*
X99011812Y-56048518D01*
X98975502Y-55928820D01*
X98916537Y-55818506D01*
X98837185Y-55721815D01*
X98740494Y-55642463D01*
X98630180Y-55583498D01*
X98510482Y-55547188D01*
X98386000Y-55534928D01*
X96686000Y-55534928D01*
X96561518Y-55547188D01*
X96441820Y-55583498D01*
X96331506Y-55642463D01*
X96234815Y-55721815D01*
X96155463Y-55818506D01*
X96096498Y-55928820D01*
X96060188Y-56048518D01*
X96047928Y-56173000D01*
X93856072Y-56173000D01*
X93856072Y-55634000D01*
X93843812Y-55509518D01*
X93807502Y-55389820D01*
X93748537Y-55279506D01*
X93669185Y-55182815D01*
X93572494Y-55103463D01*
X93462180Y-55044498D01*
X93342482Y-55008188D01*
X93218000Y-54995928D01*
X89408000Y-54995928D01*
X89283518Y-55008188D01*
X89163820Y-55044498D01*
X89053506Y-55103463D01*
X89023047Y-55128460D01*
X88874939Y-55099000D01*
X88671061Y-55099000D01*
X88471102Y-55138774D01*
X88282744Y-55216795D01*
X88113226Y-55330063D01*
X87969063Y-55474226D01*
X87855795Y-55643744D01*
X87777774Y-55832102D01*
X87738000Y-56032061D01*
X82802000Y-56032061D01*
X82802000Y-53492061D01*
X87738000Y-53492061D01*
X87738000Y-53695939D01*
X87777774Y-53895898D01*
X87855795Y-54084256D01*
X87969063Y-54253774D01*
X88113226Y-54397937D01*
X88282744Y-54511205D01*
X88471102Y-54589226D01*
X88671061Y-54629000D01*
X88874939Y-54629000D01*
X89023047Y-54599540D01*
X89053506Y-54624537D01*
X89163820Y-54683502D01*
X89283518Y-54719812D01*
X89408000Y-54732072D01*
X93218000Y-54732072D01*
X93342482Y-54719812D01*
X93462180Y-54683502D01*
X93572494Y-54624537D01*
X93669185Y-54545185D01*
X93748537Y-54448494D01*
X93807502Y-54338180D01*
X93843812Y-54218482D01*
X93856072Y-54094000D01*
X93856072Y-53094000D01*
X93843812Y-52969518D01*
X93807502Y-52849820D01*
X93748537Y-52739506D01*
X93669185Y-52642815D01*
X93572494Y-52563463D01*
X93462180Y-52504498D01*
X93342482Y-52468188D01*
X93218000Y-52455928D01*
X89408000Y-52455928D01*
X89283518Y-52468188D01*
X89163820Y-52504498D01*
X89053506Y-52563463D01*
X89023047Y-52588460D01*
X88874939Y-52559000D01*
X88671061Y-52559000D01*
X88471102Y-52598774D01*
X88282744Y-52676795D01*
X88113226Y-52790063D01*
X87969063Y-52934226D01*
X87855795Y-53103744D01*
X87777774Y-53292102D01*
X87738000Y-53492061D01*
X82802000Y-53492061D01*
X82802000Y-51980323D01*
X82805676Y-51943000D01*
X82802000Y-51905677D01*
X82802000Y-51905667D01*
X82791003Y-51794014D01*
X82747546Y-51650753D01*
X82676974Y-51518724D01*
X82582001Y-51402999D01*
X82553004Y-51379202D01*
X81727802Y-50554000D01*
X88769928Y-50554000D01*
X88769928Y-51554000D01*
X88782188Y-51678482D01*
X88818498Y-51798180D01*
X88877463Y-51908494D01*
X88956815Y-52005185D01*
X89053506Y-52084537D01*
X89163820Y-52143502D01*
X89283518Y-52179812D01*
X89408000Y-52192072D01*
X93218000Y-52192072D01*
X93342482Y-52179812D01*
X93462180Y-52143502D01*
X93572494Y-52084537D01*
X93669185Y-52005185D01*
X93748537Y-51908494D01*
X93807502Y-51798180D01*
X93843812Y-51678482D01*
X93856072Y-51554000D01*
X93856072Y-50554000D01*
X93843812Y-50429518D01*
X93807502Y-50309820D01*
X93748537Y-50199506D01*
X93669185Y-50102815D01*
X93572494Y-50023463D01*
X93462180Y-49964498D01*
X93342482Y-49928188D01*
X93218000Y-49915928D01*
X89408000Y-49915928D01*
X89283518Y-49928188D01*
X89163820Y-49964498D01*
X89053506Y-50023463D01*
X88956815Y-50102815D01*
X88877463Y-50199506D01*
X88818498Y-50309820D01*
X88782188Y-50429518D01*
X88769928Y-50554000D01*
X81727802Y-50554000D01*
X81716803Y-50543002D01*
X81693001Y-50513999D01*
X81577276Y-50419026D01*
X81445247Y-50348454D01*
X81301986Y-50304997D01*
X81190333Y-50294000D01*
X81190322Y-50294000D01*
X81153000Y-50290324D01*
X81115678Y-50294000D01*
X79829046Y-50294000D01*
X79778537Y-50199506D01*
X79699185Y-50102815D01*
X79602494Y-50023463D01*
X79492180Y-49964498D01*
X79372482Y-49928188D01*
X79248000Y-49915928D01*
X75438000Y-49915928D01*
X75313518Y-49928188D01*
X75193820Y-49964498D01*
X75083506Y-50023463D01*
X74986815Y-50102815D01*
X74907463Y-50199506D01*
X74848498Y-50309820D01*
X74812188Y-50429518D01*
X74799928Y-50554000D01*
X74799928Y-51554000D01*
X74812188Y-51678482D01*
X74848498Y-51798180D01*
X74907463Y-51908494D01*
X74986815Y-52005185D01*
X75083506Y-52084537D01*
X75193820Y-52143502D01*
X75313518Y-52179812D01*
X75438000Y-52192072D01*
X79248000Y-52192072D01*
X79372482Y-52179812D01*
X79492180Y-52143502D01*
X79602494Y-52084537D01*
X79699185Y-52005185D01*
X79778537Y-51908494D01*
X79829046Y-51814000D01*
X80838199Y-51814000D01*
X81282000Y-52257802D01*
X81282001Y-60137197D01*
X80965199Y-60454000D01*
X79829046Y-60454000D01*
X79778537Y-60359506D01*
X79699185Y-60262815D01*
X79602494Y-60183463D01*
X79492180Y-60124498D01*
X79372482Y-60088188D01*
X79248000Y-60075928D01*
X75438000Y-60075928D01*
X75313518Y-60088188D01*
X75193820Y-60124498D01*
X75083506Y-60183463D01*
X74986815Y-60262815D01*
X74907463Y-60359506D01*
X74848498Y-60469820D01*
X74844078Y-60484392D01*
X74764753Y-60508454D01*
X74632724Y-60579026D01*
X74516999Y-60673999D01*
X74493196Y-60703003D01*
X74292003Y-60904196D01*
X74262999Y-60927999D01*
X74210474Y-60992001D01*
X74168026Y-61043724D01*
X74097455Y-61175753D01*
X74097454Y-61175754D01*
X74053997Y-61319015D01*
X74043000Y-61430668D01*
X74043000Y-61430678D01*
X74039324Y-61468000D01*
X74043000Y-61505323D01*
X74043000Y-62034289D01*
X73999063Y-62078226D01*
X73885795Y-62247744D01*
X73807774Y-62436102D01*
X73768000Y-62636061D01*
X72286436Y-62636061D01*
X72260482Y-62628188D01*
X72136000Y-62615928D01*
X68326000Y-62615928D01*
X68201518Y-62628188D01*
X68081820Y-62664498D01*
X67971506Y-62723463D01*
X67874815Y-62802815D01*
X67795463Y-62899506D01*
X67736498Y-63009820D01*
X67700188Y-63129518D01*
X67687928Y-63254000D01*
X58804072Y-63254000D01*
X58801000Y-63222808D01*
X58801000Y-61745192D01*
X58804072Y-61714000D01*
X58804072Y-60714000D01*
X67687928Y-60714000D01*
X67687928Y-61714000D01*
X67700188Y-61838482D01*
X67736498Y-61958180D01*
X67795463Y-62068494D01*
X67874815Y-62165185D01*
X67971506Y-62244537D01*
X68081820Y-62303502D01*
X68201518Y-62339812D01*
X68326000Y-62352072D01*
X72136000Y-62352072D01*
X72260482Y-62339812D01*
X72380180Y-62303502D01*
X72490494Y-62244537D01*
X72587185Y-62165185D01*
X72666537Y-62068494D01*
X72725502Y-61958180D01*
X72761812Y-61838482D01*
X72774072Y-61714000D01*
X72774072Y-60714000D01*
X72761812Y-60589518D01*
X72725502Y-60469820D01*
X72666537Y-60359506D01*
X72587185Y-60262815D01*
X72490494Y-60183463D01*
X72380180Y-60124498D01*
X72260482Y-60088188D01*
X72136000Y-60075928D01*
X68326000Y-60075928D01*
X68201518Y-60088188D01*
X68081820Y-60124498D01*
X67971506Y-60183463D01*
X67874815Y-60262815D01*
X67795463Y-60359506D01*
X67736498Y-60469820D01*
X67700188Y-60589518D01*
X67687928Y-60714000D01*
X58804072Y-60714000D01*
X58801000Y-60682808D01*
X58801000Y-59205192D01*
X58804072Y-59174000D01*
X58804072Y-58174000D01*
X67687928Y-58174000D01*
X67687928Y-59174000D01*
X67700188Y-59298482D01*
X67736498Y-59418180D01*
X67795463Y-59528494D01*
X67874815Y-59625185D01*
X67971506Y-59704537D01*
X68081820Y-59763502D01*
X68201518Y-59799812D01*
X68326000Y-59812072D01*
X72136000Y-59812072D01*
X72260482Y-59799812D01*
X72380180Y-59763502D01*
X72490494Y-59704537D01*
X72587185Y-59625185D01*
X72666537Y-59528494D01*
X72725502Y-59418180D01*
X72761812Y-59298482D01*
X72774072Y-59174000D01*
X72774072Y-58572061D01*
X73768000Y-58572061D01*
X73768000Y-58775939D01*
X73807774Y-58975898D01*
X73885795Y-59164256D01*
X73999063Y-59333774D01*
X74143226Y-59477937D01*
X74312744Y-59591205D01*
X74501102Y-59669226D01*
X74701061Y-59709000D01*
X74904939Y-59709000D01*
X75053047Y-59679540D01*
X75083506Y-59704537D01*
X75193820Y-59763502D01*
X75313518Y-59799812D01*
X75438000Y-59812072D01*
X79248000Y-59812072D01*
X79372482Y-59799812D01*
X79492180Y-59763502D01*
X79602494Y-59704537D01*
X79632953Y-59679540D01*
X79781061Y-59709000D01*
X79984939Y-59709000D01*
X80184898Y-59669226D01*
X80373256Y-59591205D01*
X80542774Y-59477937D01*
X80686937Y-59333774D01*
X80800205Y-59164256D01*
X80878226Y-58975898D01*
X80918000Y-58775939D01*
X80918000Y-58572061D01*
X80878226Y-58372102D01*
X80800205Y-58183744D01*
X80686937Y-58014226D01*
X80542774Y-57870063D01*
X80373256Y-57756795D01*
X80184898Y-57678774D01*
X79984939Y-57639000D01*
X79781061Y-57639000D01*
X79632953Y-57668460D01*
X79602494Y-57643463D01*
X79492180Y-57584498D01*
X79372482Y-57548188D01*
X79248000Y-57535928D01*
X75438000Y-57535928D01*
X75313518Y-57548188D01*
X75193820Y-57584498D01*
X75083506Y-57643463D01*
X75053047Y-57668460D01*
X74904939Y-57639000D01*
X74701061Y-57639000D01*
X74501102Y-57678774D01*
X74312744Y-57756795D01*
X74143226Y-57870063D01*
X73999063Y-58014226D01*
X73885795Y-58183744D01*
X73807774Y-58372102D01*
X73768000Y-58572061D01*
X72774072Y-58572061D01*
X72774072Y-58174000D01*
X72761812Y-58049518D01*
X72725502Y-57929820D01*
X72666537Y-57819506D01*
X72587185Y-57722815D01*
X72490494Y-57643463D01*
X72380180Y-57584498D01*
X72260482Y-57548188D01*
X72136000Y-57535928D01*
X68326000Y-57535928D01*
X68201518Y-57548188D01*
X68081820Y-57584498D01*
X67971506Y-57643463D01*
X67874815Y-57722815D01*
X67795463Y-57819506D01*
X67736498Y-57929820D01*
X67700188Y-58049518D01*
X67687928Y-58174000D01*
X58804072Y-58174000D01*
X58801000Y-58142808D01*
X58801000Y-56665192D01*
X58804072Y-56634000D01*
X58804072Y-55634000D01*
X67687928Y-55634000D01*
X67687928Y-56634000D01*
X67700188Y-56758482D01*
X67736498Y-56878180D01*
X67795463Y-56988494D01*
X67874815Y-57085185D01*
X67971506Y-57164537D01*
X68081820Y-57223502D01*
X68201518Y-57259812D01*
X68326000Y-57272072D01*
X72136000Y-57272072D01*
X72260482Y-57259812D01*
X72380180Y-57223502D01*
X72490494Y-57164537D01*
X72587185Y-57085185D01*
X72666537Y-56988494D01*
X72725502Y-56878180D01*
X72761812Y-56758482D01*
X72774072Y-56634000D01*
X74799928Y-56634000D01*
X74812188Y-56758482D01*
X74848498Y-56878180D01*
X74907463Y-56988494D01*
X74986815Y-57085185D01*
X75083506Y-57164537D01*
X75193820Y-57223502D01*
X75313518Y-57259812D01*
X75438000Y-57272072D01*
X77057250Y-57269000D01*
X77216000Y-57110250D01*
X77216000Y-56261000D01*
X77470000Y-56261000D01*
X77470000Y-57110250D01*
X77628750Y-57269000D01*
X79248000Y-57272072D01*
X79372482Y-57259812D01*
X79492180Y-57223502D01*
X79602494Y-57164537D01*
X79699185Y-57085185D01*
X79778537Y-56988494D01*
X79837502Y-56878180D01*
X79873812Y-56758482D01*
X79886072Y-56634000D01*
X79883000Y-56419750D01*
X79724250Y-56261000D01*
X77470000Y-56261000D01*
X77216000Y-56261000D01*
X74961750Y-56261000D01*
X74803000Y-56419750D01*
X74799928Y-56634000D01*
X72774072Y-56634000D01*
X72774072Y-55634000D01*
X74799928Y-55634000D01*
X74803000Y-55848250D01*
X74961750Y-56007000D01*
X77216000Y-56007000D01*
X77216000Y-55157750D01*
X77470000Y-55157750D01*
X77470000Y-56007000D01*
X79724250Y-56007000D01*
X79883000Y-55848250D01*
X79886072Y-55634000D01*
X79873812Y-55509518D01*
X79837502Y-55389820D01*
X79778537Y-55279506D01*
X79699185Y-55182815D01*
X79602494Y-55103463D01*
X79492180Y-55044498D01*
X79372482Y-55008188D01*
X79248000Y-54995928D01*
X77628750Y-54999000D01*
X77470000Y-55157750D01*
X77216000Y-55157750D01*
X77057250Y-54999000D01*
X75438000Y-54995928D01*
X75313518Y-55008188D01*
X75193820Y-55044498D01*
X75083506Y-55103463D01*
X74986815Y-55182815D01*
X74907463Y-55279506D01*
X74848498Y-55389820D01*
X74812188Y-55509518D01*
X74799928Y-55634000D01*
X72774072Y-55634000D01*
X72761812Y-55509518D01*
X72725502Y-55389820D01*
X72666537Y-55279506D01*
X72587185Y-55182815D01*
X72490494Y-55103463D01*
X72380180Y-55044498D01*
X72260482Y-55008188D01*
X72136000Y-54995928D01*
X68326000Y-54995928D01*
X68201518Y-55008188D01*
X68081820Y-55044498D01*
X67971506Y-55103463D01*
X67874815Y-55182815D01*
X67795463Y-55279506D01*
X67736498Y-55389820D01*
X67700188Y-55509518D01*
X67687928Y-55634000D01*
X58804072Y-55634000D01*
X58801000Y-55602808D01*
X58801000Y-54629000D01*
X58902939Y-54629000D01*
X59102898Y-54589226D01*
X59291256Y-54511205D01*
X59460774Y-54397937D01*
X59604937Y-54253774D01*
X59718205Y-54084256D01*
X59796226Y-53895898D01*
X59836000Y-53695939D01*
X59836000Y-53492061D01*
X59796226Y-53292102D01*
X59718205Y-53103744D01*
X59711695Y-53094000D01*
X67687928Y-53094000D01*
X67687928Y-54094000D01*
X67700188Y-54218482D01*
X67736498Y-54338180D01*
X67795463Y-54448494D01*
X67874815Y-54545185D01*
X67971506Y-54624537D01*
X68081820Y-54683502D01*
X68201518Y-54719812D01*
X68326000Y-54732072D01*
X72136000Y-54732072D01*
X72260482Y-54719812D01*
X72380180Y-54683502D01*
X72490494Y-54624537D01*
X72587185Y-54545185D01*
X72666537Y-54448494D01*
X72725502Y-54338180D01*
X72761812Y-54218482D01*
X72774072Y-54094000D01*
X74799928Y-54094000D01*
X74812188Y-54218482D01*
X74848498Y-54338180D01*
X74907463Y-54448494D01*
X74986815Y-54545185D01*
X75083506Y-54624537D01*
X75193820Y-54683502D01*
X75313518Y-54719812D01*
X75438000Y-54732072D01*
X77057250Y-54729000D01*
X77216000Y-54570250D01*
X77216000Y-53721000D01*
X77470000Y-53721000D01*
X77470000Y-54570250D01*
X77628750Y-54729000D01*
X79248000Y-54732072D01*
X79372482Y-54719812D01*
X79492180Y-54683502D01*
X79602494Y-54624537D01*
X79699185Y-54545185D01*
X79778537Y-54448494D01*
X79837502Y-54338180D01*
X79873812Y-54218482D01*
X79886072Y-54094000D01*
X79883000Y-53879750D01*
X79724250Y-53721000D01*
X77470000Y-53721000D01*
X77216000Y-53721000D01*
X74961750Y-53721000D01*
X74803000Y-53879750D01*
X74799928Y-54094000D01*
X72774072Y-54094000D01*
X72774072Y-53094000D01*
X74799928Y-53094000D01*
X74803000Y-53308250D01*
X74961750Y-53467000D01*
X77216000Y-53467000D01*
X77216000Y-52617750D01*
X77470000Y-52617750D01*
X77470000Y-53467000D01*
X79724250Y-53467000D01*
X79883000Y-53308250D01*
X79886072Y-53094000D01*
X79873812Y-52969518D01*
X79837502Y-52849820D01*
X79778537Y-52739506D01*
X79699185Y-52642815D01*
X79602494Y-52563463D01*
X79492180Y-52504498D01*
X79372482Y-52468188D01*
X79248000Y-52455928D01*
X77628750Y-52459000D01*
X77470000Y-52617750D01*
X77216000Y-52617750D01*
X77057250Y-52459000D01*
X75438000Y-52455928D01*
X75313518Y-52468188D01*
X75193820Y-52504498D01*
X75083506Y-52563463D01*
X74986815Y-52642815D01*
X74907463Y-52739506D01*
X74848498Y-52849820D01*
X74812188Y-52969518D01*
X74799928Y-53094000D01*
X72774072Y-53094000D01*
X72761812Y-52969518D01*
X72725502Y-52849820D01*
X72666537Y-52739506D01*
X72587185Y-52642815D01*
X72490494Y-52563463D01*
X72380180Y-52504498D01*
X72260482Y-52468188D01*
X72136000Y-52455928D01*
X68326000Y-52455928D01*
X68201518Y-52468188D01*
X68081820Y-52504498D01*
X67971506Y-52563463D01*
X67874815Y-52642815D01*
X67795463Y-52739506D01*
X67736498Y-52849820D01*
X67700188Y-52969518D01*
X67687928Y-53094000D01*
X59711695Y-53094000D01*
X59604937Y-52934226D01*
X59460774Y-52790063D01*
X59291256Y-52676795D01*
X59102898Y-52598774D01*
X58902939Y-52559000D01*
X58801000Y-52559000D01*
X58801000Y-52089000D01*
X58902939Y-52089000D01*
X59102898Y-52049226D01*
X59291256Y-51971205D01*
X59460774Y-51857937D01*
X59604937Y-51713774D01*
X59718205Y-51544256D01*
X59796226Y-51355898D01*
X59836000Y-51155939D01*
X59836000Y-50952061D01*
X59796226Y-50752102D01*
X59718205Y-50563744D01*
X59711695Y-50554000D01*
X67687928Y-50554000D01*
X67687928Y-51554000D01*
X67700188Y-51678482D01*
X67736498Y-51798180D01*
X67795463Y-51908494D01*
X67874815Y-52005185D01*
X67971506Y-52084537D01*
X68081820Y-52143502D01*
X68201518Y-52179812D01*
X68326000Y-52192072D01*
X72136000Y-52192072D01*
X72260482Y-52179812D01*
X72380180Y-52143502D01*
X72490494Y-52084537D01*
X72587185Y-52005185D01*
X72666537Y-51908494D01*
X72725502Y-51798180D01*
X72761812Y-51678482D01*
X72774072Y-51554000D01*
X72774072Y-50554000D01*
X72761812Y-50429518D01*
X72725502Y-50309820D01*
X72666537Y-50199506D01*
X72587185Y-50102815D01*
X72490494Y-50023463D01*
X72380180Y-49964498D01*
X72260482Y-49928188D01*
X72136000Y-49915928D01*
X68326000Y-49915928D01*
X68201518Y-49928188D01*
X68081820Y-49964498D01*
X67971506Y-50023463D01*
X67874815Y-50102815D01*
X67795463Y-50199506D01*
X67736498Y-50309820D01*
X67700188Y-50429518D01*
X67687928Y-50554000D01*
X59711695Y-50554000D01*
X59604937Y-50394226D01*
X59460774Y-50250063D01*
X59291256Y-50136795D01*
X59102898Y-50058774D01*
X58902939Y-50019000D01*
X58699061Y-50019000D01*
X58550953Y-50048460D01*
X58520494Y-50023463D01*
X58410180Y-49964498D01*
X58290482Y-49928188D01*
X58166000Y-49915928D01*
X54356000Y-49915928D01*
X54231518Y-49928188D01*
X54111820Y-49964498D01*
X54001506Y-50023463D01*
X53904815Y-50102815D01*
X53825463Y-50199506D01*
X53766498Y-50309820D01*
X53730188Y-50429518D01*
X53718716Y-50546000D01*
X51364778Y-50546000D01*
X51418537Y-50480494D01*
X51477502Y-50370180D01*
X51513812Y-50250482D01*
X51526072Y-50126000D01*
X51523000Y-49561750D01*
X51364250Y-49403000D01*
X50165000Y-49403000D01*
X50165000Y-49423000D01*
X49911000Y-49423000D01*
X49911000Y-49403000D01*
X48711750Y-49403000D01*
X48553000Y-49561750D01*
X48549928Y-50126000D01*
X48562188Y-50250482D01*
X48598498Y-50370180D01*
X48657463Y-50480494D01*
X48711222Y-50546000D01*
X48006000Y-50546000D01*
X48006000Y-48426000D01*
X48549928Y-48426000D01*
X48553000Y-48990250D01*
X48711750Y-49149000D01*
X49911000Y-49149000D01*
X49911000Y-47949750D01*
X50165000Y-47949750D01*
X50165000Y-49149000D01*
X51364250Y-49149000D01*
X51523000Y-48990250D01*
X51526072Y-48426000D01*
X51513812Y-48301518D01*
X51477502Y-48181820D01*
X51418537Y-48071506D01*
X51413034Y-48064800D01*
X53717928Y-48064800D01*
X53717928Y-49064800D01*
X53730188Y-49189282D01*
X53766498Y-49308980D01*
X53825463Y-49419294D01*
X53904815Y-49515985D01*
X54001506Y-49595337D01*
X54111820Y-49654302D01*
X54231518Y-49690612D01*
X54356000Y-49702872D01*
X58166000Y-49702872D01*
X58290482Y-49690612D01*
X58410180Y-49654302D01*
X58520494Y-49595337D01*
X58600777Y-49529450D01*
X58699061Y-49549000D01*
X58902939Y-49549000D01*
X59102898Y-49509226D01*
X59291256Y-49431205D01*
X59460774Y-49317937D01*
X59604937Y-49173774D01*
X59677750Y-49064800D01*
X67687928Y-49064800D01*
X67700188Y-49189282D01*
X67736498Y-49308980D01*
X67795463Y-49419294D01*
X67874815Y-49515985D01*
X67971506Y-49595337D01*
X68081820Y-49654302D01*
X68201518Y-49690612D01*
X68326000Y-49702872D01*
X69945250Y-49699800D01*
X70104000Y-49541050D01*
X70104000Y-48691800D01*
X70358000Y-48691800D01*
X70358000Y-49541050D01*
X70516750Y-49699800D01*
X72136000Y-49702872D01*
X72260482Y-49690612D01*
X72380180Y-49654302D01*
X72490494Y-49595337D01*
X72587185Y-49515985D01*
X72666537Y-49419294D01*
X72725502Y-49308980D01*
X72761812Y-49189282D01*
X72774072Y-49064800D01*
X72771000Y-48850550D01*
X72612250Y-48691800D01*
X70358000Y-48691800D01*
X70104000Y-48691800D01*
X67849750Y-48691800D01*
X67691000Y-48850550D01*
X67687928Y-49064800D01*
X59677750Y-49064800D01*
X59718205Y-49004256D01*
X59796226Y-48815898D01*
X59836000Y-48615939D01*
X59836000Y-48412061D01*
X59796226Y-48212102D01*
X59735212Y-48064800D01*
X67687928Y-48064800D01*
X67691000Y-48279050D01*
X67849750Y-48437800D01*
X70104000Y-48437800D01*
X70104000Y-47588550D01*
X70358000Y-47588550D01*
X70358000Y-48437800D01*
X72612250Y-48437800D01*
X72771000Y-48279050D01*
X72774072Y-48064800D01*
X74799928Y-48064800D01*
X74799928Y-49064800D01*
X74812188Y-49189282D01*
X74848498Y-49308980D01*
X74907463Y-49419294D01*
X74986815Y-49515985D01*
X75083506Y-49595337D01*
X75193820Y-49654302D01*
X75313518Y-49690612D01*
X75438000Y-49702872D01*
X79248000Y-49702872D01*
X79372482Y-49690612D01*
X79492180Y-49654302D01*
X79602494Y-49595337D01*
X79682777Y-49529450D01*
X79781061Y-49549000D01*
X79984939Y-49549000D01*
X80184898Y-49509226D01*
X80373256Y-49431205D01*
X80542774Y-49317937D01*
X80686937Y-49173774D01*
X80759750Y-49064800D01*
X88769928Y-49064800D01*
X88782188Y-49189282D01*
X88818498Y-49308980D01*
X88877463Y-49419294D01*
X88956815Y-49515985D01*
X89053506Y-49595337D01*
X89163820Y-49654302D01*
X89283518Y-49690612D01*
X89408000Y-49702872D01*
X91027250Y-49699800D01*
X91186000Y-49541050D01*
X91186000Y-48691800D01*
X91440000Y-48691800D01*
X91440000Y-49541050D01*
X91598750Y-49699800D01*
X93218000Y-49702872D01*
X93342482Y-49690612D01*
X93462180Y-49654302D01*
X93572494Y-49595337D01*
X93669185Y-49515985D01*
X93748537Y-49419294D01*
X93807502Y-49308980D01*
X93843812Y-49189282D01*
X93856072Y-49064800D01*
X93853000Y-48850550D01*
X93694250Y-48691800D01*
X91440000Y-48691800D01*
X91186000Y-48691800D01*
X88931750Y-48691800D01*
X88773000Y-48850550D01*
X88769928Y-49064800D01*
X80759750Y-49064800D01*
X80800205Y-49004256D01*
X80878226Y-48815898D01*
X80918000Y-48615939D01*
X80918000Y-48412061D01*
X80878226Y-48212102D01*
X80817212Y-48064800D01*
X88769928Y-48064800D01*
X88773000Y-48279050D01*
X88931750Y-48437800D01*
X91186000Y-48437800D01*
X91186000Y-47588550D01*
X91440000Y-47588550D01*
X91440000Y-48437800D01*
X93694250Y-48437800D01*
X93853000Y-48279050D01*
X93856072Y-48064800D01*
X93843812Y-47940318D01*
X93807502Y-47820620D01*
X93748537Y-47710306D01*
X93710535Y-47664000D01*
X96047928Y-47664000D01*
X96047928Y-49364000D01*
X96060188Y-49488482D01*
X96096498Y-49608180D01*
X96155463Y-49718494D01*
X96234815Y-49815185D01*
X96331506Y-49894537D01*
X96441820Y-49953502D01*
X96561518Y-49989812D01*
X96686000Y-50002072D01*
X98386000Y-50002072D01*
X98510482Y-49989812D01*
X98630180Y-49953502D01*
X98740494Y-49894537D01*
X98837185Y-49815185D01*
X98916537Y-49718494D01*
X98975502Y-49608180D01*
X99011812Y-49488482D01*
X99024072Y-49364000D01*
X99024072Y-47664000D01*
X99011812Y-47539518D01*
X98975502Y-47419820D01*
X98916537Y-47309506D01*
X98837185Y-47212815D01*
X98740494Y-47133463D01*
X98630180Y-47074498D01*
X98510482Y-47038188D01*
X98386000Y-47025928D01*
X96686000Y-47025928D01*
X96561518Y-47038188D01*
X96441820Y-47074498D01*
X96331506Y-47133463D01*
X96234815Y-47212815D01*
X96155463Y-47309506D01*
X96096498Y-47419820D01*
X96060188Y-47539518D01*
X96047928Y-47664000D01*
X93710535Y-47664000D01*
X93669185Y-47613615D01*
X93572494Y-47534263D01*
X93462180Y-47475298D01*
X93342482Y-47438988D01*
X93218000Y-47426728D01*
X91598750Y-47429800D01*
X91440000Y-47588550D01*
X91186000Y-47588550D01*
X91027250Y-47429800D01*
X89408000Y-47426728D01*
X89283518Y-47438988D01*
X89163820Y-47475298D01*
X89053506Y-47534263D01*
X88956815Y-47613615D01*
X88877463Y-47710306D01*
X88818498Y-47820620D01*
X88782188Y-47940318D01*
X88769928Y-48064800D01*
X80817212Y-48064800D01*
X80800205Y-48023744D01*
X80686937Y-47854226D01*
X80542774Y-47710063D01*
X80373256Y-47596795D01*
X80184898Y-47518774D01*
X79984939Y-47479000D01*
X79781061Y-47479000D01*
X79581102Y-47518774D01*
X79576828Y-47520544D01*
X79492180Y-47475298D01*
X79372482Y-47438988D01*
X79248000Y-47426728D01*
X75438000Y-47426728D01*
X75313518Y-47438988D01*
X75193820Y-47475298D01*
X75083506Y-47534263D01*
X74986815Y-47613615D01*
X74907463Y-47710306D01*
X74848498Y-47820620D01*
X74812188Y-47940318D01*
X74799928Y-48064800D01*
X72774072Y-48064800D01*
X72761812Y-47940318D01*
X72725502Y-47820620D01*
X72666537Y-47710306D01*
X72587185Y-47613615D01*
X72490494Y-47534263D01*
X72380180Y-47475298D01*
X72260482Y-47438988D01*
X72136000Y-47426728D01*
X70516750Y-47429800D01*
X70358000Y-47588550D01*
X70104000Y-47588550D01*
X69945250Y-47429800D01*
X68326000Y-47426728D01*
X68201518Y-47438988D01*
X68081820Y-47475298D01*
X67971506Y-47534263D01*
X67874815Y-47613615D01*
X67795463Y-47710306D01*
X67736498Y-47820620D01*
X67700188Y-47940318D01*
X67687928Y-48064800D01*
X59735212Y-48064800D01*
X59718205Y-48023744D01*
X59604937Y-47854226D01*
X59460774Y-47710063D01*
X59291256Y-47596795D01*
X59102898Y-47518774D01*
X58902939Y-47479000D01*
X58699061Y-47479000D01*
X58499102Y-47518774D01*
X58494828Y-47520544D01*
X58410180Y-47475298D01*
X58290482Y-47438988D01*
X58166000Y-47426728D01*
X54356000Y-47426728D01*
X54231518Y-47438988D01*
X54111820Y-47475298D01*
X54001506Y-47534263D01*
X53904815Y-47613615D01*
X53825463Y-47710306D01*
X53766498Y-47820620D01*
X53730188Y-47940318D01*
X53717928Y-48064800D01*
X51413034Y-48064800D01*
X51339185Y-47974815D01*
X51242494Y-47895463D01*
X51132180Y-47836498D01*
X51012482Y-47800188D01*
X50888000Y-47787928D01*
X50323750Y-47791000D01*
X50165000Y-47949750D01*
X49911000Y-47949750D01*
X49752250Y-47791000D01*
X49188000Y-47787928D01*
X49063518Y-47800188D01*
X48943820Y-47836498D01*
X48833506Y-47895463D01*
X48736815Y-47974815D01*
X48657463Y-48071506D01*
X48598498Y-48181820D01*
X48562188Y-48301518D01*
X48549928Y-48426000D01*
X48006000Y-48426000D01*
X48006000Y-45085000D01*
X100068157Y-45085000D01*
X100083843Y-66167000D01*
%TD*%
M02*
